<svg xmlns="http://www.w3.org/2000/svg" xmlns:xlink="http://www.w3.org/1999/xlink" zoomAndPan="magnify" preserveAspectRatio="xMidYMid meet" version="1.0" viewBox="157.87 150.25 59.25 74.55"><defs><clipPath id="40c39d6ff6"><path d="M 157.867188 155 L 217.117188 155 L 217.117188 215 L 157.867188 215 Z M 157.867188 155 " clip-rule="nonzero"/></clipPath><clipPath id="9cdb178729"><path d="M 187.492188 155.792969 C 186.523438 155.792969 185.554688 155.84375 184.589844 155.9375 C 183.625 156.035156 182.667969 156.179688 181.714844 156.367188 C 180.765625 156.558594 179.824219 156.796875 178.894531 157.078125 C 177.96875 157.359375 177.054688 157.6875 176.160156 158.058594 C 175.265625 158.433594 174.390625 158.847656 173.535156 159.304688 C 172.679688 159.761719 171.847656 160.261719 171.042969 160.800781 C 170.234375 161.34375 169.457031 161.917969 168.707031 162.535156 C 167.957031 163.152344 167.238281 163.804688 166.554688 164.488281 C 165.867188 165.175781 165.21875 165.894531 164.601562 166.644531 C 163.988281 167.394531 163.410156 168.175781 162.871094 168.984375 C 162.332031 169.789062 161.832031 170.621094 161.375 171.476562 C 160.917969 172.332031 160.503906 173.210938 160.132812 174.105469 C 159.757812 175.003906 159.433594 175.917969 159.152344 176.847656 C 158.867188 177.773438 158.632812 178.714844 158.441406 179.667969 C 158.253906 180.621094 158.109375 181.578125 158.011719 182.546875 C 157.917969 183.511719 157.867188 184.480469 157.867188 185.453125 C 159.496094 224.796875 215.496094 224.785156 217.117188 185.453125 C 217.117188 184.480469 217.066406 183.511719 216.972656 182.546875 C 216.875 181.578125 216.734375 180.621094 216.542969 179.667969 C 216.351562 178.714844 216.117188 177.773438 215.835938 176.847656 C 215.550781 175.917969 215.226562 175.003906 214.851562 174.105469 C 214.480469 173.210938 214.066406 172.332031 213.609375 171.476562 C 213.152344 170.621094 212.652344 169.789062 212.113281 168.980469 C 211.574219 168.175781 210.996094 167.394531 210.382812 166.644531 C 209.765625 165.894531 209.117188 165.175781 208.429688 164.488281 C 207.746094 163.804688 207.027344 163.152344 206.277344 162.535156 C 205.527344 161.917969 204.75 161.339844 203.941406 160.800781 C 203.136719 160.261719 202.304688 159.761719 201.449219 159.304688 C 200.59375 158.847656 199.71875 158.433594 198.824219 158.058594 C 197.929688 157.6875 197.015625 157.359375 196.089844 157.078125 C 195.160156 156.796875 194.21875 156.558594 193.269531 156.367188 C 192.316406 156.179688 191.359375 156.035156 190.394531 155.9375 C 189.429688 155.84375 188.460938 155.792969 187.492188 155.792969 Z M 187.492188 211.988281 C 186.625 211.988281 185.757812 211.945312 184.894531 211.859375 C 184.03125 211.773438 183.175781 211.644531 182.324219 211.472656 C 181.472656 211.304688 180.632812 211.09375 179.800781 210.839844 C 178.972656 210.585938 178.15625 210.292969 177.351562 209.960938 C 176.550781 209.628906 175.769531 209.257812 175.003906 208.847656 C 174.238281 208.4375 173.496094 207.988281 172.773438 207.507812 C 172.050781 207.023438 171.355469 206.507812 170.683594 205.957031 C 170.015625 205.40625 169.371094 204.820312 168.757812 204.207031 C 168.144531 203.59375 167.5625 202.949219 167.011719 202.277344 C 166.460938 201.605469 165.945312 200.910156 165.460938 200.1875 C 164.980469 199.464844 164.535156 198.722656 164.125 197.957031 C 163.714844 197.1875 163.34375 196.40625 163.011719 195.601562 C 162.679688 194.800781 162.386719 193.984375 162.132812 193.152344 C 161.882812 192.320312 161.671875 191.480469 161.5 190.628906 C 161.328125 189.773438 161.203125 188.917969 161.117188 188.050781 C 161.03125 187.1875 160.988281 186.320312 160.984375 185.453125 C 162.441406 150.246094 212.546875 150.257812 214 185.453125 C 213.996094 186.320312 213.953125 187.1875 213.867188 188.050781 C 213.78125 188.917969 213.65625 189.773438 213.484375 190.628906 C 213.316406 191.480469 213.101562 192.320312 212.851562 193.152344 C 212.597656 193.984375 212.304688 194.800781 211.972656 195.601562 C 211.640625 196.40625 211.269531 197.1875 210.859375 197.957031 C 210.449219 198.722656 210.003906 199.464844 209.523438 200.1875 C 209.039062 200.910156 208.523438 201.605469 207.972656 202.277344 C 207.421875 202.949219 206.839844 203.59375 206.226562 204.207031 C 205.613281 204.820312 204.96875 205.40625 204.300781 205.957031 C 203.628906 206.507812 202.933594 207.023438 202.210938 207.507812 C 201.488281 207.988281 200.746094 208.4375 199.980469 208.847656 C 199.214844 209.257812 198.433594 209.628906 197.632812 209.960938 C 196.828125 210.292969 196.011719 210.585938 195.183594 210.839844 C 194.351562 211.09375 193.511719 211.304688 192.660156 211.472656 C 191.808594 211.644531 190.953125 211.773438 190.089844 211.859375 C 189.226562 211.945312 188.359375 211.988281 187.492188 211.988281 Z M 203.097656 178.171875 L 201.59375 175.5625 C 201.3125 175.078125 200.957031 174.664062 200.519531 174.320312 C 200.082031 173.972656 199.59375 173.71875 199.0625 173.558594 C 198.527344 173.398438 197.980469 173.34375 197.425781 173.390625 C 196.871094 173.4375 196.34375 173.589844 195.84375 173.839844 C 195.667969 173.925781 195.496094 173.914062 195.332031 173.804688 C 194.796875 173.445312 194.234375 173.121094 193.652344 172.839844 C 193.472656 172.75 193.375 172.605469 193.363281 172.402344 C 193.328125 171.84375 193.195312 171.3125 192.957031 170.808594 C 192.722656 170.300781 192.402344 169.859375 191.996094 169.476562 C 191.589844 169.09375 191.128906 168.796875 190.609375 168.589844 C 190.09375 168.386719 189.554688 168.28125 188.996094 168.28125 L 185.988281 168.28125 C 185.429688 168.28125 184.890625 168.386719 184.371094 168.59375 C 183.851562 168.800781 183.390625 169.09375 182.984375 169.480469 C 182.578125 169.863281 182.257812 170.308594 182.023438 170.816406 C 181.789062 171.320312 181.652344 171.855469 181.621094 172.414062 C 181.605469 172.609375 181.511719 172.753906 181.332031 172.839844 C 180.628906 173.039062 179.785156 174.027344 179.140625 173.835938 C 178.640625 173.585938 178.113281 173.4375 177.558594 173.390625 C 177.003906 173.34375 176.457031 173.398438 175.921875 173.558594 C 175.390625 173.71875 174.902344 173.972656 174.464844 174.320312 C 174.027344 174.664062 173.671875 175.078125 173.390625 175.5625 L 171.886719 178.171875 C 171.609375 178.652344 171.429688 179.171875 171.347656 179.722656 C 171.269531 180.277344 171.292969 180.824219 171.417969 181.367188 C 171.546875 181.910156 171.773438 182.410156 172.089844 182.867188 C 172.410156 183.324219 172.804688 183.707031 173.269531 184.015625 C 173.742188 184.46875 173.320312 185.695312 173.492188 186.378906 C 173.519531 186.59375 173.445312 186.761719 173.269531 186.886719 C 172.804688 187.195312 172.410156 187.578125 172.089844 188.035156 C 171.773438 188.492188 171.546875 188.992188 171.421875 189.535156 C 171.292969 190.078125 171.269531 190.628906 171.347656 191.179688 C 171.429688 191.730469 171.609375 192.25 171.886719 192.734375 L 173.390625 195.339844 C 173.671875 195.824219 174.027344 196.238281 174.464844 196.585938 C 174.902344 196.933594 175.390625 197.183594 175.925781 197.34375 C 176.457031 197.503906 177.003906 197.5625 177.558594 197.511719 C 178.113281 197.464844 178.640625 197.316406 179.140625 197.066406 C 179.316406 196.976562 179.488281 196.988281 179.652344 197.101562 C 180.1875 197.460938 180.75 197.78125 181.332031 198.0625 C 181.515625 198.152344 181.609375 198.300781 181.621094 198.5 C 181.65625 199.058594 181.789062 199.589844 182.027344 200.097656 C 182.261719 200.601562 182.582031 201.046875 182.988281 201.429688 C 183.394531 201.8125 183.855469 202.105469 184.375 202.3125 C 184.890625 202.519531 185.429688 202.621094 185.988281 202.621094 L 188.996094 202.621094 C 189.554688 202.621094 190.09375 202.519531 190.613281 202.3125 C 191.132812 202.105469 191.59375 201.808594 192 201.425781 C 192.40625 201.042969 192.726562 200.597656 192.960938 200.089844 C 193.199219 199.582031 193.332031 199.050781 193.363281 198.492188 C 193.378906 198.292969 193.472656 198.152344 193.652344 198.066406 C 194.355469 197.863281 195.199219 196.878906 195.84375 197.066406 C 196.34375 197.316406 196.871094 197.464844 197.425781 197.511719 C 197.980469 197.5625 198.527344 197.503906 199.0625 197.34375 C 199.59375 197.183594 200.082031 196.929688 200.519531 196.585938 C 200.957031 196.238281 201.3125 195.824219 201.59375 195.339844 L 203.097656 192.734375 C 203.375 192.25 203.554688 191.730469 203.636719 191.179688 C 203.71875 190.628906 203.691406 190.078125 203.566406 189.535156 C 203.4375 188.992188 203.210938 188.492188 202.894531 188.035156 C 202.574219 187.578125 202.179688 187.195312 201.714844 186.886719 C 201.296875 186.566406 201.589844 185.914062 201.523438 185.453125 C 201.59375 184.992188 201.289062 184.335938 201.714844 184.015625 C 202.179688 183.710938 202.574219 183.328125 202.894531 182.871094 C 203.210938 182.410156 203.4375 181.910156 203.566406 181.367188 C 203.691406 180.824219 203.71875 180.277344 203.636719 179.722656 C 203.554688 179.171875 203.375 178.652344 203.097656 178.171875 Z M 198.378906 184.753906 C 198.335938 186.523438 198.300781 188.460938 200 189.496094 C 200.132812 189.582031 200.246094 189.691406 200.339844 189.824219 C 200.429688 189.957031 200.496094 190.097656 200.53125 190.253906 C 200.566406 190.410156 200.574219 190.566406 200.550781 190.726562 C 200.527344 190.886719 200.476562 191.035156 200.398438 191.171875 L 198.894531 193.78125 C 198.8125 193.917969 198.710938 194.039062 198.582031 194.136719 C 198.457031 194.238281 198.320312 194.308594 198.164062 194.355469 C 198.011719 194.402344 197.855469 194.417969 197.695312 194.402344 C 197.535156 194.390625 197.382812 194.347656 197.242188 194.273438 C 195.488281 193.296875 193.804688 194.351562 192.289062 195.257812 C 191.699219 195.546875 191.21875 195.964844 190.855469 196.511719 C 190.488281 197.058594 190.289062 197.660156 190.25 198.320312 C 190.242188 198.480469 190.203125 198.632812 190.132812 198.777344 C 190.066406 198.921875 189.972656 199.046875 189.855469 199.160156 C 189.742188 199.269531 189.609375 199.351562 189.460938 199.410156 C 189.3125 199.472656 189.15625 199.5 188.996094 199.5 L 185.988281 199.5 C 185.828125 199.5 185.671875 199.46875 185.523438 199.410156 C 185.375 199.351562 185.242188 199.265625 185.125 199.15625 C 185.007812 199.042969 184.914062 198.917969 184.847656 198.769531 C 184.78125 198.625 184.742188 198.472656 184.734375 198.3125 C 184.695312 196.269531 182.945312 195.367188 181.386719 194.507812 C 180.84375 194.144531 180.246094 193.941406 179.597656 193.898438 C 178.945312 193.859375 178.328125 193.984375 177.742188 194.277344 C 177.597656 194.347656 177.449219 194.390625 177.289062 194.40625 C 177.128906 194.417969 176.972656 194.402344 176.820312 194.355469 C 176.664062 194.308594 176.527344 194.238281 176.398438 194.136719 C 176.273438 194.039062 176.171875 193.917969 176.089844 193.78125 L 174.585938 191.171875 C 174.507812 191.035156 174.457031 190.886719 174.433594 190.726562 C 174.410156 190.566406 174.417969 190.410156 174.453125 190.253906 C 174.492188 190.097656 174.554688 189.953125 174.644531 189.824219 C 174.738281 189.691406 174.851562 189.582031 174.984375 189.492188 C 175.296875 189.269531 175.570312 189.003906 175.808594 188.699219 C 176.046875 188.398438 176.234375 188.066406 176.375 187.707031 C 176.515625 187.347656 176.605469 186.976562 176.640625 186.59375 C 176.671875 186.210938 176.652344 185.828125 176.578125 185.453125 C 176.652344 185.074219 176.671875 184.691406 176.636719 184.308594 C 176.605469 183.925781 176.515625 183.554688 176.375 183.195312 C 176.234375 182.835938 176.042969 182.507812 175.808594 182.203125 C 175.570312 181.898438 175.296875 181.632812 174.984375 181.410156 C 174.851562 181.320312 174.738281 181.210938 174.644531 181.078125 C 174.554688 180.949219 174.488281 180.804688 174.453125 180.648438 C 174.417969 180.492188 174.410156 180.335938 174.433594 180.175781 C 174.457031 180.019531 174.507812 179.871094 174.585938 179.730469 L 176.089844 177.125 C 176.171875 176.984375 176.273438 176.867188 176.398438 176.765625 C 176.527344 176.667969 176.664062 176.59375 176.820312 176.546875 C 176.972656 176.5 177.128906 176.484375 177.289062 176.5 C 177.449219 176.511719 177.601562 176.558594 177.742188 176.628906 C 179.496094 177.609375 181.179688 176.554688 182.695312 175.648438 C 183.285156 175.359375 183.765625 174.941406 184.128906 174.394531 C 184.496094 173.84375 184.695312 173.242188 184.734375 172.585938 C 184.742188 172.425781 184.78125 172.273438 184.851562 172.128906 C 184.917969 171.984375 185.011719 171.855469 185.128906 171.746094 C 185.242188 171.636719 185.375 171.550781 185.523438 171.492188 C 185.671875 171.433594 185.828125 171.402344 185.988281 171.402344 L 188.996094 171.402344 C 189.15625 171.402344 189.3125 171.433594 189.460938 171.492188 C 189.609375 171.554688 189.742188 171.636719 189.859375 171.75 C 189.976562 171.859375 190.070312 171.988281 190.136719 172.132812 C 190.203125 172.28125 190.242188 172.433594 190.25 172.59375 C 190.289062 173.25 190.492188 173.851562 190.855469 174.398438 C 191.222656 174.945312 191.699219 175.359375 192.289062 175.648438 C 193.804688 176.554688 195.488281 177.605469 197.242188 176.628906 C 197.386719 176.554688 197.535156 176.511719 197.695312 176.5 C 197.855469 176.484375 198.011719 176.5 198.167969 176.546875 C 198.320312 176.59375 198.457031 176.667969 198.585938 176.765625 C 198.710938 176.867188 198.8125 176.984375 198.894531 177.125 L 200.398438 179.730469 C 200.476562 179.871094 200.527344 180.019531 200.550781 180.179688 C 200.574219 180.335938 200.566406 180.492188 200.53125 180.648438 C 200.496094 180.804688 200.429688 180.949219 200.339844 181.082031 C 200.246094 181.210938 200.132812 181.320312 200 181.410156 C 199.449219 181.78125 199.027344 182.261719 198.734375 182.863281 C 198.445312 183.460938 198.328125 184.089844 198.378906 184.753906 Z M 187.492188 178.6875 C 187.046875 178.6875 186.609375 178.730469 186.175781 178.820312 C 185.738281 178.90625 185.316406 179.035156 184.90625 179.203125 C 184.5 179.375 184.109375 179.582031 183.742188 179.832031 C 183.371094 180.078125 183.03125 180.355469 182.71875 180.671875 C 182.402344 180.984375 182.125 181.328125 181.875 181.695312 C 181.628906 182.066406 181.421875 182.453125 181.253906 182.863281 C 181.082031 183.273438 180.953125 183.699219 180.867188 184.132812 C 180.78125 184.566406 180.734375 185.007812 180.734375 185.453125 C 181.054688 194.40625 193.933594 194.402344 194.25 185.453125 C 194.25 185.007812 194.203125 184.566406 194.117188 184.132812 C 194.03125 183.699219 193.902344 183.273438 193.730469 182.863281 C 193.5625 182.453125 193.355469 182.066406 193.109375 181.695312 C 192.859375 181.328125 192.582031 180.984375 192.265625 180.671875 C 191.953125 180.355469 191.613281 180.078125 191.242188 179.832031 C 190.875 179.582031 190.484375 179.375 190.078125 179.203125 C 189.667969 179.035156 189.246094 178.90625 188.808594 178.820312 C 188.375 178.730469 187.9375 178.6875 187.492188 178.6875 Z M 187.492188 189.09375 C 187.011719 189.089844 186.554688 188.992188 186.113281 188.804688 C 185.671875 188.617188 185.28125 188.355469 184.945312 188.011719 C 184.609375 187.671875 184.351562 187.28125 184.167969 186.835938 C 183.984375 186.394531 183.894531 185.929688 183.894531 185.453125 C 183.894531 184.972656 183.984375 184.511719 184.167969 184.066406 C 184.351562 183.625 184.609375 183.230469 184.945312 182.890625 C 185.28125 182.550781 185.671875 182.285156 186.113281 182.097656 C 186.554688 181.910156 187.011719 181.816406 187.492188 181.808594 C 187.972656 181.816406 188.429688 181.910156 188.871094 182.097656 C 189.3125 182.285156 189.703125 182.550781 190.039062 182.890625 C 190.375 183.230469 190.636719 183.625 190.816406 184.066406 C 191 184.511719 191.089844 184.972656 191.089844 185.453125 C 191.089844 185.929688 191 186.394531 190.816406 186.835938 C 190.632812 187.28125 190.375 187.671875 190.039062 188.011719 C 189.703125 188.355469 189.3125 188.617188 188.871094 188.804688 C 188.429688 188.992188 187.972656 189.089844 187.492188 189.09375 Z M 187.492188 189.09375 " clip-rule="nonzero"/></clipPath><linearGradient x1="3.500004" gradientTransform="matrix(1.039474, 0, 0, 1.040655, 154.229112, 152.151076)" y1="31.926001" x2="60.50001" gradientUnits="userSpaceOnUse" y2="31.926001" id="4843276d7f"><stop stop-opacity="1" stop-color="rgb(0%, 75.299072%, 100%)" offset="0"/><stop stop-opacity="1" stop-color="rgb(0.1297%, 75.138855%, 100%)" offset="0.0078125"/><stop stop-opacity="1" stop-color="rgb(0.389099%, 74.819946%, 100%)" offset="0.015625"/><stop stop-opacity="1" stop-color="rgb(0.648499%, 74.501038%, 100%)" offset="0.0234375"/><stop stop-opacity="1" stop-color="rgb(0.909424%, 74.183655%, 100%)" offset="0.03125"/><stop stop-opacity="1" stop-color="rgb(1.168823%, 73.864746%, 100%)" offset="0.0390625"/><stop stop-opacity="1" stop-color="rgb(1.429749%, 73.545837%, 100%)" offset="0.046875"/><stop stop-opacity="1" stop-color="rgb(1.689148%, 73.226929%, 100%)" offset="0.0546875"/><stop stop-opacity="1" stop-color="rgb(1.950073%, 72.90802%, 100%)" offset="0.0625"/><stop stop-opacity="1" stop-color="rgb(2.209473%, 72.589111%, 100%)" offset="0.0703125"/><stop stop-opacity="1" stop-color="rgb(2.470398%, 72.270203%, 100%)" offset="0.078125"/><stop stop-opacity="1" stop-color="rgb(2.729797%, 71.951294%, 100%)" offset="0.0859375"/><stop stop-opacity="1" stop-color="rgb(2.990723%, 71.632385%, 100%)" offset="0.09375"/><stop stop-opacity="1" stop-color="rgb(3.250122%, 71.313477%, 100%)" offset="0.101563"/><stop stop-opacity="1" stop-color="rgb(3.511047%, 70.996094%, 100%)" offset="0.109375"/><stop stop-opacity="1" stop-color="rgb(3.770447%, 70.677185%, 100%)" offset="0.117188"/><stop stop-opacity="1" stop-color="rgb(4.031372%, 70.358276%, 100%)" offset="0.125"/><stop stop-opacity="1" stop-color="rgb(4.290771%, 70.039368%, 100%)" offset="0.132813"/><stop stop-opacity="1" stop-color="rgb(4.551697%, 69.720459%, 100%)" offset="0.140625"/><stop stop-opacity="1" stop-color="rgb(4.811096%, 69.40155%, 100%)" offset="0.148438"/><stop stop-opacity="1" stop-color="rgb(5.072021%, 69.082642%, 100%)" offset="0.15625"/><stop stop-opacity="1" stop-color="rgb(5.331421%, 68.763733%, 100%)" offset="0.164063"/><stop stop-opacity="1" stop-color="rgb(5.592346%, 68.444824%, 100%)" offset="0.171875"/><stop stop-opacity="1" stop-color="rgb(5.851746%, 68.125916%, 100%)" offset="0.179688"/><stop stop-opacity="1" stop-color="rgb(6.112671%, 67.808533%, 100%)" offset="0.1875"/><stop stop-opacity="1" stop-color="rgb(6.37207%, 67.489624%, 100%)" offset="0.195313"/><stop stop-opacity="1" stop-color="rgb(6.632996%, 67.170715%, 100%)" offset="0.203125"/><stop stop-opacity="1" stop-color="rgb(6.892395%, 66.851807%, 100%)" offset="0.210938"/><stop stop-opacity="1" stop-color="rgb(7.15332%, 66.532898%, 100%)" offset="0.21875"/><stop stop-opacity="1" stop-color="rgb(7.41272%, 66.213989%, 100%)" offset="0.226563"/><stop stop-opacity="1" stop-color="rgb(7.673645%, 65.895081%, 100%)" offset="0.234375"/><stop stop-opacity="1" stop-color="rgb(7.933044%, 65.576172%, 100%)" offset="0.242188"/><stop stop-opacity="1" stop-color="rgb(8.19397%, 65.257263%, 100%)" offset="0.25"/><stop stop-opacity="1" stop-color="rgb(8.453369%, 64.93988%, 100%)" offset="0.257813"/><stop stop-opacity="1" stop-color="rgb(8.714294%, 64.620972%, 100%)" offset="0.265625"/><stop stop-opacity="1" stop-color="rgb(8.973694%, 64.302063%, 100%)" offset="0.273438"/><stop stop-opacity="1" stop-color="rgb(9.234619%, 63.983154%, 100%)" offset="0.28125"/><stop stop-opacity="1" stop-color="rgb(9.494019%, 63.664246%, 100%)" offset="0.289063"/><stop stop-opacity="1" stop-color="rgb(9.754944%, 63.345337%, 100%)" offset="0.296875"/><stop stop-opacity="1" stop-color="rgb(10.014343%, 63.026428%, 100%)" offset="0.304688"/><stop stop-opacity="1" stop-color="rgb(10.275269%, 62.70752%, 100%)" offset="0.3125"/><stop stop-opacity="1" stop-color="rgb(10.534668%, 62.388611%, 100%)" offset="0.320313"/><stop stop-opacity="1" stop-color="rgb(10.795593%, 62.069702%, 100%)" offset="0.328125"/><stop stop-opacity="1" stop-color="rgb(11.054993%, 61.752319%, 100%)" offset="0.335938"/><stop stop-opacity="1" stop-color="rgb(11.315918%, 61.433411%, 100%)" offset="0.34375"/><stop stop-opacity="1" stop-color="rgb(11.575317%, 61.114502%, 100%)" offset="0.351563"/><stop stop-opacity="1" stop-color="rgb(11.836243%, 60.795593%, 100%)" offset="0.359375"/><stop stop-opacity="1" stop-color="rgb(12.095642%, 60.476685%, 100%)" offset="0.367188"/><stop stop-opacity="1" stop-color="rgb(12.356567%, 60.157776%, 100%)" offset="0.375"/><stop stop-opacity="1" stop-color="rgb(12.615967%, 59.838867%, 100%)" offset="0.382813"/><stop stop-opacity="1" stop-color="rgb(12.876892%, 59.519958%, 100%)" offset="0.390625"/><stop stop-opacity="1" stop-color="rgb(13.136292%, 59.20105%, 100%)" offset="0.398438"/><stop stop-opacity="1" stop-color="rgb(13.397217%, 58.883667%, 100%)" offset="0.40625"/><stop stop-opacity="1" stop-color="rgb(13.656616%, 58.564758%, 100%)" offset="0.414063"/><stop stop-opacity="1" stop-color="rgb(13.917542%, 58.24585%, 100%)" offset="0.421875"/><stop stop-opacity="1" stop-color="rgb(14.176941%, 57.926941%, 100%)" offset="0.429688"/><stop stop-opacity="1" stop-color="rgb(14.437866%, 57.608032%, 100%)" offset="0.4375"/><stop stop-opacity="1" stop-color="rgb(14.697266%, 57.289124%, 100%)" offset="0.445313"/><stop stop-opacity="1" stop-color="rgb(14.958191%, 56.970215%, 100%)" offset="0.453125"/><stop stop-opacity="1" stop-color="rgb(15.21759%, 56.651306%, 100%)" offset="0.460938"/><stop stop-opacity="1" stop-color="rgb(15.478516%, 56.332397%, 100%)" offset="0.46875"/><stop stop-opacity="1" stop-color="rgb(15.737915%, 56.013489%, 100%)" offset="0.476563"/><stop stop-opacity="1" stop-color="rgb(15.99884%, 55.696106%, 100%)" offset="0.484375"/><stop stop-opacity="1" stop-color="rgb(16.25824%, 55.377197%, 100%)" offset="0.492188"/><stop stop-opacity="1" stop-color="rgb(16.519165%, 55.058289%, 100%)" offset="0.5"/><stop stop-opacity="1" stop-color="rgb(16.778564%, 54.73938%, 100%)" offset="0.507812"/><stop stop-opacity="1" stop-color="rgb(17.03949%, 54.420471%, 100%)" offset="0.515625"/><stop stop-opacity="1" stop-color="rgb(17.298889%, 54.101562%, 100%)" offset="0.523438"/><stop stop-opacity="1" stop-color="rgb(17.559814%, 53.782654%, 100%)" offset="0.53125"/><stop stop-opacity="1" stop-color="rgb(17.819214%, 53.463745%, 100%)" offset="0.539063"/><stop stop-opacity="1" stop-color="rgb(18.080139%, 53.144836%, 100%)" offset="0.546875"/><stop stop-opacity="1" stop-color="rgb(18.339539%, 52.825928%, 100%)" offset="0.554688"/><stop stop-opacity="1" stop-color="rgb(18.600464%, 52.508545%, 100%)" offset="0.5625"/><stop stop-opacity="1" stop-color="rgb(18.859863%, 52.189636%, 100%)" offset="0.570312"/><stop stop-opacity="1" stop-color="rgb(19.120789%, 51.870728%, 100%)" offset="0.578125"/><stop stop-opacity="1" stop-color="rgb(19.380188%, 51.551819%, 100%)" offset="0.585938"/><stop stop-opacity="1" stop-color="rgb(19.641113%, 51.23291%, 100%)" offset="0.59375"/><stop stop-opacity="1" stop-color="rgb(19.900513%, 50.914001%, 100%)" offset="0.601562"/><stop stop-opacity="1" stop-color="rgb(20.161438%, 50.595093%, 100%)" offset="0.609375"/><stop stop-opacity="1" stop-color="rgb(20.420837%, 50.276184%, 100%)" offset="0.617188"/><stop stop-opacity="1" stop-color="rgb(20.681763%, 49.957275%, 100%)" offset="0.625"/><stop stop-opacity="1" stop-color="rgb(20.941162%, 49.639893%, 100%)" offset="0.632812"/><stop stop-opacity="1" stop-color="rgb(21.202087%, 49.320984%, 100%)" offset="0.640625"/><stop stop-opacity="1" stop-color="rgb(21.461487%, 49.002075%, 100%)" offset="0.648438"/><stop stop-opacity="1" stop-color="rgb(21.722412%, 48.683167%, 100%)" offset="0.65625"/><stop stop-opacity="1" stop-color="rgb(21.981812%, 48.364258%, 100%)" offset="0.664062"/><stop stop-opacity="1" stop-color="rgb(22.242737%, 48.045349%, 100%)" offset="0.671875"/><stop stop-opacity="1" stop-color="rgb(22.502136%, 47.72644%, 100%)" offset="0.679688"/><stop stop-opacity="1" stop-color="rgb(22.763062%, 47.407532%, 100%)" offset="0.6875"/><stop stop-opacity="1" stop-color="rgb(23.022461%, 47.088623%, 100%)" offset="0.695312"/><stop stop-opacity="1" stop-color="rgb(23.283386%, 46.769714%, 100%)" offset="0.703125"/><stop stop-opacity="1" stop-color="rgb(23.542786%, 46.452332%, 100%)" offset="0.710938"/><stop stop-opacity="1" stop-color="rgb(23.803711%, 46.133423%, 100%)" offset="0.71875"/><stop stop-opacity="1" stop-color="rgb(24.06311%, 45.814514%, 100%)" offset="0.726563"/><stop stop-opacity="1" stop-color="rgb(24.324036%, 45.495605%, 100%)" offset="0.734375"/><stop stop-opacity="1" stop-color="rgb(24.583435%, 45.176697%, 100%)" offset="0.742188"/><stop stop-opacity="1" stop-color="rgb(24.84436%, 44.857788%, 100%)" offset="0.75"/><stop stop-opacity="1" stop-color="rgb(25.10376%, 44.538879%, 100%)" offset="0.757812"/><stop stop-opacity="1" stop-color="rgb(25.364685%, 44.219971%, 100%)" offset="0.765625"/><stop stop-opacity="1" stop-color="rgb(25.624084%, 43.901062%, 100%)" offset="0.773438"/><stop stop-opacity="1" stop-color="rgb(25.88501%, 43.583679%, 100%)" offset="0.78125"/><stop stop-opacity="1" stop-color="rgb(26.144409%, 43.264771%, 100%)" offset="0.789062"/><stop stop-opacity="1" stop-color="rgb(26.405334%, 42.945862%, 100%)" offset="0.796875"/><stop stop-opacity="1" stop-color="rgb(26.664734%, 42.626953%, 100%)" offset="0.804688"/><stop stop-opacity="1" stop-color="rgb(26.925659%, 42.308044%, 100%)" offset="0.8125"/><stop stop-opacity="1" stop-color="rgb(27.185059%, 41.989136%, 100%)" offset="0.820312"/><stop stop-opacity="1" stop-color="rgb(27.445984%, 41.670227%, 100%)" offset="0.828125"/><stop stop-opacity="1" stop-color="rgb(27.705383%, 41.351318%, 100%)" offset="0.835938"/><stop stop-opacity="1" stop-color="rgb(27.966309%, 41.03241%, 100%)" offset="0.84375"/><stop stop-opacity="1" stop-color="rgb(28.225708%, 40.713501%, 100%)" offset="0.851562"/><stop stop-opacity="1" stop-color="rgb(28.486633%, 40.396118%, 100%)" offset="0.859375"/><stop stop-opacity="1" stop-color="rgb(28.746033%, 40.077209%, 100%)" offset="0.867188"/><stop stop-opacity="1" stop-color="rgb(29.006958%, 39.758301%, 100%)" offset="0.875"/><stop stop-opacity="1" stop-color="rgb(29.266357%, 39.439392%, 100%)" offset="0.882812"/><stop stop-opacity="1" stop-color="rgb(29.527283%, 39.120483%, 100%)" offset="0.890625"/><stop stop-opacity="1" stop-color="rgb(29.786682%, 38.801575%, 100%)" offset="0.898438"/><stop stop-opacity="1" stop-color="rgb(30.047607%, 38.482666%, 100%)" offset="0.90625"/><stop stop-opacity="1" stop-color="rgb(30.307007%, 38.163757%, 100%)" offset="0.914063"/><stop stop-opacity="1" stop-color="rgb(30.567932%, 37.844849%, 100%)" offset="0.921875"/><stop stop-opacity="1" stop-color="rgb(30.827332%, 37.52594%, 100%)" offset="0.929688"/><stop stop-opacity="1" stop-color="rgb(31.088257%, 37.208557%, 100%)" offset="0.9375"/><stop stop-opacity="1" stop-color="rgb(31.347656%, 36.889648%, 100%)" offset="0.945313"/><stop stop-opacity="1" stop-color="rgb(31.608582%, 36.57074%, 100%)" offset="0.953125"/><stop stop-opacity="1" stop-color="rgb(31.867981%, 36.251831%, 100%)" offset="0.960938"/><stop stop-opacity="1" stop-color="rgb(32.128906%, 35.932922%, 100%)" offset="0.96875"/><stop stop-opacity="1" stop-color="rgb(32.388306%, 35.614014%, 100%)" offset="0.976562"/><stop stop-opacity="1" stop-color="rgb(32.649231%, 35.295105%, 100%)" offset="0.984375"/><stop stop-opacity="1" stop-color="rgb(32.90863%, 34.976196%, 100%)" offset="0.992188"/><stop stop-opacity="1" stop-color="rgb(33.16803%, 34.657288%, 100%)" offset="1"/></linearGradient></defs><g clip-path="url(#40c39d6ff6)"><g clip-path="url(#9cdb178729)"><path fill="url(#4843276d7f)" d="M 157.867188 150.246094 L 157.867188 224.796875 L 217.117188 224.796875 L 217.117188 150.246094 Z M 157.867188 150.246094 " fill-rule="nonzero"/></g></g></svg>