<svg xmlns="http://www.w3.org/2000/svg" xmlns:xlink="http://www.w3.org/1999/xlink" zoomAndPan="magnify" preserveAspectRatio="xMidYMid meet" version="1.0" viewBox="332.8 379.17 142.11 56.56"><defs><g/></defs><g fill="#2b2f88" fill-opacity="1"><g transform="translate(331.453112, 434.624998)"><g><path d="M 20.617188 0.15625 L 25.910156 0 L 28.203125 -0.789062 L 28.992188 -3 L 29.230469 -7.109375 L 28.992188 -10.113281 L 29.148438 -11.769531 L 29.070312 -14.929688 L 29.230469 -16.351562 L 28.992188 -18.089844 L 29.148438 -30.808594 L 28.914062 -32.46875 L 29.148438 -39.339844 L 29.78125 -41.710938 L 31.28125 -42.660156 L 34.363281 -42.816406 L 37.285156 -42.421875 L 38.945312 -42.660156 L 40.367188 -42.578125 L 41.710938 -43.449219 L 42.660156 -45.1875 L 42.738281 -52.691406 L 41.867188 -54.269531 L 40.367188 -55.296875 L 35.46875 -55.296875 L 33.96875 -55.457031 L 32.308594 -55.21875 L 30.808594 -55.378906 L 24.410156 -55.0625 L 22.832031 -55.378906 L 21.328125 -55.457031 L 19.671875 -55.21875 L 17.933594 -55.378906 L 16.511719 -55.0625 L 11.851562 -55.296875 L 9.402344 -55.0625 L 3.871094 -55.378906 L 2.371094 -54.585938 L 1.421875 -52.769531 L 1.5 -51.191406 L 1.34375 -47.242188 L 1.5 -44.792969 L 2.210938 -43.371094 L 3.632812 -42.578125 L 5.214844 -42.738281 L 12.71875 -42.578125 L 14.21875 -41.789062 L 15.089844 -40.210938 L 14.929688 -37.683594 L 15.089844 -35.46875 L 15.007812 -33.730469 L 15.089844 -32.152344 L 14.929688 -29.941406 L 15.167969 -18.167969 L 15.007812 -16.589844 L 14.929688 -10.191406 L 15.089844 -8.53125 L 15.007812 -3.949219 L 14.851562 -2.449219 L 15.878906 -0.710938 L 18.167969 0.078125 Z M 20.617188 0.15625 "/></g></g></g><g fill="#2b2f88" fill-opacity="1"><g transform="translate(375.611912, 434.624998)"><g><path d="M 19.90625 1.027344 L 22.121094 1.105469 L 26.148438 0.867188 L 30.96875 -0.632812 L 34.839844 -3.160156 L 38.867188 -8.136719 L 39.5 -9.636719 L 40.210938 -10.980469 L 40.839844 -12.480469 L 41.238281 -14.0625 L 41.472656 -15.640625 L 41.472656 -20.460938 L 40.761719 -24.964844 L 38.707031 -29.308594 L 36.339844 -31.519531 L 33.890625 -33.179688 L 32.308594 -33.890625 L 31.519531 -34.996094 L 31.441406 -36.65625 L 32.230469 -38.234375 L 33.101562 -39.578125 L 34.441406 -42.5 L 36.023438 -45.1875 L 36.8125 -46.84375 L 39.417969 -50.953125 L 40.128906 -52.929688 L 39.734375 -54.667969 L 37.839844 -55.21875 L 33.96875 -55.378906 L 31.679688 -55.21875 L 29.941406 -55.378906 L 28.28125 -55.21875 L 12.640625 -55.21875 L 10.191406 -55.457031 L 8.53125 -55.296875 L 6.003906 -54.507812 L 5.371094 -52.929688 L 5.136719 -48.109375 L 5.371094 -45.027344 L 6.082031 -43.449219 L 7.664062 -42.660156 L 18.960938 -42.660156 L 20.066406 -42.105469 L 20.300781 -40.527344 L 19.828125 -39.105469 L 18.167969 -36.496094 L 15.089844 -29.386719 L 14.140625 -27.648438 L 14.695312 -25.988281 L 16.195312 -25.515625 L 22.277344 -25.121094 L 23.699219 -24.648438 L 26.148438 -23.144531 L 27.097656 -21.882812 L 27.492188 -20.300781 L 27.726562 -18.011719 L 27.492188 -15.640625 L 26.78125 -14.140625 L 25.515625 -12.640625 L 24.171875 -11.851562 L 19.273438 -11.691406 L 16.90625 -13.351562 L 14.929688 -16.195312 L 13.113281 -16.828125 L 5.292969 -16.984375 L 4.027344 -16.195312 L 3.316406 -14.457031 L 3.710938 -13.035156 L 3.949219 -11.375 L 4.976562 -8.453125 L 6.871094 -5.6875 L 8.058594 -4.660156 L 9.003906 -3.476562 L 10.113281 -2.449219 L 12.085938 -1.183594 L 15.800781 0.316406 L 16.90625 0.472656 L 18.328125 0.949219 Z M 19.90625 1.027344 "/></g></g></g><g fill="#2b2f88" fill-opacity="1"><g transform="translate(421.113642, 434.624998)"><g><path d="M 24.332031 0.238281 L 26.699219 0.238281 L 29.148438 -0.078125 L 30.730469 -0.078125 L 33.019531 -0.789062 L 36.261719 -1.34375 L 39.972656 -2.921875 L 45.265625 -6.476562 L 49.136719 -11.453125 L 49.925781 -13.035156 L 50.875 -14.296875 L 52.136719 -17.378906 L 52.535156 -18.878906 L 52.847656 -20.539062 L 53.324219 -21.882812 L 53.558594 -23.460938 L 53.558594 -25.121094 L 53.796875 -27.648438 L 53.71875 -29.941406 L 52.613281 -36.179688 L 51.585938 -39.183594 L 50.953125 -40.683594 L 48.265625 -44.871094 L 44.082031 -49.53125 L 40.050781 -52.21875 L 38.550781 -53.085938 L 36.972656 -53.402344 L 35.628906 -54.035156 L 33.96875 -54.429688 L 29.308594 -55.140625 L 11.296875 -55.296875 L 9.875 -55.0625 L 8.292969 -55.140625 L 6.558594 -54.429688 L 5.847656 -52.769531 L 5.765625 -8.609375 L 5.925781 -7.109375 L 5.925781 -3.082031 L 6.714844 -0.632812 L 8.292969 0.15625 L 9.875 0 L 19.511719 0.15625 L 21.09375 -0.078125 Z M 24.09375 -12.71875 L 22.59375 -12.875 L 20.777344 -13.746094 L 20.144531 -15.246094 L 20.066406 -16.589844 L 20.144531 -19.828125 L 19.828125 -23.699219 L 20.144531 -27.648438 L 19.988281 -38.550781 L 20.144531 -39.894531 L 20.933594 -41.710938 L 23.460938 -42.261719 L 26.78125 -42.34375 L 29.070312 -42.105469 L 32.152344 -41.238281 L 33.574219 -40.527344 L 34.757812 -39.65625 L 35.945312 -38.550781 L 37.128906 -37.128906 L 37.917969 -35.785156 L 38.628906 -34.363281 L 39.894531 -27.414062 L 39.105469 -21.882812 L 37.761719 -18.960938 L 34.839844 -15.640625 L 32.152344 -13.902344 L 29.859375 -13.191406 L 26.464844 -12.796875 Z M 24.09375 -12.71875 "/></g></g></g></svg>