<svg xmlns="http://www.w3.org/2000/svg" xmlns:xlink="http://www.w3.org/1999/xlink" zoomAndPan="magnify" preserveAspectRatio="xMidYMid meet" version="1.0" viewBox="97.67 94.11 180.74 186.75"><defs><clipPath id="9eb880c4ec"><path d="M 236 177 L 278.414062 177 L 278.414062 212 L 236 212 Z M 236 177 " clip-rule="nonzero"/></clipPath><clipPath id="fc9ec2faa9"><path d="M 159 240 L 200 240 L 200 280.859375 L 159 280.859375 Z M 159 240 " clip-rule="nonzero"/></clipPath><clipPath id="9e76a333d1"><path d="M 180 94.109375 L 185 94.109375 L 185 108 L 180 108 Z M 180 94.109375 " clip-rule="nonzero"/></clipPath></defs><path fill="#86ebf9" d="M 241.027344 161.011719 L 247.933594 161.011719 C 246.226562 157.128906 244.1875 153.425781 241.816406 149.90625 C 239.445312 146.386719 236.78125 143.105469 233.820312 140.0625 C 230.859375 137.019531 227.648438 134.261719 224.195312 131.792969 C 220.738281 129.328125 217.089844 127.183594 213.25 125.371094 L 210.742188 131.121094 C 214.015625 132.675781 217.132812 134.496094 220.101562 136.574219 C 223.066406 138.65625 225.839844 140.96875 228.417969 143.511719 C 230.992188 146.054688 233.339844 148.796875 235.457031 151.734375 C 237.574219 154.671875 239.429688 157.765625 241.027344 161.011719 Z M 241.027344 161.011719 " fill-opacity="1" fill-rule="nonzero"/><path fill="#86ebf9" d="M 212.300781 246.398438 C 212.851562 248.457031 213.40625 250.515625 213.957031 252.578125 C 217.515625 250.847656 220.90625 248.835938 224.128906 246.539062 C 227.351562 244.246094 230.359375 241.699219 233.15625 238.902344 C 235.949219 236.105469 238.496094 233.097656 240.785156 229.878906 C 243.078125 226.65625 245.085938 223.269531 246.8125 219.714844 L 239.753906 219.714844 C 238.199219 222.5625 236.445312 225.277344 234.480469 227.859375 C 232.519531 230.445312 230.375 232.867188 228.050781 235.128906 C 225.722656 237.390625 223.238281 239.464844 220.601562 241.355469 C 217.960938 243.242188 215.195312 244.921875 212.300781 246.398438 Z M 212.300781 246.398438 " fill-opacity="1" fill-rule="nonzero"/><path fill="#86ebf9" d="M 126.632812 219.726562 L 119.574219 219.726562 C 121.304688 223.285156 123.316406 226.679688 125.613281 229.902344 C 127.910156 233.125 130.460938 236.136719 133.261719 238.9375 C 136.066406 241.734375 139.082031 244.28125 142.308594 246.574219 C 145.539062 248.871094 148.933594 250.882812 152.5 252.609375 L 154.699219 246.703125 C 151.738281 245.234375 148.90625 243.550781 146.207031 241.652344 C 143.507812 239.75 140.964844 237.65625 138.585938 235.371094 C 136.207031 233.082031 134.015625 230.628906 132.011719 228.003906 C 130.007812 225.382812 128.214844 222.621094 126.632812 219.726562 Z M 126.632812 219.726562 " fill-opacity="1" fill-rule="nonzero"/><path fill="#86ebf9" d="M 153.710938 132.089844 L 153.710938 125.117188 C 149.730469 126.953125 145.953125 129.140625 142.375 131.675781 C 138.800781 134.207031 135.488281 137.050781 132.441406 140.195312 C 129.394531 143.34375 126.660156 146.742188 124.242188 150.394531 C 121.828125 154.046875 119.765625 157.890625 118.0625 161.921875 L 124.234375 163.472656 C 125.710938 160.121094 127.457031 156.914062 129.480469 153.855469 C 131.503906 150.800781 133.769531 147.933594 136.277344 145.261719 C 138.789062 142.589844 141.507812 140.148438 144.433594 137.9375 C 147.359375 135.726562 150.453125 133.777344 153.710938 132.089844 Z M 153.710938 132.089844 " fill-opacity="1" fill-rule="nonzero"/><path fill="#86ebf9" d="M 146.207031 123.804688 L 160.535156 124.300781 L 155.003906 137.917969 Z M 146.207031 123.804688 " fill-opacity="1" fill-rule="nonzero"/><path fill="#86ebf9" d="M 250.667969 155.605469 L 247.324219 169.523438 L 235.058594 161.402344 Z M 250.667969 155.605469 " fill-opacity="1" fill-rule="nonzero"/><path fill="#86ebf9" d="M 218.1875 256.496094 L 204.5625 252.027344 L 213.683594 240.488281 Z M 218.1875 256.496094 " fill-opacity="1" fill-rule="nonzero"/><path fill="#86ebf9" d="M 117.191406 225.808594 L 121.542969 212.171875 L 133.183594 221.167969 Z M 117.191406 225.808594 " fill-opacity="1" fill-rule="nonzero"/><path fill="#40c2d6" d="M 231.203125 189.148438 C 231.203125 190.71875 231.128906 192.285156 230.972656 193.847656 C 230.820312 195.40625 230.589844 196.957031 230.28125 198.496094 C 229.976562 200.035156 229.59375 201.558594 229.136719 203.058594 C 228.679688 204.5625 228.152344 206.035156 227.550781 207.488281 C 226.949219 208.9375 226.277344 210.355469 225.535156 211.738281 C 224.792969 213.121094 223.988281 214.464844 223.113281 215.769531 C 222.238281 217.074219 221.304688 218.335938 220.304688 219.546875 C 219.308594 220.761719 218.253906 221.921875 217.140625 223.03125 C 216.03125 224.140625 214.867188 225.195312 213.652344 226.191406 C 212.4375 227.1875 211.175781 228.121094 209.867188 228.992188 C 208.558594 229.863281 207.210938 230.667969 205.824219 231.410156 C 204.4375 232.148438 203.019531 232.820312 201.566406 233.417969 C 200.113281 234.019531 198.636719 234.546875 197.128906 235.003906 C 195.625 235.460938 194.101562 235.839844 192.558594 236.144531 C 191.019531 236.453125 189.464844 236.683594 187.898438 236.835938 C 186.335938 236.988281 184.765625 237.066406 183.195312 237.066406 C 181.621094 237.066406 180.054688 236.988281 178.488281 236.835938 C 176.921875 236.683594 175.371094 236.453125 173.828125 236.144531 C 172.285156 235.839844 170.761719 235.460938 169.257812 235.003906 C 167.753906 234.546875 166.273438 234.019531 164.820312 233.417969 C 163.367188 232.820312 161.949219 232.148438 160.5625 231.410156 C 159.175781 230.667969 157.828125 229.863281 156.519531 228.992188 C 155.214844 228.121094 153.953125 227.1875 152.734375 226.191406 C 151.519531 225.195312 150.355469 224.140625 149.246094 223.03125 C 148.132812 221.921875 147.078125 220.761719 146.082031 219.546875 C 145.082031 218.335938 144.148438 217.074219 143.273438 215.769531 C 142.402344 214.464844 141.59375 213.121094 140.851562 211.738281 C 140.109375 210.355469 139.441406 208.9375 138.835938 207.488281 C 138.234375 206.035156 137.707031 204.5625 137.25 203.058594 C 136.792969 201.558594 136.414062 200.035156 136.105469 198.496094 C 135.800781 196.957031 135.570312 195.40625 135.414062 193.847656 C 135.261719 192.285156 135.183594 190.71875 135.183594 189.148438 C 135.183594 187.578125 135.261719 186.015625 135.414062 184.453125 C 135.570312 182.890625 135.800781 181.339844 136.105469 179.800781 C 136.414062 178.261719 136.792969 176.742188 137.25 175.238281 C 137.707031 173.738281 138.234375 172.261719 138.835938 170.8125 C 139.441406 169.363281 140.109375 167.945312 140.851562 166.5625 C 141.59375 165.175781 142.402344 163.832031 143.273438 162.527344 C 144.148438 161.222656 145.082031 159.964844 146.082031 158.75 C 147.078125 157.539062 148.132812 156.375 149.246094 155.265625 C 150.355469 154.15625 151.519531 153.105469 152.734375 152.109375 C 153.953125 151.113281 155.214844 150.179688 156.519531 149.308594 C 157.828125 148.433594 159.175781 147.628906 160.5625 146.890625 C 161.949219 146.148438 163.367188 145.480469 164.820312 144.878906 C 166.273438 144.277344 167.753906 143.75 169.257812 143.292969 C 170.761719 142.839844 172.285156 142.457031 173.828125 142.152344 C 175.371094 141.847656 176.921875 141.617188 178.488281 141.460938 C 180.054688 141.308594 181.621094 141.230469 183.195312 141.230469 C 184.765625 141.230469 186.335938 141.308594 187.898438 141.460938 C 189.464844 141.617188 191.019531 141.847656 192.558594 142.152344 C 194.101562 142.457031 195.625 142.839844 197.128906 143.292969 C 198.636719 143.75 200.113281 144.277344 201.566406 144.878906 C 203.019531 145.480469 204.4375 146.148438 205.824219 146.890625 C 207.210938 147.628906 208.558594 148.433594 209.867188 149.308594 C 211.175781 150.179688 212.4375 151.113281 213.652344 152.109375 C 214.867188 153.105469 216.03125 154.15625 217.140625 155.265625 C 218.253906 156.375 219.308594 157.539062 220.304688 158.75 C 221.304688 159.964844 222.238281 161.222656 223.113281 162.527344 C 223.988281 163.832031 224.792969 165.175781 225.535156 166.5625 C 226.277344 167.945312 226.949219 169.363281 227.550781 170.8125 C 228.152344 172.261719 228.679688 173.738281 229.136719 175.238281 C 229.59375 176.742188 229.976562 178.261719 230.28125 179.800781 C 230.589844 181.339844 230.820312 182.890625 230.972656 184.453125 C 231.128906 186.015625 231.203125 187.578125 231.203125 189.148438 Z M 231.203125 189.148438 " fill-opacity="1" fill-rule="nonzero"/><path fill="#86ebf9" d="M 222.566406 189.148438 C 222.566406 190.4375 222.503906 191.71875 222.378906 193 C 222.25 194.28125 222.0625 195.554688 221.8125 196.816406 C 221.558594 198.078125 221.246094 199.324219 220.871094 200.558594 C 220.496094 201.789062 220.0625 203 219.570312 204.1875 C 219.078125 205.378906 218.527344 206.539062 217.917969 207.675781 C 217.308594 208.808594 216.648438 209.910156 215.933594 210.980469 C 215.214844 212.050781 214.449219 213.085938 213.628906 214.078125 C 212.8125 215.074219 211.945312 216.027344 211.035156 216.9375 C 210.125 217.847656 209.167969 218.710938 208.171875 219.527344 C 207.175781 220.34375 206.140625 221.109375 205.070312 221.824219 C 203.996094 222.539062 202.890625 223.199219 201.753906 223.808594 C 200.617188 224.414062 199.453125 224.964844 198.261719 225.457031 C 197.070312 225.949219 195.859375 226.382812 194.625 226.753906 C 193.390625 227.128906 192.140625 227.441406 190.875 227.691406 C 189.609375 227.941406 188.335938 228.132812 187.054688 228.257812 C 185.769531 228.382812 184.484375 228.445312 183.195312 228.445312 C 181.90625 228.445312 180.617188 228.382812 179.335938 228.257812 C 178.050781 228.132812 176.777344 227.941406 175.511719 227.691406 C 174.246094 227.441406 173 227.128906 171.765625 226.753906 C 170.53125 226.382812 169.316406 225.949219 168.125 225.457031 C 166.933594 224.964844 165.769531 224.414062 164.632812 223.808594 C 163.496094 223.199219 162.390625 222.539062 161.320312 221.824219 C 160.246094 221.109375 159.210938 220.34375 158.214844 219.527344 C 157.21875 218.710938 156.265625 217.847656 155.351562 216.9375 C 154.441406 216.027344 153.574219 215.074219 152.757812 214.078125 C 151.941406 213.085938 151.171875 212.050781 150.457031 210.980469 C 149.738281 209.910156 149.078125 208.808594 148.46875 207.675781 C 147.863281 206.539062 147.3125 205.378906 146.816406 204.1875 C 146.324219 203 145.890625 201.789062 145.515625 200.558594 C 145.140625 199.324219 144.828125 198.078125 144.578125 196.816406 C 144.324219 195.554688 144.136719 194.28125 144.007812 193 C 143.882812 191.71875 143.820312 190.4375 143.820312 189.148438 C 143.820312 187.863281 143.882812 186.578125 144.007812 185.296875 C 144.136719 184.015625 144.324219 182.746094 144.578125 181.484375 C 144.828125 180.21875 145.140625 178.972656 145.515625 177.742188 C 145.890625 176.511719 146.324219 175.300781 146.816406 174.109375 C 147.3125 172.921875 147.863281 171.757812 148.46875 170.625 C 149.078125 169.488281 149.738281 168.386719 150.457031 167.316406 C 151.171875 166.246094 151.941406 165.214844 152.757812 164.21875 C 153.574219 163.222656 154.441406 162.273438 155.351562 161.363281 C 156.265625 160.453125 157.21875 159.589844 158.214844 158.773438 C 159.210938 157.957031 160.246094 157.191406 161.320312 156.472656 C 162.390625 155.757812 163.496094 155.097656 164.632812 154.492188 C 165.769531 153.886719 166.933594 153.335938 168.125 152.84375 C 169.316406 152.351562 170.53125 151.917969 171.765625 151.542969 C 173 151.171875 174.246094 150.859375 175.511719 150.605469 C 176.777344 150.355469 178.050781 150.167969 179.335938 150.039062 C 180.617188 149.914062 181.90625 149.851562 183.195312 149.851562 C 184.484375 149.851562 185.769531 149.914062 187.054688 150.039062 C 188.335938 150.167969 189.609375 150.355469 190.875 150.605469 C 192.140625 150.859375 193.390625 151.171875 194.625 151.542969 C 195.859375 151.917969 197.070312 152.351562 198.261719 152.84375 C 199.453125 153.335938 200.617188 153.886719 201.753906 154.492188 C 202.890625 155.097656 203.996094 155.757812 205.070312 156.472656 C 206.140625 157.191406 207.175781 157.957031 208.171875 158.773438 C 209.167969 159.589844 210.125 160.453125 211.035156 161.363281 C 211.945312 162.273438 212.8125 163.222656 213.628906 164.21875 C 214.449219 165.214844 215.214844 166.246094 215.933594 167.316406 C 216.648438 168.386719 217.308594 169.488281 217.917969 170.625 C 218.527344 171.757812 219.078125 172.921875 219.570312 174.109375 C 220.0625 175.300781 220.496094 176.511719 220.871094 177.742188 C 221.246094 178.972656 221.558594 180.21875 221.8125 181.484375 C 222.0625 182.746094 222.25 184.015625 222.378906 185.296875 C 222.503906 186.578125 222.566406 187.863281 222.566406 189.148438 Z M 222.566406 189.148438 " fill-opacity="1" fill-rule="nonzero"/><path fill="#2d1929" d="M 183.148438 149.894531 L 183.238281 149.894531 C 183.402344 149.894531 183.5625 149.925781 183.714844 149.992188 C 183.867188 150.054688 184.003906 150.144531 184.121094 150.261719 C 184.238281 150.378906 184.328125 150.511719 184.390625 150.664062 C 184.457031 150.816406 184.488281 150.976562 184.488281 151.140625 L 184.488281 157.324219 C 184.488281 157.492188 184.457031 157.648438 184.390625 157.800781 C 184.328125 157.957031 184.238281 158.089844 184.121094 158.207031 C 184.003906 158.324219 183.867188 158.414062 183.714844 158.476562 C 183.5625 158.539062 183.402344 158.570312 183.238281 158.570312 L 183.148438 158.570312 C 182.984375 158.570312 182.824219 158.539062 182.671875 158.476562 C 182.519531 158.414062 182.382812 158.324219 182.265625 158.207031 C 182.148438 158.089844 182.058594 157.957031 181.996094 157.800781 C 181.933594 157.648438 181.902344 157.492188 181.902344 157.324219 L 181.902344 151.140625 C 181.902344 150.976562 181.933594 150.816406 181.996094 150.664062 C 182.058594 150.511719 182.148438 150.378906 182.265625 150.261719 C 182.382812 150.144531 182.519531 150.054688 182.671875 149.992188 C 182.824219 149.925781 182.984375 149.894531 183.148438 149.894531 Z M 183.148438 149.894531 " fill-opacity="1" fill-rule="nonzero"/><path fill="#2d1929" d="M 183.148438 219.726562 L 183.238281 219.726562 C 183.402344 219.726562 183.5625 219.757812 183.714844 219.820312 C 183.867188 219.882812 184.003906 219.976562 184.121094 220.089844 C 184.238281 220.207031 184.328125 220.34375 184.390625 220.496094 C 184.457031 220.648438 184.488281 220.808594 184.488281 220.972656 L 184.488281 227.15625 C 184.488281 227.320312 184.457031 227.480469 184.390625 227.632812 C 184.328125 227.785156 184.238281 227.921875 184.121094 228.039062 C 184.003906 228.15625 183.867188 228.246094 183.714844 228.308594 C 183.5625 228.371094 183.402344 228.402344 183.238281 228.402344 L 183.148438 228.402344 C 182.984375 228.402344 182.824219 228.371094 182.671875 228.308594 C 182.519531 228.246094 182.382812 228.15625 182.265625 228.039062 C 182.148438 227.921875 182.058594 227.785156 181.996094 227.632812 C 181.933594 227.480469 181.902344 227.320312 181.902344 227.15625 L 181.902344 220.972656 C 181.902344 220.808594 181.933594 220.648438 181.996094 220.496094 C 182.058594 220.34375 182.148438 220.207031 182.265625 220.089844 C 182.382812 219.976562 182.519531 219.882812 182.671875 219.820312 C 182.824219 219.757812 182.984375 219.726562 183.148438 219.726562 Z M 183.148438 219.726562 " fill-opacity="1" fill-rule="nonzero"/><path fill="#2d1929" d="M 222.527344 189.105469 L 222.527344 189.195312 C 222.527344 189.359375 222.496094 189.519531 222.433594 189.671875 C 222.367188 189.824219 222.277344 189.957031 222.160156 190.074219 C 222.042969 190.191406 221.910156 190.28125 221.757812 190.34375 C 221.605469 190.40625 221.445312 190.441406 221.277344 190.441406 L 215.082031 190.441406 C 214.917969 190.441406 214.757812 190.40625 214.605469 190.34375 C 214.453125 190.28125 214.316406 190.191406 214.199219 190.074219 C 214.082031 189.957031 213.992188 189.824219 213.929688 189.671875 C 213.867188 189.519531 213.835938 189.359375 213.835938 189.195312 L 213.835938 189.105469 C 213.835938 188.941406 213.867188 188.78125 213.929688 188.628906 C 213.992188 188.476562 214.082031 188.339844 214.199219 188.222656 C 214.316406 188.105469 214.453125 188.015625 214.605469 187.953125 C 214.757812 187.890625 214.917969 187.859375 215.082031 187.859375 L 221.277344 187.859375 C 221.445312 187.859375 221.605469 187.890625 221.757812 187.953125 C 221.910156 188.015625 222.042969 188.105469 222.160156 188.222656 C 222.277344 188.339844 222.367188 188.476562 222.433594 188.628906 C 222.496094 188.78125 222.527344 188.941406 222.527344 189.105469 Z M 222.527344 189.105469 " fill-opacity="1" fill-rule="nonzero"/><path fill="#2d1929" d="M 152.558594 189.105469 L 152.558594 189.195312 C 152.558594 189.359375 152.527344 189.519531 152.460938 189.671875 C 152.398438 189.824219 152.308594 189.957031 152.191406 190.074219 C 152.074219 190.191406 151.941406 190.28125 151.785156 190.34375 C 151.632812 190.40625 151.472656 190.441406 151.308594 190.441406 L 145.113281 190.441406 C 144.949219 190.441406 144.789062 190.40625 144.636719 190.34375 C 144.480469 190.28125 144.347656 190.191406 144.230469 190.074219 C 144.113281 189.957031 144.023438 189.824219 143.960938 189.671875 C 143.894531 189.519531 143.863281 189.359375 143.863281 189.195312 L 143.863281 189.105469 C 143.863281 188.941406 143.894531 188.78125 143.960938 188.628906 C 144.023438 188.476562 144.113281 188.339844 144.230469 188.222656 C 144.347656 188.105469 144.480469 188.015625 144.636719 187.953125 C 144.789062 187.890625 144.949219 187.859375 145.113281 187.859375 L 151.308594 187.859375 C 151.472656 187.859375 151.632812 187.890625 151.785156 187.953125 C 151.941406 188.015625 152.074219 188.105469 152.191406 188.222656 C 152.308594 188.339844 152.398438 188.476562 152.460938 188.628906 C 152.527344 188.78125 152.558594 188.941406 152.558594 189.105469 Z M 152.558594 189.105469 " fill-opacity="1" fill-rule="nonzero"/><path fill="#2d1929" d="M 211.039062 216.875 L 210.976562 216.9375 C 210.859375 217.054688 210.722656 217.144531 210.570312 217.207031 C 210.417969 217.269531 210.257812 217.300781 210.09375 217.300781 C 209.925781 217.300781 209.769531 217.269531 209.613281 217.207031 C 209.460938 217.144531 209.328125 217.054688 209.210938 216.9375 L 204.828125 212.5625 C 204.710938 212.445312 204.621094 212.3125 204.558594 212.160156 C 204.496094 212.007812 204.464844 211.847656 204.464844 211.683594 C 204.464844 211.515625 204.496094 211.359375 204.558594 211.207031 C 204.621094 211.054688 204.710938 210.917969 204.828125 210.800781 L 204.890625 210.738281 C 205.007812 210.621094 205.144531 210.53125 205.296875 210.46875 C 205.449219 210.40625 205.609375 210.375 205.773438 210.375 C 205.941406 210.375 206.097656 210.40625 206.253906 210.46875 C 206.40625 210.53125 206.539062 210.621094 206.65625 210.738281 L 211.039062 215.113281 C 211.15625 215.226562 211.246094 215.363281 211.308594 215.515625 C 211.371094 215.667969 211.402344 215.828125 211.402344 215.992188 C 211.402344 216.15625 211.371094 216.316406 211.308594 216.46875 C 211.246094 216.621094 211.15625 216.757812 211.039062 216.875 Z M 211.039062 216.875 " fill-opacity="1" fill-rule="nonzero"/><path fill="#2d1929" d="M 161.558594 167.496094 L 161.496094 167.558594 C 161.382812 167.675781 161.246094 167.765625 161.09375 167.828125 C 160.941406 167.894531 160.78125 167.925781 160.613281 167.925781 C 160.449219 167.925781 160.289062 167.894531 160.136719 167.828125 C 159.984375 167.765625 159.847656 167.675781 159.730469 167.558594 L 155.351562 163.1875 C 155.234375 163.070312 155.144531 162.9375 155.082031 162.78125 C 155.015625 162.628906 154.984375 162.472656 154.984375 162.304688 C 154.984375 162.140625 155.015625 161.980469 155.082031 161.828125 C 155.144531 161.675781 155.234375 161.542969 155.351562 161.425781 L 155.414062 161.363281 C 155.53125 161.246094 155.664062 161.15625 155.820312 161.09375 C 155.972656 161.027344 156.132812 160.996094 156.296875 160.996094 C 156.460938 160.996094 156.621094 161.027344 156.773438 161.09375 C 156.925781 161.15625 157.0625 161.246094 157.179688 161.363281 L 161.558594 165.734375 C 161.675781 165.851562 161.769531 165.988281 161.832031 166.140625 C 161.894531 166.292969 161.925781 166.449219 161.925781 166.617188 C 161.925781 166.78125 161.894531 166.941406 161.832031 167.09375 C 161.769531 167.246094 161.675781 167.378906 161.558594 167.496094 Z M 161.558594 167.496094 " fill-opacity="1" fill-rule="nonzero"/><path fill="#2d1929" d="M 210.96875 161.363281 L 211.03125 161.425781 C 211.148438 161.539062 211.238281 161.675781 211.300781 161.828125 C 211.367188 161.980469 211.398438 162.140625 211.398438 162.304688 C 211.398438 162.46875 211.367188 162.628906 211.300781 162.78125 C 211.238281 162.933594 211.148438 163.070312 211.03125 163.1875 L 206.652344 167.558594 C 206.535156 167.675781 206.398438 167.765625 206.246094 167.828125 C 206.09375 167.890625 205.933594 167.925781 205.769531 167.925781 C 205.601562 167.925781 205.441406 167.890625 205.289062 167.828125 C 205.136719 167.765625 205.003906 167.675781 204.886719 167.558594 L 204.824219 167.496094 C 204.707031 167.378906 204.613281 167.246094 204.550781 167.09375 C 204.488281 166.941406 204.457031 166.78125 204.457031 166.617188 C 204.457031 166.449219 204.488281 166.292969 204.550781 166.136719 C 204.613281 165.984375 204.707031 165.851562 204.824219 165.734375 L 209.203125 161.363281 C 209.320312 161.246094 209.457031 161.15625 209.609375 161.089844 C 209.761719 161.027344 209.921875 160.996094 210.085938 160.996094 C 210.253906 160.996094 210.410156 161.027344 210.5625 161.089844 C 210.71875 161.15625 210.851562 161.246094 210.96875 161.363281 Z M 210.96875 161.363281 " fill-opacity="1" fill-rule="nonzero"/><path fill="#2d1929" d="M 161.5 210.738281 L 161.5625 210.800781 C 161.679688 210.917969 161.769531 211.050781 161.832031 211.203125 C 161.894531 211.359375 161.925781 211.515625 161.925781 211.683594 C 161.925781 211.847656 161.894531 212.007812 161.832031 212.160156 C 161.769531 212.3125 161.679688 212.445312 161.5625 212.5625 L 157.179688 216.933594 C 157.0625 217.050781 156.929688 217.140625 156.777344 217.207031 C 156.621094 217.269531 156.464844 217.300781 156.296875 217.300781 C 156.132812 217.300781 155.972656 217.269531 155.820312 217.207031 C 155.667969 217.140625 155.53125 217.050781 155.414062 216.933594 L 155.351562 216.875 C 155.234375 216.757812 155.144531 216.621094 155.082031 216.46875 C 155.019531 216.316406 154.988281 216.15625 154.988281 215.992188 C 154.988281 215.828125 155.019531 215.667969 155.082031 215.515625 C 155.144531 215.363281 155.234375 215.226562 155.351562 215.109375 L 159.734375 210.738281 C 159.851562 210.621094 159.984375 210.53125 160.136719 210.46875 C 160.292969 210.40625 160.449219 210.375 160.617188 210.375 C 160.78125 210.375 160.941406 210.40625 161.09375 210.46875 C 161.246094 210.53125 161.382812 210.621094 161.5 210.738281 Z M 161.5 210.738281 " fill-opacity="1" fill-rule="nonzero"/><path fill="#e73f46" d="M 183.148438 165.597656 L 183.238281 165.597656 C 183.402344 165.597656 183.5625 165.628906 183.714844 165.691406 C 183.867188 165.753906 184.003906 165.84375 184.121094 165.960938 C 184.238281 166.078125 184.328125 166.214844 184.390625 166.367188 C 184.457031 166.519531 184.488281 166.679688 184.488281 166.84375 L 184.488281 187.902344 C 184.488281 188.066406 184.457031 188.226562 184.390625 188.378906 C 184.328125 188.53125 184.238281 188.667969 184.121094 188.785156 C 184.003906 188.902344 183.867188 188.992188 183.714844 189.054688 C 183.5625 189.117188 183.402344 189.148438 183.238281 189.148438 L 183.148438 189.148438 C 182.984375 189.148438 182.824219 189.117188 182.671875 189.054688 C 182.519531 188.992188 182.382812 188.902344 182.265625 188.785156 C 182.148438 188.667969 182.058594 188.53125 181.996094 188.378906 C 181.933594 188.226562 181.902344 188.066406 181.902344 187.902344 L 181.902344 166.84375 C 181.902344 166.679688 181.933594 166.519531 181.996094 166.367188 C 182.058594 166.214844 182.148438 166.078125 182.265625 165.960938 C 182.382812 165.84375 182.519531 165.753906 182.671875 165.691406 C 182.824219 165.628906 182.984375 165.597656 183.148438 165.597656 Z M 183.148438 165.597656 " fill-opacity="1" fill-rule="nonzero"/><path fill="#e73f46" d="M 200.894531 189.105469 L 200.894531 189.195312 C 200.894531 189.359375 200.863281 189.519531 200.796875 189.671875 C 200.734375 189.824219 200.644531 189.957031 200.527344 190.074219 C 200.410156 190.191406 200.273438 190.28125 200.121094 190.34375 C 199.96875 190.40625 199.808594 190.441406 199.644531 190.441406 L 183.148438 190.441406 C 182.984375 190.441406 182.824219 190.40625 182.671875 190.34375 C 182.519531 190.28125 182.382812 190.191406 182.265625 190.074219 C 182.148438 189.957031 182.058594 189.824219 181.996094 189.671875 C 181.933594 189.519531 181.902344 189.359375 181.902344 189.195312 L 181.902344 189.105469 C 181.902344 188.941406 181.933594 188.78125 181.996094 188.628906 C 182.058594 188.476562 182.148438 188.339844 182.265625 188.222656 C 182.382812 188.105469 182.519531 188.015625 182.671875 187.953125 C 182.824219 187.890625 182.984375 187.859375 183.148438 187.859375 L 199.644531 187.859375 C 199.808594 187.859375 199.96875 187.890625 200.121094 187.953125 C 200.273438 188.015625 200.410156 188.105469 200.527344 188.222656 C 200.644531 188.339844 200.734375 188.476562 200.796875 188.628906 C 200.863281 188.78125 200.894531 188.941406 200.894531 189.105469 Z M 200.894531 189.105469 " fill-opacity="1" fill-rule="nonzero"/><path fill="#2d1929" d="M 186.945312 189.148438 C 186.945312 189.644531 186.847656 190.125 186.660156 190.582031 C 186.46875 191.039062 186.199219 191.445312 185.847656 191.796875 C 185.492188 192.148438 185.089844 192.417969 184.628906 192.605469 C 184.167969 192.796875 183.691406 192.890625 183.195312 192.890625 C 182.695312 192.890625 182.21875 192.796875 181.757812 192.605469 C 181.300781 192.417969 180.894531 192.148438 180.542969 191.796875 C 180.191406 191.445312 179.917969 191.039062 179.730469 190.582031 C 179.539062 190.125 179.445312 189.644531 179.445312 189.148438 C 179.445312 188.652344 179.539062 188.175781 179.730469 187.71875 C 179.917969 187.257812 180.191406 186.855469 180.542969 186.503906 C 180.894531 186.152344 181.300781 185.882812 181.757812 185.691406 C 182.21875 185.5 182.695312 185.40625 183.195312 185.40625 C 183.691406 185.40625 184.167969 185.5 184.628906 185.691406 C 185.089844 185.882812 185.492188 186.152344 185.847656 186.503906 C 186.199219 186.855469 186.46875 187.257812 186.660156 187.71875 C 186.847656 188.175781 186.945312 188.652344 186.945312 189.148438 Z M 186.945312 189.148438 " fill-opacity="1" fill-rule="nonzero"/><path fill="#e73f46" d="M 262.632812 179.640625 L 252.511719 179.640625 C 252.246094 179.640625 251.988281 179.589844 251.742188 179.488281 C 251.496094 179.382812 251.277344 179.238281 251.089844 179.050781 C 250.898438 178.863281 250.75 178.648438 250.648438 178.402344 C 250.542969 178.15625 250.488281 177.902344 250.484375 177.636719 L 250.484375 172.511719 C 250.488281 172.242188 250.542969 171.988281 250.644531 171.742188 C 250.75 171.496094 250.898438 171.28125 251.085938 171.09375 C 251.277344 170.90625 251.496094 170.761719 251.742188 170.660156 C 251.988281 170.558594 252.246094 170.507812 252.511719 170.507812 L 262.632812 170.507812 C 262.898438 170.507812 263.15625 170.558594 263.398438 170.660156 C 263.644531 170.761719 263.863281 170.90625 264.050781 171.09375 C 264.238281 171.28125 264.386719 171.496094 264.488281 171.742188 C 264.589844 171.988281 264.640625 172.246094 264.640625 172.511719 L 264.640625 177.617188 C 264.640625 177.882812 264.59375 178.140625 264.492188 178.390625 C 264.390625 178.636719 264.246094 178.855469 264.058594 179.046875 C 263.871094 179.234375 263.652344 179.382812 263.40625 179.484375 C 263.15625 179.589844 262.898438 179.640625 262.632812 179.640625 Z M 252.511719 172.09375 C 252.398438 172.085938 252.300781 172.125 252.214844 172.203125 C 252.132812 172.28125 252.089844 172.378906 252.09375 172.492188 L 252.09375 177.601562 C 252.089844 177.714844 252.132812 177.8125 252.214844 177.890625 C 252.300781 177.96875 252.398438 178.007812 252.511719 178 L 262.632812 178 C 262.742188 178 262.835938 177.960938 262.914062 177.882812 C 262.996094 177.804688 263.035156 177.710938 263.035156 177.601562 L 263.035156 172.511719 C 263.035156 172.398438 262.996094 172.304688 262.914062 172.226562 C 262.835938 172.148438 262.742188 172.109375 262.632812 172.109375 Z M 252.511719 172.09375 " fill-opacity="1" fill-rule="nonzero"/><g clip-path="url(#9eb880c4ec)"><path fill="#efbd42" d="M 239.441406 177.039062 L 275.703125 177.039062 C 276.058594 177.039062 276.398438 177.105469 276.726562 177.242188 C 277.054688 177.378906 277.34375 177.570312 277.59375 177.820312 C 277.847656 178.070312 278.039062 178.359375 278.175781 178.6875 C 278.3125 179.015625 278.378906 179.355469 278.378906 179.710938 L 278.378906 209.183594 C 278.378906 209.539062 278.3125 209.878906 278.175781 210.207031 C 278.039062 210.535156 277.847656 210.824219 277.59375 211.074219 C 277.34375 211.324219 277.054688 211.515625 276.726562 211.652344 C 276.398438 211.789062 276.058594 211.855469 275.703125 211.855469 L 239.441406 211.855469 C 239.085938 211.855469 238.742188 211.789062 238.414062 211.652344 C 238.085938 211.515625 237.796875 211.324219 237.546875 211.074219 C 237.292969 210.824219 237.101562 210.535156 236.964844 210.207031 C 236.828125 209.878906 236.761719 209.539062 236.761719 209.183594 L 236.761719 179.710938 C 236.761719 179.355469 236.828125 179.015625 236.964844 178.6875 C 237.101562 178.359375 237.292969 178.070312 237.546875 177.820312 C 237.796875 177.570312 238.085938 177.378906 238.414062 177.242188 C 238.742188 177.105469 239.085938 177.039062 239.441406 177.039062 Z M 239.441406 177.039062 " fill-opacity="1" fill-rule="nonzero"/></g><path fill="#e73f46" d="M 272.386719 191.894531 L 242.757812 191.894531 C 240.707031 191.894531 238.980469 190.691406 238.742188 189.089844 L 237.210938 178.871094 C 236.925781 176.980469 238.816406 175.3125 241.226562 175.3125 L 273.917969 175.3125 C 276.328125 175.3125 278.21875 176.980469 277.933594 178.871094 L 276.402344 189.089844 C 276.160156 190.691406 274.4375 191.894531 272.386719 191.894531 Z M 272.386719 191.894531 " fill-opacity="1" fill-rule="nonzero"/><path fill="#287eef" d="M 260.320312 186.355469 C 260.320312 186.71875 260.25 187.070312 260.109375 187.40625 C 259.972656 187.742188 259.773438 188.039062 259.515625 188.292969 C 259.257812 188.550781 258.960938 188.75 258.625 188.886719 C 258.289062 189.027344 257.9375 189.097656 257.574219 189.097656 C 257.207031 189.097656 256.859375 189.027344 256.523438 188.886719 C 256.183594 188.75 255.886719 188.550781 255.628906 188.292969 C 255.375 188.039062 255.175781 187.742188 255.035156 187.40625 C 254.894531 187.070312 254.828125 186.71875 254.828125 186.355469 C 254.828125 185.992188 254.894531 185.644531 255.035156 185.308594 C 255.175781 184.972656 255.375 184.675781 255.628906 184.417969 C 255.886719 184.160156 256.183594 183.960938 256.523438 183.824219 C 256.859375 183.683594 257.207031 183.613281 257.574219 183.613281 C 257.9375 183.613281 258.289062 183.683594 258.625 183.824219 C 258.960938 183.960938 259.257812 184.160156 259.515625 184.417969 C 259.773438 184.675781 259.972656 184.972656 260.109375 185.308594 C 260.25 185.644531 260.320312 185.992188 260.320312 186.355469 Z M 260.320312 186.355469 " fill-opacity="1" fill-rule="nonzero"/><g clip-path="url(#fc9ec2faa9)"><path fill="#287eef" d="M 199.3125 260.835938 C 199.3125 261.492188 199.277344 262.144531 199.214844 262.796875 C 199.148438 263.449219 199.054688 264.097656 198.925781 264.738281 C 198.796875 265.382812 198.636719 266.015625 198.449219 266.644531 C 198.257812 267.269531 198.035156 267.886719 197.785156 268.492188 C 197.535156 269.097656 197.253906 269.691406 196.945312 270.269531 C 196.632812 270.847656 196.296875 271.40625 195.933594 271.953125 C 195.566406 272.496094 195.175781 273.023438 194.761719 273.53125 C 194.34375 274.035156 193.902344 274.519531 193.4375 274.984375 C 192.976562 275.449219 192.488281 275.886719 191.980469 276.304688 C 191.472656 276.71875 190.945312 277.109375 190.402344 277.472656 C 189.855469 277.835938 189.292969 278.171875 188.714844 278.484375 C 188.132812 278.792969 187.542969 279.070312 186.933594 279.320312 C 186.328125 279.574219 185.710938 279.792969 185.082031 279.984375 C 184.453125 280.171875 183.816406 280.332031 183.175781 280.460938 C 182.53125 280.589844 181.882812 280.683594 181.226562 280.75 C 180.574219 280.8125 179.917969 280.84375 179.261719 280.84375 C 178.605469 280.84375 177.953125 280.8125 177.296875 280.75 C 176.644531 280.683594 175.996094 280.589844 175.351562 280.460938 C 174.707031 280.332031 174.070312 280.171875 173.441406 279.984375 C 172.816406 279.792969 172.199219 279.574219 171.589844 279.320312 C 170.984375 279.070312 170.390625 278.792969 169.8125 278.484375 C 169.234375 278.171875 168.671875 277.835938 168.125 277.472656 C 167.578125 277.109375 167.050781 276.71875 166.542969 276.304688 C 166.035156 275.886719 165.550781 275.449219 165.085938 274.984375 C 164.621094 274.519531 164.183594 274.035156 163.765625 273.53125 C 163.347656 273.023438 162.957031 272.496094 162.59375 271.953125 C 162.230469 271.40625 161.890625 270.847656 161.582031 270.269531 C 161.273438 269.691406 160.992188 269.097656 160.742188 268.492188 C 160.488281 267.886719 160.269531 267.269531 160.078125 266.644531 C 159.886719 266.015625 159.726562 265.382812 159.601562 264.738281 C 159.472656 264.097656 159.375 263.449219 159.3125 262.796875 C 159.246094 262.144531 159.214844 261.492188 159.214844 260.835938 C 159.214844 260.179688 159.246094 259.527344 159.3125 258.875 C 159.375 258.222656 159.472656 257.574219 159.601562 256.933594 C 159.726562 256.289062 159.886719 255.65625 160.078125 255.027344 C 160.269531 254.398438 160.488281 253.785156 160.742188 253.179688 C 160.992188 252.574219 161.273438 251.980469 161.582031 251.402344 C 161.890625 250.824219 162.230469 250.265625 162.59375 249.71875 C 162.957031 249.175781 163.347656 248.648438 163.765625 248.140625 C 164.183594 247.636719 164.621094 247.148438 165.085938 246.6875 C 165.550781 246.222656 166.035156 245.785156 166.542969 245.367188 C 167.050781 244.953125 167.578125 244.5625 168.125 244.199219 C 168.671875 243.835938 169.234375 243.496094 169.8125 243.1875 C 170.390625 242.878906 170.984375 242.601562 171.589844 242.347656 C 172.199219 242.097656 172.816406 241.878906 173.441406 241.6875 C 174.070312 241.496094 174.707031 241.339844 175.351562 241.210938 C 175.996094 241.082031 176.644531 240.988281 177.296875 240.921875 C 177.953125 240.859375 178.605469 240.828125 179.261719 240.828125 C 179.917969 240.828125 180.574219 240.859375 181.226562 240.921875 C 181.882812 240.988281 182.53125 241.082031 183.175781 241.210938 C 183.816406 241.339844 184.453125 241.496094 185.082031 241.6875 C 185.710938 241.878906 186.328125 242.097656 186.933594 242.347656 C 187.542969 242.601562 188.132812 242.878906 188.714844 243.1875 C 189.292969 243.496094 189.855469 243.835938 190.402344 244.199219 C 190.945312 244.5625 191.472656 244.953125 191.980469 245.367188 C 192.488281 245.785156 192.976562 246.222656 193.4375 246.6875 C 193.902344 247.148438 194.34375 247.636719 194.761719 248.140625 C 195.175781 248.648438 195.566406 249.175781 195.933594 249.71875 C 196.296875 250.265625 196.632812 250.824219 196.945312 251.402344 C 197.253906 251.980469 197.535156 252.574219 197.785156 253.179688 C 198.035156 253.785156 198.257812 254.398438 198.449219 255.027344 C 198.636719 255.65625 198.796875 256.289062 198.925781 256.933594 C 199.054688 257.574219 199.148438 258.222656 199.214844 258.875 C 199.277344 259.527344 199.3125 260.179688 199.3125 260.835938 Z M 199.3125 260.835938 " fill-opacity="1" fill-rule="nonzero"/></g><path fill="#ffffff" d="M 171.3125 251.324219 C 167.992188 252.632812 166.695312 251.726562 165.113281 253.265625 C 162.996094 255.304688 163.363281 258.820312 163.398438 259.367188 C 163.902344 267.734375 174.179688 263.199219 176.714844 269.347656 C 178.5 273.675781 185.335938 275.757812 189.679688 272.597656 C 192.109375 270.832031 192.917969 267.683594 193.292969 265.617188 C 194.144531 260.808594 192.890625 254.203125 187.785156 250.316406 C 187.230469 249.914062 181.902344 245.949219 177.167969 247.621094 C 174.773438 248.472656 174.746094 249.976562 171.3125 251.324219 Z M 171.3125 251.324219 " fill-opacity="1" fill-rule="nonzero"/><path fill="#efbd42" d="M 186.527344 255.390625 C 186.527344 255.734375 186.492188 256.078125 186.425781 256.417969 C 186.355469 256.757812 186.257812 257.085938 186.125 257.40625 C 185.992188 257.726562 185.828125 258.03125 185.636719 258.320312 C 185.441406 258.605469 185.222656 258.875 184.980469 259.117188 C 184.734375 259.363281 184.464844 259.582031 184.179688 259.773438 C 183.890625 259.96875 183.585938 260.128906 183.265625 260.261719 C 182.945312 260.394531 182.613281 260.496094 182.273438 260.5625 C 181.933594 260.628906 181.589844 260.664062 181.242188 260.664062 C 180.894531 260.664062 180.550781 260.628906 180.210938 260.5625 C 179.871094 260.496094 179.539062 260.394531 179.21875 260.261719 C 178.898438 260.128906 178.59375 259.96875 178.308594 259.773438 C 178.019531 259.582031 177.75 259.363281 177.507812 259.117188 C 177.261719 258.875 177.042969 258.605469 176.847656 258.320312 C 176.65625 258.03125 176.492188 257.726562 176.359375 257.40625 C 176.226562 257.085938 176.128906 256.757812 176.058594 256.417969 C 175.992188 256.078125 175.957031 255.734375 175.957031 255.390625 C 175.957031 255.042969 175.992188 254.699219 176.058594 254.359375 C 176.128906 254.019531 176.226562 253.691406 176.359375 253.371094 C 176.492188 253.050781 176.65625 252.746094 176.847656 252.460938 C 177.042969 252.171875 177.261719 251.90625 177.507812 251.660156 C 177.75 251.414062 178.019531 251.195312 178.308594 251.003906 C 178.59375 250.8125 178.898438 250.648438 179.21875 250.515625 C 179.539062 250.382812 179.871094 250.285156 180.210938 250.21875 C 180.550781 250.148438 180.894531 250.117188 181.242188 250.117188 C 181.589844 250.117188 181.933594 250.148438 182.273438 250.21875 C 182.613281 250.285156 182.945312 250.382812 183.265625 250.515625 C 183.585938 250.648438 183.890625 250.8125 184.179688 251.003906 C 184.464844 251.195312 184.734375 251.414062 184.980469 251.660156 C 185.222656 251.90625 185.441406 252.171875 185.636719 252.460938 C 185.828125 252.746094 185.992188 253.050781 186.125 253.371094 C 186.257812 253.691406 186.355469 254.019531 186.425781 254.359375 C 186.492188 254.699219 186.527344 255.042969 186.527344 255.390625 Z M 186.527344 255.390625 " fill-opacity="1" fill-rule="nonzero"/><path fill="#917eec" d="M 113.207031 175.957031 L 127.949219 196.09375 L 119.652344 202.144531 L 104.910156 182.007812 Z M 113.207031 175.957031 " fill-opacity="1" fill-rule="nonzero"/><path fill="#917eec" d="M 112.292969 168.441406 L 116.523438 174.21875 C 116.664062 174.414062 116.765625 174.625 116.820312 174.859375 C 116.878906 175.089844 116.886719 175.324219 116.851562 175.5625 C 116.8125 175.796875 116.734375 176.019531 116.609375 176.222656 C 116.484375 176.425781 116.324219 176.597656 116.132812 176.738281 L 104.773438 185.023438 C 104.582031 185.164062 104.367188 185.261719 104.136719 185.320312 C 103.902344 185.375 103.667969 185.386719 103.429688 185.347656 C 103.195312 185.3125 102.972656 185.230469 102.769531 185.109375 C 102.5625 184.984375 102.390625 184.824219 102.25 184.632812 L 98.019531 178.851562 C 97.878906 178.660156 97.777344 178.445312 97.722656 178.214844 C 97.664062 177.980469 97.65625 177.746094 97.691406 177.511719 C 97.730469 177.273438 97.808594 177.054688 97.933594 176.851562 C 98.058594 176.644531 98.21875 176.472656 98.410156 176.332031 L 109.765625 168.050781 C 109.960938 167.910156 110.175781 167.808594 110.40625 167.753906 C 110.640625 167.695312 110.875 167.6875 111.109375 167.722656 C 111.347656 167.761719 111.570312 167.839844 111.773438 167.964844 C 111.976562 168.089844 112.152344 168.25 112.292969 168.441406 Z M 112.292969 168.441406 " fill-opacity="1" fill-rule="nonzero"/><path fill="#917eec" d="M 129.191406 191.523438 L 133.421875 197.300781 C 133.566406 197.492188 133.664062 197.707031 133.71875 197.9375 C 133.777344 198.171875 133.785156 198.40625 133.75 198.640625 C 133.714844 198.878906 133.632812 199.097656 133.507812 199.300781 C 133.382812 199.507812 133.222656 199.679688 133.03125 199.820312 L 121.675781 208.105469 C 121.480469 208.246094 121.269531 208.34375 121.035156 208.398438 C 120.800781 208.457031 120.566406 208.464844 120.332031 208.429688 C 120.09375 208.394531 119.875 208.3125 119.667969 208.1875 C 119.464844 208.0625 119.292969 207.90625 119.148438 207.710938 L 114.917969 201.933594 C 114.777344 201.738281 114.679688 201.527344 114.621094 201.292969 C 114.566406 201.0625 114.554688 200.828125 114.59375 200.589844 C 114.628906 200.355469 114.710938 200.136719 114.835938 199.929688 C 114.957031 199.726562 115.117188 199.554688 115.3125 199.414062 L 126.667969 191.128906 C 126.859375 190.988281 127.074219 190.890625 127.308594 190.832031 C 127.539062 190.777344 127.773438 190.765625 128.011719 190.804688 C 128.246094 190.839844 128.46875 190.921875 128.671875 191.046875 C 128.878906 191.167969 129.050781 191.328125 129.191406 191.523438 Z M 129.191406 191.523438 " fill-opacity="1" fill-rule="nonzero"/><path fill="#e73f46" d="M 165.050781 113.050781 L 198.835938 113.050781 L 198.835938 117.5625 C 198.835938 118.535156 198.742188 119.5 198.550781 120.457031 C 198.363281 121.410156 198.078125 122.339844 197.707031 123.238281 C 197.332031 124.136719 196.875 124.992188 196.332031 125.800781 C 195.792969 126.609375 195.175781 127.359375 194.484375 128.046875 C 193.796875 128.738281 193.046875 129.351562 192.234375 129.890625 C 191.421875 130.433594 190.566406 130.890625 189.667969 131.261719 C 188.765625 131.636719 187.835938 131.917969 186.878906 132.105469 C 185.921875 132.296875 184.957031 132.390625 183.980469 132.390625 L 180.34375 132.390625 C 179.339844 132.390625 178.347656 132.292969 177.363281 132.097656 C 176.378906 131.902344 175.421875 131.613281 174.496094 131.230469 C 173.570312 130.847656 172.6875 130.378906 171.855469 129.820312 C 171.019531 129.265625 170.25 128.632812 169.539062 127.925781 C 168.832031 127.214844 168.195312 126.445312 167.640625 125.613281 C 167.082031 124.78125 166.613281 123.902344 166.226562 122.976562 C 165.84375 122.054688 165.554688 121.097656 165.359375 120.117188 C 165.164062 119.136719 165.066406 118.144531 165.066406 117.140625 L 165.066406 113.050781 Z M 165.050781 113.050781 " fill-opacity="1" fill-rule="nonzero"/><path fill="#e73f46" d="M 203.300781 124.804688 C 202.820312 124.804688 202.347656 124.757812 201.875 124.664062 C 201.402344 124.570312 200.945312 124.433594 200.503906 124.25 C 200.058594 124.066406 199.636719 123.839844 199.238281 123.574219 C 198.839844 123.308594 198.46875 123.003906 198.128906 122.667969 C 197.789062 122.328125 197.488281 121.957031 197.21875 121.558594 C 196.953125 121.160156 196.726562 120.738281 196.542969 120.296875 C 196.359375 119.855469 196.222656 119.398438 196.128906 118.925781 C 196.035156 118.457031 195.988281 117.984375 195.988281 117.503906 C 195.988281 117.023438 196.035156 116.546875 196.128906 116.078125 C 196.222656 115.609375 196.359375 115.152344 196.542969 114.707031 C 196.726562 114.265625 196.953125 113.84375 197.21875 113.445312 C 197.488281 113.046875 197.789062 112.679688 198.128906 112.339844 C 198.46875 112 198.839844 111.699219 199.238281 111.433594 C 199.636719 111.164062 200.058594 110.941406 200.503906 110.757812 C 200.945312 110.574219 201.402344 110.433594 201.875 110.339844 C 202.347656 110.25 202.820312 110.203125 203.300781 110.203125 C 203.78125 110.203125 204.257812 110.25 204.730469 110.339844 C 205.199219 110.433594 205.65625 110.574219 206.101562 110.757812 C 206.546875 110.941406 206.96875 111.164062 207.367188 111.433594 C 207.765625 111.699219 208.136719 112 208.476562 112.339844 C 208.816406 112.679688 209.117188 113.046875 209.386719 113.445312 C 209.652344 113.84375 209.878906 114.265625 210.0625 114.707031 C 210.246094 115.152344 210.382812 115.609375 210.476562 116.078125 C 210.570312 116.546875 210.617188 117.023438 210.617188 117.503906 C 210.617188 117.980469 210.570312 118.457031 210.476562 118.925781 C 210.382812 119.398438 210.242188 119.851562 210.058594 120.296875 C 209.875 120.738281 209.648438 121.160156 209.382812 121.558594 C 209.117188 121.957031 208.8125 122.324219 208.472656 122.664062 C 208.132812 123.003906 207.765625 123.304688 207.363281 123.570312 C 206.964844 123.839844 206.542969 124.0625 206.101562 124.246094 C 205.65625 124.429688 205.199219 124.570312 204.730469 124.664062 C 204.257812 124.757812 203.78125 124.804688 203.300781 124.804688 Z M 203.300781 112.207031 C 202.953125 112.207031 202.609375 112.238281 202.265625 112.308594 C 201.925781 112.375 201.59375 112.476562 201.269531 112.609375 C 200.949219 112.742188 200.644531 112.90625 200.351562 113.097656 C 200.0625 113.292969 199.796875 113.511719 199.550781 113.757812 C 199.300781 114.003906 199.082031 114.269531 198.890625 114.558594 C 198.695312 114.847656 198.53125 115.152344 198.398438 115.476562 C 198.265625 115.796875 198.164062 116.128906 198.097656 116.46875 C 198.027344 116.8125 197.996094 117.15625 197.996094 117.503906 C 197.996094 117.851562 198.027344 118.195312 198.097656 118.535156 C 198.164062 118.878906 198.265625 119.210938 198.398438 119.53125 C 198.53125 119.851562 198.695312 120.15625 198.890625 120.445312 C 199.082031 120.734375 199.300781 121.003906 199.550781 121.25 C 199.796875 121.496094 200.0625 121.714844 200.351562 121.90625 C 200.644531 122.101562 200.949219 122.265625 201.269531 122.398438 C 201.59375 122.53125 201.925781 122.632812 202.265625 122.699219 C 202.609375 122.765625 202.953125 122.800781 203.300781 122.800781 C 203.652344 122.800781 203.996094 122.765625 204.339844 122.699219 C 204.679688 122.632812 205.011719 122.53125 205.332031 122.398438 C 205.65625 122.265625 205.960938 122.101562 206.25 121.90625 C 206.542969 121.714844 206.808594 121.496094 207.054688 121.25 C 207.300781 121.003906 207.523438 120.734375 207.714844 120.445312 C 207.910156 120.15625 208.074219 119.851562 208.207031 119.53125 C 208.339844 119.210938 208.441406 118.878906 208.507812 118.535156 C 208.578125 118.195312 208.609375 117.851562 208.609375 117.503906 C 208.609375 117.15625 208.574219 116.8125 208.507812 116.46875 C 208.4375 116.128906 208.339844 115.796875 208.203125 115.476562 C 208.070312 115.15625 207.90625 114.851562 207.714844 114.5625 C 207.519531 114.273438 207.300781 114.003906 207.054688 113.757812 C 206.808594 113.511719 206.539062 113.292969 206.25 113.101562 C 205.960938 112.90625 205.652344 112.742188 205.332031 112.609375 C 205.011719 112.476562 204.679688 112.375 204.335938 112.308594 C 203.996094 112.238281 203.652344 112.207031 203.300781 112.207031 Z M 203.300781 112.207031 " fill-opacity="1" fill-rule="nonzero"/><g clip-path="url(#9e76a333d1)"><path fill="#86ebf9" d="M 183.011719 94.109375 C 183.011719 94.109375 178.597656 95.875 181.34375 99.792969 C 184.089844 103.714844 180.445312 107.808594 180.445312 107.808594 C 180.445312 107.808594 185.367188 105.078125 184.289062 102.28125 C 183.214844 99.484375 180.363281 97.652344 183.011719 94.109375 Z M 183.011719 94.109375 " fill-opacity="1" fill-rule="nonzero"/></g><path fill="#86ebf9" d="M 189.832031 98.222656 C 189.832031 98.222656 186.441406 99.578125 188.550781 102.585938 C 190.660156 105.597656 187.859375 108.753906 187.859375 108.753906 C 187.859375 108.753906 191.636719 106.660156 190.8125 104.53125 C 189.984375 102.402344 187.796875 100.925781 189.832031 98.222656 Z M 189.832031 98.222656 " fill-opacity="1" fill-rule="nonzero"/><path fill="#86ebf9" d="M 175.367188 98.550781 C 175.367188 98.550781 171.964844 99.90625 174.085938 102.929688 C 176.210938 105.949219 173.398438 109.09375 173.398438 109.09375 C 173.398438 109.09375 177.179688 107.003906 176.347656 104.851562 C 175.515625 102.699219 173.335938 101.261719 175.367188 98.550781 Z M 175.367188 98.550781 " fill-opacity="1" fill-rule="nonzero"/></svg>