<svg xmlns="http://www.w3.org/2000/svg" xmlns:xlink="http://www.w3.org/1999/xlink" zoomAndPan="magnify" preserveAspectRatio="xMidYMid meet" version="1.0" viewBox="72.36 64.05 230.25 246.75"><defs><clipPath id="b78fba0934"><path d="M 72.359375 64.054688 L 302.609375 64.054688 L 302.609375 310.804688 L 72.359375 310.804688 Z M 72.359375 64.054688 " clip-rule="nonzero"/></clipPath><clipPath id="11eee06144"><path d="M 276.21875 230.433594 C 272.757812 224.582031 265.179688 222.636719 259.324219 226.097656 L 226.976562 245.214844 C 224.988281 246.390625 222.933594 247.421875 220.820312 248.300781 C 221.632812 245.128906 221.339844 241.796875 219.960938 238.777344 C 218.363281 235.285156 215.496094 232.621094 211.894531 231.28125 C 208.292969 229.9375 204.386719 230.082031 200.886719 231.679688 L 177.746094 242.253906 C 171.300781 240.46875 164.414062 240.824219 158.175781 243.292969 L 147.339844 247.578125 L 146.914062 244.382812 C 146.609375 242.132812 144.546875 240.554688 142.292969 240.855469 L 117.839844 244.128906 C 116.757812 244.273438 115.78125 244.839844 115.117188 245.707031 C 114.457031 246.574219 114.167969 247.667969 114.3125 248.746094 L 77.632812 253.65625 C 75.382812 253.957031 73.804688 256.027344 74.105469 258.277344 L 80.65625 307.15625 C 80.929688 309.21875 82.695312 310.71875 84.722656 310.71875 C 84.90625 310.71875 85.089844 310.707031 85.273438 310.683594 L 121.953125 305.773438 C 122.230469 307.839844 123.992188 309.339844 126.023438 309.339844 C 126.203125 309.339844 126.386719 309.328125 126.574219 309.300781 L 151.023438 306.027344 C 152.105469 305.882812 153.085938 305.316406 153.746094 304.449219 C 154.40625 303.582031 154.699219 302.488281 154.554688 301.410156 L 154.066406 297.789062 L 208.800781 289.066406 C 210.363281 288.816406 211.910156 288.417969 213.402344 287.878906 L 222.558594 284.582031 C 229.445312 282.097656 235.757812 278.421875 241.3125 273.652344 L 272.21875 247.117188 C 274.875 245.429688 276.761719 242.839844 277.550781 239.777344 C 278.371094 236.585938 277.898438 233.269531 276.21875 230.433594 Z M 88.257812 301.992188 L 82.800781 261.257812 L 115.402344 256.894531 L 120.859375 297.625 Z M 129.558594 300.609375 L 123.007812 251.730469 L 139.308594 249.546875 L 145.859375 298.425781 Z M 269.585938 237.730469 C 269.3125 238.796875 268.640625 239.6875 267.695312 240.246094 C 267.488281 240.371094 267.292969 240.511719 267.109375 240.667969 L 235.957031 267.417969 C 231.160156 271.53125 225.714844 274.707031 219.769531 276.847656 L 210.613281 280.148438 C 209.609375 280.511719 208.5625 280.78125 207.507812 280.949219 L 152.976562 289.636719 L 148.464844 255.972656 L 161.203125 250.933594 C 166.15625 248.976562 171.667969 248.832031 176.726562 250.535156 C 177.71875 250.867188 178.796875 250.8125 179.75 250.378906 L 204.308594 239.152344 C 205.804688 238.46875 207.480469 238.40625 209.027344 238.984375 C 210.570312 239.558594 211.796875 240.699219 212.480469 242.195312 C 213.167969 243.695312 213.226562 245.367188 212.652344 246.910156 C 212.078125 248.453125 210.9375 249.679688 209.441406 250.363281 C 209.441406 250.367188 209.4375 250.367188 209.4375 250.367188 L 188.871094 259.765625 C 186.808594 260.707031 185.898438 263.148438 186.84375 265.210938 C 187.535156 266.722656 189.023438 267.613281 190.585938 267.613281 C 191.15625 267.613281 191.738281 267.492188 192.292969 267.238281 L 207.996094 260.0625 L 210.871094 259.601562 C 218.066406 258.457031 224.894531 255.996094 231.164062 252.289062 L 263.507812 233.171875 C 265.460938 232.019531 267.988281 232.667969 269.140625 234.617188 C 269.699219 235.5625 269.859375 236.667969 269.585938 237.730469 Z M 286.15625 125.558594 L 277.9375 122.820312 L 277.9375 119.378906 C 283.140625 114.222656 286.160156 107.152344 286.160156 99.539062 L 286.160156 97.015625 C 288.433594 97.015625 290.273438 95.175781 290.273438 92.90625 C 290.273438 77.042969 277.363281 64.136719 261.492188 64.136719 L 245.046875 64.136719 C 242.773438 64.136719 240.933594 65.976562 240.933594 68.246094 L 240.933594 79.632812 C 240.933594 83.902344 242.484375 87.8125 245.046875 90.839844 L 245.046875 99.539062 C 245.046875 100.683594 245.117188 101.820312 245.253906 102.9375 C 232.65625 84.492188 211.460938 72.359375 187.484375 72.359375 C 163.5 72.359375 142.304688 84.496094 129.710938 102.945312 C 129.847656 101.824219 129.921875 100.6875 129.921875 99.539062 L 129.921875 97.015625 C 132.191406 97.015625 134.03125 95.175781 134.03125 92.90625 C 134.03125 77.042969 121.121094 64.136719 105.25 64.136719 L 88.804688 64.136719 C 86.535156 64.136719 84.691406 65.976562 84.691406 68.246094 L 84.691406 79.632812 C 84.691406 83.902344 86.242188 87.8125 88.804688 90.839844 L 88.804688 99.539062 C 88.804688 107.15625 91.828125 114.222656 97.027344 119.382812 L 97.027344 122.820312 L 88.8125 125.558594 C 78.96875 128.835938 72.359375 138.007812 72.359375 148.375 L 72.359375 175.097656 C 72.359375 177.367188 74.199219 179.210938 76.46875 179.210938 L 128.277344 179.210938 C 133.90625 188.1875 141.507812 195.800781 150.480469 201.433594 L 150.480469 212.085938 C 150.480469 214.355469 152.320312 216.195312 154.589844 216.195312 L 220.375 216.195312 C 222.648438 216.195312 224.488281 214.355469 224.488281 212.085938 L 224.488281 201.40625 C 233.46875 195.777344 241.085938 188.179688 246.722656 179.210938 L 298.496094 179.210938 C 300.765625 179.210938 302.609375 177.367188 302.609375 175.097656 L 302.609375 148.375 C 302.609375 138.007812 295.996094 128.835938 286.15625 125.558594 Z M 261.492188 125.007812 C 262.808594 125.515625 264.207031 125.777344 265.605469 125.777344 C 267 125.777344 268.398438 125.515625 269.714844 125.007812 L 269.714844 129.894531 C 269.714844 132.160156 267.871094 134.003906 265.605469 134.003906 C 263.335938 134.003906 261.492188 132.160156 261.492188 129.894531 Z M 277.9375 99.539062 C 277.9375 107.082031 273.746094 113.863281 266.996094 117.234375 C 266.125 117.671875 265.082031 117.671875 264.210938 117.234375 C 257.460938 113.863281 253.269531 107.082031 253.269531 99.539062 L 253.269531 96.265625 C 254.871094 96.75 256.566406 97.015625 258.324219 97.015625 L 277.9375 97.015625 Z M 249.15625 72.359375 L 261.492188 72.359375 C 271.417969 72.359375 279.726562 79.429688 281.636719 88.796875 L 258.324219 88.796875 C 253.269531 88.796875 249.15625 84.6875 249.15625 79.632812 Z M 105.25 125.007812 C 106.570312 125.515625 107.964844 125.777344 109.363281 125.777344 C 110.761719 125.777344 112.15625 125.515625 113.472656 125.007812 L 113.472656 129.894531 C 113.472656 132.160156 111.628906 134.003906 109.363281 134.003906 C 107.09375 134.003906 105.25 132.160156 105.25 129.894531 Z M 121.699219 99.539062 C 121.699219 107.082031 117.503906 113.863281 110.753906 117.234375 C 109.882812 117.671875 108.84375 117.671875 107.972656 117.234375 C 101.222656 113.863281 97.027344 107.082031 97.027344 99.539062 L 97.027344 96.265625 C 98.628906 96.75 100.324219 97.015625 102.082031 97.015625 L 121.699219 97.015625 Z M 92.917969 72.359375 L 105.25 72.359375 C 115.179688 72.359375 123.484375 79.429688 125.394531 88.796875 L 102.082031 88.796875 C 97.027344 88.796875 92.917969 84.6875 92.917969 79.632812 Z M 80.582031 148.375 C 80.582031 141.550781 84.933594 135.515625 91.414062 133.355469 L 97.128906 131.449219 C 97.898438 137.515625 103.089844 142.222656 109.363281 142.222656 C 115.636719 142.222656 120.828125 137.515625 121.59375 131.449219 L 127.3125 133.355469 C 133.792969 135.515625 138.144531 141.550781 138.144531 148.375 L 138.144531 170.988281 L 80.582031 170.988281 Z M 216.265625 207.976562 L 158.703125 207.976562 L 158.703125 185.363281 C 158.703125 178.539062 163.054688 172.5 169.53125 170.34375 L 175.25 168.4375 C 176.019531 174.503906 181.210938 179.210938 187.484375 179.210938 C 193.757812 179.210938 198.945312 174.503906 199.714844 168.4375 L 205.433594 170.34375 C 211.910156 172.5 216.265625 178.539062 216.265625 185.363281 Z M 180.203125 125.785156 C 175.148438 125.785156 171.035156 121.671875 171.035156 116.621094 L 171.035156 109.34375 L 183.371094 109.34375 C 193.300781 109.34375 201.605469 116.414062 203.515625 125.785156 Z M 180.203125 134.003906 L 199.816406 134.003906 L 199.816406 136.523438 C 199.816406 144.066406 195.625 150.847656 188.875 154.222656 C 188.003906 154.660156 186.964844 154.660156 186.09375 154.222656 C 179.339844 150.847656 175.148438 144.066406 175.148438 136.523438 L 175.148438 133.25 C 176.75 133.738281 178.445312 134.003906 180.203125 134.003906 Z M 183.371094 161.992188 C 184.6875 162.503906 186.085938 162.765625 187.484375 162.765625 C 188.878906 162.765625 190.277344 162.503906 191.59375 161.992188 L 191.59375 166.878906 C 191.59375 169.144531 189.75 170.988281 187.484375 170.988281 C 185.214844 170.988281 183.371094 169.144531 183.371094 166.878906 Z M 224.488281 191.480469 L 224.488281 185.363281 C 224.488281 174.996094 217.875 165.824219 208.035156 162.546875 L 199.816406 159.808594 L 199.816406 156.367188 C 205.019531 151.207031 208.042969 144.140625 208.042969 136.523438 L 208.042969 134.003906 C 210.3125 134.003906 212.152344 132.164062 212.152344 129.894531 C 212.152344 114.03125 199.242188 101.125 183.371094 101.125 L 166.925781 101.125 C 164.65625 101.125 162.8125 102.964844 162.8125 105.234375 L 162.8125 116.621094 C 162.8125 120.886719 164.363281 124.800781 166.925781 127.828125 L 166.925781 136.523438 C 166.925781 144.140625 169.949219 151.207031 175.148438 156.367188 L 175.148438 159.808594 L 166.933594 162.546875 C 157.089844 165.824219 150.480469 174.996094 150.480469 185.363281 L 150.480469 191.476562 C 145.84375 187.980469 141.71875 183.847656 138.226562 179.207031 L 142.253906 179.207031 C 144.527344 179.207031 146.367188 177.367188 146.367188 175.097656 L 146.367188 148.375 C 146.367188 138.007812 139.753906 128.835938 129.914062 125.558594 L 128.265625 125.007812 C 135.738281 99.371094 159.453125 80.578125 187.484375 80.578125 C 215.515625 80.578125 239.226562 99.371094 246.699219 125.011719 L 245.054688 125.558594 C 235.210938 128.835938 228.597656 138.007812 228.597656 148.375 L 228.597656 175.097656 C 228.597656 177.367188 230.441406 179.210938 232.710938 179.210938 L 236.765625 179.210938 C 233.265625 183.851562 229.132812 187.984375 224.488281 191.480469 Z M 294.386719 170.988281 L 236.824219 170.988281 L 236.824219 148.375 C 236.824219 141.550781 241.175781 135.515625 247.652344 133.355469 L 253.371094 131.449219 C 254.140625 137.515625 259.332031 142.222656 265.605469 142.222656 C 271.878906 142.222656 277.066406 137.515625 277.835938 131.449219 L 283.554688 133.355469 C 290.03125 135.515625 294.386719 141.550781 294.386719 148.375 Z M 294.386719 170.988281 " clip-rule="nonzero"/></clipPath><linearGradient x1="-14.358051" gradientTransform="matrix(0.513951, 0, 0, 0.51371, 55.911739, 55.918729)" y1="449.644086" x2="449.642432" gradientUnits="userSpaceOnUse" y2="-14.357521" id="78649560a9"><stop stop-opacity="1" stop-color="rgb(36.898804%, 73.699951%, 89.7995%)" offset="0"/><stop stop-opacity="1" stop-color="rgb(36.898804%, 73.699951%, 89.7995%)" offset="0.015625"/><stop stop-opacity="1" stop-color="rgb(36.936951%, 73.669434%, 89.7995%)" offset="0.0234375"/><stop stop-opacity="1" stop-color="rgb(37.257385%, 73.422241%, 89.802551%)" offset="0.0273437"/><stop stop-opacity="1" stop-color="rgb(37.538147%, 73.205566%, 89.807129%)" offset="0.03125"/><stop stop-opacity="1" stop-color="rgb(37.818909%, 72.988892%, 89.810181%)" offset="0.0351562"/><stop stop-opacity="1" stop-color="rgb(38.101196%, 72.772217%, 89.813232%)" offset="0.0390625"/><stop stop-opacity="1" stop-color="rgb(38.381958%, 72.555542%, 89.816284%)" offset="0.0429687"/><stop stop-opacity="1" stop-color="rgb(38.66272%, 72.338867%, 89.819336%)" offset="0.046875"/><stop stop-opacity="1" stop-color="rgb(38.943481%, 72.122192%, 89.822388%)" offset="0.0507812"/><stop stop-opacity="1" stop-color="rgb(39.225769%, 71.905518%, 89.826965%)" offset="0.0546875"/><stop stop-opacity="1" stop-color="rgb(39.506531%, 71.688843%, 89.830017%)" offset="0.0585938"/><stop stop-opacity="1" stop-color="rgb(39.788818%, 71.472168%, 89.833069%)" offset="0.0625"/><stop stop-opacity="1" stop-color="rgb(40.06958%, 71.255493%, 89.836121%)" offset="0.0664062"/><stop stop-opacity="1" stop-color="rgb(40.350342%, 71.038818%, 89.839172%)" offset="0.0703125"/><stop stop-opacity="1" stop-color="rgb(40.631104%, 70.820618%, 89.842224%)" offset="0.0742187"/><stop stop-opacity="1" stop-color="rgb(40.913391%, 70.603943%, 89.845276%)" offset="0.078125"/><stop stop-opacity="1" stop-color="rgb(41.194153%, 70.387268%, 89.848328%)" offset="0.0820312"/><stop stop-opacity="1" stop-color="rgb(41.474915%, 70.170593%, 89.852905%)" offset="0.0859375"/><stop stop-opacity="1" stop-color="rgb(41.755676%, 69.953918%, 89.855957%)" offset="0.0898438"/><stop stop-opacity="1" stop-color="rgb(42.037964%, 69.737244%, 89.859009%)" offset="0.09375"/><stop stop-opacity="1" stop-color="rgb(42.318726%, 69.520569%, 89.862061%)" offset="0.0976562"/><stop stop-opacity="1" stop-color="rgb(42.599487%, 69.303894%, 89.865112%)" offset="0.101562"/><stop stop-opacity="1" stop-color="rgb(42.880249%, 69.087219%, 89.868164%)" offset="0.105469"/><stop stop-opacity="1" stop-color="rgb(43.162537%, 68.870544%, 89.871216%)" offset="0.109375"/><stop stop-opacity="1" stop-color="rgb(43.443298%, 68.65387%, 89.874268%)" offset="0.113281"/><stop stop-opacity="1" stop-color="rgb(43.72406%, 68.437195%, 89.878845%)" offset="0.117187"/><stop stop-opacity="1" stop-color="rgb(44.004822%, 68.218994%, 89.881897%)" offset="0.121094"/><stop stop-opacity="1" stop-color="rgb(44.287109%, 68.002319%, 89.884949%)" offset="0.125"/><stop stop-opacity="1" stop-color="rgb(44.567871%, 67.785645%, 89.888%)" offset="0.128906"/><stop stop-opacity="1" stop-color="rgb(44.850159%, 67.56897%, 89.891052%)" offset="0.132812"/><stop stop-opacity="1" stop-color="rgb(45.13092%, 67.352295%, 89.894104%)" offset="0.136719"/><stop stop-opacity="1" stop-color="rgb(45.411682%, 67.13562%, 89.898682%)" offset="0.140625"/><stop stop-opacity="1" stop-color="rgb(45.692444%, 66.918945%, 89.901733%)" offset="0.144531"/><stop stop-opacity="1" stop-color="rgb(45.974731%, 66.702271%, 89.904785%)" offset="0.148438"/><stop stop-opacity="1" stop-color="rgb(46.255493%, 66.485596%, 89.907837%)" offset="0.152344"/><stop stop-opacity="1" stop-color="rgb(46.536255%, 66.268921%, 89.910889%)" offset="0.15625"/><stop stop-opacity="1" stop-color="rgb(46.817017%, 66.052246%, 89.91394%)" offset="0.160156"/><stop stop-opacity="1" stop-color="rgb(47.099304%, 65.835571%, 89.916992%)" offset="0.164062"/><stop stop-opacity="1" stop-color="rgb(47.380066%, 65.617371%, 89.920044%)" offset="0.167969"/><stop stop-opacity="1" stop-color="rgb(47.660828%, 65.400696%, 89.924622%)" offset="0.171875"/><stop stop-opacity="1" stop-color="rgb(47.941589%, 65.184021%, 89.927673%)" offset="0.175781"/><stop stop-opacity="1" stop-color="rgb(48.223877%, 64.967346%, 89.930725%)" offset="0.179688"/><stop stop-opacity="1" stop-color="rgb(48.504639%, 64.750671%, 89.933777%)" offset="0.183594"/><stop stop-opacity="1" stop-color="rgb(48.786926%, 64.533997%, 89.936829%)" offset="0.1875"/><stop stop-opacity="1" stop-color="rgb(49.067688%, 64.317322%, 89.93988%)" offset="0.191406"/><stop stop-opacity="1" stop-color="rgb(49.34845%, 64.100647%, 89.942932%)" offset="0.195312"/><stop stop-opacity="1" stop-color="rgb(49.629211%, 63.883972%, 89.945984%)" offset="0.199219"/><stop stop-opacity="1" stop-color="rgb(49.911499%, 63.667297%, 89.950562%)" offset="0.203125"/><stop stop-opacity="1" stop-color="rgb(50.192261%, 63.450623%, 89.953613%)" offset="0.207031"/><stop stop-opacity="1" stop-color="rgb(50.473022%, 63.233948%, 89.956665%)" offset="0.210938"/><stop stop-opacity="1" stop-color="rgb(50.753784%, 63.015747%, 89.959717%)" offset="0.214844"/><stop stop-opacity="1" stop-color="rgb(51.036072%, 62.799072%, 89.962769%)" offset="0.21875"/><stop stop-opacity="1" stop-color="rgb(51.316833%, 62.582397%, 89.96582%)" offset="0.222656"/><stop stop-opacity="1" stop-color="rgb(51.597595%, 62.365723%, 89.970398%)" offset="0.226562"/><stop stop-opacity="1" stop-color="rgb(51.878357%, 62.149048%, 89.97345%)" offset="0.230469"/><stop stop-opacity="1" stop-color="rgb(52.160645%, 61.932373%, 89.976501%)" offset="0.234375"/><stop stop-opacity="1" stop-color="rgb(52.441406%, 61.715698%, 89.979553%)" offset="0.238281"/><stop stop-opacity="1" stop-color="rgb(52.722168%, 61.499023%, 89.982605%)" offset="0.242187"/><stop stop-opacity="1" stop-color="rgb(53.00293%, 61.282349%, 89.985657%)" offset="0.246094"/><stop stop-opacity="1" stop-color="rgb(53.285217%, 61.065674%, 89.988708%)" offset="0.25"/><stop stop-opacity="1" stop-color="rgb(53.565979%, 60.848999%, 89.99176%)" offset="0.253906"/><stop stop-opacity="1" stop-color="rgb(53.848267%, 60.632324%, 89.996338%)" offset="0.257812"/><stop stop-opacity="1" stop-color="rgb(54.129028%, 60.414124%, 89.99939%)" offset="0.261719"/><stop stop-opacity="1" stop-color="rgb(54.40979%, 60.197449%, 90.002441%)" offset="0.265625"/><stop stop-opacity="1" stop-color="rgb(54.690552%, 59.980774%, 90.005493%)" offset="0.269531"/><stop stop-opacity="1" stop-color="rgb(54.972839%, 59.764099%, 90.008545%)" offset="0.273438"/><stop stop-opacity="1" stop-color="rgb(55.253601%, 59.547424%, 90.011597%)" offset="0.277344"/><stop stop-opacity="1" stop-color="rgb(55.534363%, 59.33075%, 90.014648%)" offset="0.28125"/><stop stop-opacity="1" stop-color="rgb(55.815125%, 59.114075%, 90.0177%)" offset="0.285156"/><stop stop-opacity="1" stop-color="rgb(56.097412%, 58.8974%, 90.022278%)" offset="0.289062"/><stop stop-opacity="1" stop-color="rgb(56.378174%, 58.680725%, 90.02533%)" offset="0.292969"/><stop stop-opacity="1" stop-color="rgb(56.658936%, 58.46405%, 90.028381%)" offset="0.296875"/><stop stop-opacity="1" stop-color="rgb(56.939697%, 58.247375%, 90.031433%)" offset="0.300781"/><stop stop-opacity="1" stop-color="rgb(57.221985%, 58.030701%, 90.034485%)" offset="0.304688"/><stop stop-opacity="1" stop-color="rgb(57.502747%, 57.8125%, 90.037537%)" offset="0.308594"/><stop stop-opacity="1" stop-color="rgb(57.785034%, 57.595825%, 90.042114%)" offset="0.3125"/><stop stop-opacity="1" stop-color="rgb(58.065796%, 57.37915%, 90.045166%)" offset="0.316406"/><stop stop-opacity="1" stop-color="rgb(58.346558%, 57.162476%, 90.048218%)" offset="0.320312"/><stop stop-opacity="1" stop-color="rgb(58.627319%, 56.945801%, 90.05127%)" offset="0.324219"/><stop stop-opacity="1" stop-color="rgb(58.909607%, 56.729126%, 90.054321%)" offset="0.328125"/><stop stop-opacity="1" stop-color="rgb(59.190369%, 56.512451%, 90.057373%)" offset="0.332031"/><stop stop-opacity="1" stop-color="rgb(59.47113%, 56.295776%, 90.060425%)" offset="0.335938"/><stop stop-opacity="1" stop-color="rgb(59.751892%, 56.079102%, 90.063477%)" offset="0.339844"/><stop stop-opacity="1" stop-color="rgb(60.03418%, 55.862427%, 90.068054%)" offset="0.34375"/><stop stop-opacity="1" stop-color="rgb(60.314941%, 55.645752%, 90.071106%)" offset="0.347656"/><stop stop-opacity="1" stop-color="rgb(60.595703%, 55.429077%, 90.074158%)" offset="0.351562"/><stop stop-opacity="1" stop-color="rgb(60.876465%, 55.210876%, 90.077209%)" offset="0.355469"/><stop stop-opacity="1" stop-color="rgb(61.158752%, 54.994202%, 90.080261%)" offset="0.359375"/><stop stop-opacity="1" stop-color="rgb(61.439514%, 54.777527%, 90.083313%)" offset="0.363281"/><stop stop-opacity="1" stop-color="rgb(61.720276%, 54.560852%, 90.086365%)" offset="0.367188"/><stop stop-opacity="1" stop-color="rgb(62.001038%, 54.344177%, 90.089417%)" offset="0.371094"/><stop stop-opacity="1" stop-color="rgb(62.283325%, 54.127502%, 90.093994%)" offset="0.375"/><stop stop-opacity="1" stop-color="rgb(62.564087%, 53.910828%, 90.097046%)" offset="0.378906"/><stop stop-opacity="1" stop-color="rgb(62.846375%, 53.694153%, 90.100098%)" offset="0.382812"/><stop stop-opacity="1" stop-color="rgb(63.127136%, 53.477478%, 90.103149%)" offset="0.386719"/><stop stop-opacity="1" stop-color="rgb(63.407898%, 53.260803%, 90.106201%)" offset="0.390625"/><stop stop-opacity="1" stop-color="rgb(63.68866%, 53.044128%, 90.109253%)" offset="0.394531"/><stop stop-opacity="1" stop-color="rgb(63.970947%, 52.827454%, 90.113831%)" offset="0.398438"/><stop stop-opacity="1" stop-color="rgb(64.251709%, 52.609253%, 90.116882%)" offset="0.402344"/><stop stop-opacity="1" stop-color="rgb(64.532471%, 52.392578%, 90.119934%)" offset="0.40625"/><stop stop-opacity="1" stop-color="rgb(64.813232%, 52.175903%, 90.122986%)" offset="0.410156"/><stop stop-opacity="1" stop-color="rgb(65.09552%, 51.959229%, 90.126038%)" offset="0.414062"/><stop stop-opacity="1" stop-color="rgb(65.376282%, 51.742554%, 90.129089%)" offset="0.417969"/><stop stop-opacity="1" stop-color="rgb(65.657043%, 51.525879%, 90.132141%)" offset="0.421875"/><stop stop-opacity="1" stop-color="rgb(65.937805%, 51.309204%, 90.135193%)" offset="0.425781"/><stop stop-opacity="1" stop-color="rgb(66.220093%, 51.092529%, 90.139771%)" offset="0.429688"/><stop stop-opacity="1" stop-color="rgb(66.500854%, 50.875854%, 90.142822%)" offset="0.433594"/><stop stop-opacity="1" stop-color="rgb(66.783142%, 50.65918%, 90.145874%)" offset="0.4375"/><stop stop-opacity="1" stop-color="rgb(67.063904%, 50.442505%, 90.148926%)" offset="0.441406"/><stop stop-opacity="1" stop-color="rgb(67.344666%, 50.22583%, 90.151978%)" offset="0.445313"/><stop stop-opacity="1" stop-color="rgb(67.625427%, 50.007629%, 90.155029%)" offset="0.449219"/><stop stop-opacity="1" stop-color="rgb(67.907715%, 49.790955%, 90.158081%)" offset="0.453125"/><stop stop-opacity="1" stop-color="rgb(68.188477%, 49.57428%, 90.161133%)" offset="0.457031"/><stop stop-opacity="1" stop-color="rgb(68.469238%, 49.357605%, 90.16571%)" offset="0.460937"/><stop stop-opacity="1" stop-color="rgb(68.75%, 49.14093%, 90.168762%)" offset="0.464844"/><stop stop-opacity="1" stop-color="rgb(69.032288%, 48.924255%, 90.171814%)" offset="0.46875"/><stop stop-opacity="1" stop-color="rgb(69.313049%, 48.707581%, 90.174866%)" offset="0.472656"/><stop stop-opacity="1" stop-color="rgb(69.593811%, 48.490906%, 90.177917%)" offset="0.476562"/><stop stop-opacity="1" stop-color="rgb(69.874573%, 48.274231%, 90.180969%)" offset="0.480469"/><stop stop-opacity="1" stop-color="rgb(70.15686%, 48.057556%, 90.185547%)" offset="0.484375"/><stop stop-opacity="1" stop-color="rgb(70.437622%, 47.840881%, 90.188599%)" offset="0.488281"/><stop stop-opacity="1" stop-color="rgb(70.718384%, 47.624207%, 90.19165%)" offset="0.492188"/><stop stop-opacity="1" stop-color="rgb(70.999146%, 47.406006%, 90.194702%)" offset="0.496094"/><stop stop-opacity="1" stop-color="rgb(71.281433%, 47.189331%, 90.197754%)" offset="0.5"/><stop stop-opacity="1" stop-color="rgb(71.461487%, 47.062683%, 89.830017%)" offset="0.503906"/><stop stop-opacity="1" stop-color="rgb(71.641541%, 46.937561%, 89.46228%)" offset="0.507812"/><stop stop-opacity="1" stop-color="rgb(71.795654%, 46.835327%, 88.995361%)" offset="0.511719"/><stop stop-opacity="1" stop-color="rgb(71.949768%, 46.734619%, 88.528442%)" offset="0.515625"/><stop stop-opacity="1" stop-color="rgb(72.102356%, 46.632385%, 88.061523%)" offset="0.519531"/><stop stop-opacity="1" stop-color="rgb(72.25647%, 46.530151%, 87.59613%)" offset="0.523438"/><stop stop-opacity="1" stop-color="rgb(72.410583%, 46.427917%, 87.129211%)" offset="0.527344"/><stop stop-opacity="1" stop-color="rgb(72.564697%, 46.327209%, 86.662292%)" offset="0.53125"/><stop stop-opacity="1" stop-color="rgb(72.717285%, 46.224976%, 86.195374%)" offset="0.535156"/><stop stop-opacity="1" stop-color="rgb(72.871399%, 46.122742%, 85.72998%)" offset="0.539062"/><stop stop-opacity="1" stop-color="rgb(73.025513%, 46.020508%, 85.263062%)" offset="0.542969"/><stop stop-opacity="1" stop-color="rgb(73.179626%, 45.9198%, 84.796143%)" offset="0.546875"/><stop stop-opacity="1" stop-color="rgb(73.332214%, 45.817566%, 84.329224%)" offset="0.550781"/><stop stop-opacity="1" stop-color="rgb(73.486328%, 45.715332%, 83.863831%)" offset="0.554688"/><stop stop-opacity="1" stop-color="rgb(73.640442%, 45.613098%, 83.396912%)" offset="0.558594"/><stop stop-opacity="1" stop-color="rgb(73.794556%, 45.51239%, 82.931519%)" offset="0.5625"/><stop stop-opacity="1" stop-color="rgb(73.947144%, 45.410156%, 82.4646%)" offset="0.566406"/><stop stop-opacity="1" stop-color="rgb(74.101257%, 45.307922%, 81.997681%)" offset="0.570312"/><stop stop-opacity="1" stop-color="rgb(74.255371%, 45.205688%, 81.530762%)" offset="0.574219"/><stop stop-opacity="1" stop-color="rgb(74.409485%, 45.10498%, 81.065369%)" offset="0.578125"/><stop stop-opacity="1" stop-color="rgb(74.562073%, 45.002747%, 80.59845%)" offset="0.582031"/><stop stop-opacity="1" stop-color="rgb(74.716187%, 44.900513%, 80.131531%)" offset="0.585938"/><stop stop-opacity="1" stop-color="rgb(74.8703%, 44.798279%, 79.664612%)" offset="0.589844"/><stop stop-opacity="1" stop-color="rgb(75.024414%, 44.697571%, 79.199219%)" offset="0.59375"/><stop stop-opacity="1" stop-color="rgb(75.177002%, 44.595337%, 78.7323%)" offset="0.597656"/><stop stop-opacity="1" stop-color="rgb(75.331116%, 44.493103%, 78.265381%)" offset="0.601562"/><stop stop-opacity="1" stop-color="rgb(75.485229%, 44.390869%, 77.798462%)" offset="0.605469"/><stop stop-opacity="1" stop-color="rgb(75.639343%, 44.288635%, 77.333069%)" offset="0.609375"/><stop stop-opacity="1" stop-color="rgb(75.791931%, 44.186401%, 76.86615%)" offset="0.613281"/><stop stop-opacity="1" stop-color="rgb(75.946045%, 44.085693%, 76.400757%)" offset="0.617188"/><stop stop-opacity="1" stop-color="rgb(76.098633%, 43.983459%, 75.933838%)" offset="0.621094"/><stop stop-opacity="1" stop-color="rgb(76.252747%, 43.881226%, 75.466919%)" offset="0.625"/><stop stop-opacity="1" stop-color="rgb(76.40686%, 43.778992%, 75%)" offset="0.628906"/><stop stop-opacity="1" stop-color="rgb(76.560974%, 43.678284%, 74.534607%)" offset="0.632812"/><stop stop-opacity="1" stop-color="rgb(76.713562%, 43.57605%, 74.067688%)" offset="0.636719"/><stop stop-opacity="1" stop-color="rgb(76.867676%, 43.473816%, 73.600769%)" offset="0.640625"/><stop stop-opacity="1" stop-color="rgb(77.02179%, 43.371582%, 73.13385%)" offset="0.644531"/><stop stop-opacity="1" stop-color="rgb(77.175903%, 43.270874%, 72.668457%)" offset="0.648438"/><stop stop-opacity="1" stop-color="rgb(77.328491%, 43.16864%, 72.201538%)" offset="0.652344"/><stop stop-opacity="1" stop-color="rgb(77.482605%, 43.066406%, 71.734619%)" offset="0.65625"/><stop stop-opacity="1" stop-color="rgb(77.636719%, 42.964172%, 71.2677%)" offset="0.660156"/><stop stop-opacity="1" stop-color="rgb(77.790833%, 42.863464%, 70.802307%)" offset="0.664062"/><stop stop-opacity="1" stop-color="rgb(77.94342%, 42.76123%, 70.335388%)" offset="0.667969"/><stop stop-opacity="1" stop-color="rgb(78.097534%, 42.658997%, 69.869995%)" offset="0.671875"/><stop stop-opacity="1" stop-color="rgb(78.251648%, 42.556763%, 69.403076%)" offset="0.675781"/><stop stop-opacity="1" stop-color="rgb(78.405762%, 42.456055%, 68.936157%)" offset="0.679688"/><stop stop-opacity="1" stop-color="rgb(78.55835%, 42.353821%, 68.469238%)" offset="0.683594"/><stop stop-opacity="1" stop-color="rgb(78.712463%, 42.251587%, 68.003845%)" offset="0.6875"/><stop stop-opacity="1" stop-color="rgb(78.866577%, 42.149353%, 67.536926%)" offset="0.691406"/><stop stop-opacity="1" stop-color="rgb(79.020691%, 42.048645%, 67.070007%)" offset="0.695312"/><stop stop-opacity="1" stop-color="rgb(79.173279%, 41.946411%, 66.603088%)" offset="0.699219"/><stop stop-opacity="1" stop-color="rgb(79.327393%, 41.844177%, 66.137695%)" offset="0.703125"/><stop stop-opacity="1" stop-color="rgb(79.481506%, 41.741943%, 65.670776%)" offset="0.707031"/><stop stop-opacity="1" stop-color="rgb(79.63562%, 41.641235%, 65.203857%)" offset="0.710938"/><stop stop-opacity="1" stop-color="rgb(79.788208%, 41.539001%, 64.736938%)" offset="0.714844"/><stop stop-opacity="1" stop-color="rgb(79.942322%, 41.436768%, 64.271545%)" offset="0.71875"/><stop stop-opacity="1" stop-color="rgb(80.096436%, 41.334534%, 63.804626%)" offset="0.722656"/><stop stop-opacity="1" stop-color="rgb(80.250549%, 41.233826%, 63.339233%)" offset="0.726562"/><stop stop-opacity="1" stop-color="rgb(80.403137%, 41.131592%, 62.872314%)" offset="0.730469"/><stop stop-opacity="1" stop-color="rgb(80.557251%, 41.029358%, 62.405396%)" offset="0.734375"/><stop stop-opacity="1" stop-color="rgb(80.711365%, 40.927124%, 61.938477%)" offset="0.738281"/><stop stop-opacity="1" stop-color="rgb(80.865479%, 40.82489%, 61.473083%)" offset="0.742188"/><stop stop-opacity="1" stop-color="rgb(81.018066%, 40.722656%, 61.006165%)" offset="0.746094"/><stop stop-opacity="1" stop-color="rgb(81.17218%, 40.621948%, 60.539246%)" offset="0.75"/><stop stop-opacity="1" stop-color="rgb(81.324768%, 40.519714%, 60.072327%)" offset="0.753906"/><stop stop-opacity="1" stop-color="rgb(81.478882%, 40.41748%, 59.606934%)" offset="0.757812"/><stop stop-opacity="1" stop-color="rgb(81.632996%, 40.315247%, 59.140015%)" offset="0.761719"/><stop stop-opacity="1" stop-color="rgb(81.787109%, 40.214539%, 58.673096%)" offset="0.765625"/><stop stop-opacity="1" stop-color="rgb(81.939697%, 40.112305%, 58.206177%)" offset="0.769531"/><stop stop-opacity="1" stop-color="rgb(82.093811%, 40.010071%, 57.740784%)" offset="0.773438"/><stop stop-opacity="1" stop-color="rgb(82.247925%, 39.907837%, 57.273865%)" offset="0.777344"/><stop stop-opacity="1" stop-color="rgb(82.402039%, 39.807129%, 56.808472%)" offset="0.78125"/><stop stop-opacity="1" stop-color="rgb(82.554626%, 39.704895%, 56.341553%)" offset="0.785156"/><stop stop-opacity="1" stop-color="rgb(82.70874%, 39.602661%, 55.874634%)" offset="0.789062"/><stop stop-opacity="1" stop-color="rgb(82.862854%, 39.500427%, 55.407715%)" offset="0.792969"/><stop stop-opacity="1" stop-color="rgb(83.016968%, 39.399719%, 54.942322%)" offset="0.796875"/><stop stop-opacity="1" stop-color="rgb(83.169556%, 39.297485%, 54.475403%)" offset="0.800781"/><stop stop-opacity="1" stop-color="rgb(83.323669%, 39.195251%, 54.008484%)" offset="0.804688"/><stop stop-opacity="1" stop-color="rgb(83.477783%, 39.093018%, 53.541565%)" offset="0.808594"/><stop stop-opacity="1" stop-color="rgb(83.631897%, 38.99231%, 53.076172%)" offset="0.8125"/><stop stop-opacity="1" stop-color="rgb(83.784485%, 38.890076%, 52.609253%)" offset="0.816406"/><stop stop-opacity="1" stop-color="rgb(83.938599%, 38.787842%, 52.142334%)" offset="0.820313"/><stop stop-opacity="1" stop-color="rgb(84.092712%, 38.685608%, 51.675415%)" offset="0.824219"/><stop stop-opacity="1" stop-color="rgb(84.246826%, 38.5849%, 51.210022%)" offset="0.828125"/><stop stop-opacity="1" stop-color="rgb(84.399414%, 38.482666%, 50.743103%)" offset="0.832031"/><stop stop-opacity="1" stop-color="rgb(84.553528%, 38.380432%, 50.27771%)" offset="0.835938"/><stop stop-opacity="1" stop-color="rgb(84.707642%, 38.278198%, 49.810791%)" offset="0.839844"/><stop stop-opacity="1" stop-color="rgb(84.861755%, 38.17749%, 49.343872%)" offset="0.84375"/><stop stop-opacity="1" stop-color="rgb(85.014343%, 38.075256%, 48.876953%)" offset="0.847656"/><stop stop-opacity="1" stop-color="rgb(85.168457%, 37.973022%, 48.41156%)" offset="0.851562"/><stop stop-opacity="1" stop-color="rgb(85.322571%, 37.870789%, 47.944641%)" offset="0.855469"/><stop stop-opacity="1" stop-color="rgb(85.476685%, 37.770081%, 47.477722%)" offset="0.859375"/><stop stop-opacity="1" stop-color="rgb(85.629272%, 37.667847%, 47.010803%)" offset="0.863281"/><stop stop-opacity="1" stop-color="rgb(85.783386%, 37.565613%, 46.54541%)" offset="0.867188"/><stop stop-opacity="1" stop-color="rgb(85.935974%, 37.463379%, 46.078491%)" offset="0.871094"/><stop stop-opacity="1" stop-color="rgb(86.090088%, 37.361145%, 45.611572%)" offset="0.875"/><stop stop-opacity="1" stop-color="rgb(86.244202%, 37.258911%, 45.144653%)" offset="0.878906"/><stop stop-opacity="1" stop-color="rgb(86.398315%, 37.158203%, 44.67926%)" offset="0.882812"/><stop stop-opacity="1" stop-color="rgb(86.550903%, 37.055969%, 44.212341%)" offset="0.886719"/><stop stop-opacity="1" stop-color="rgb(86.705017%, 36.953735%, 43.746948%)" offset="0.890625"/><stop stop-opacity="1" stop-color="rgb(86.859131%, 36.851501%, 43.280029%)" offset="0.894531"/><stop stop-opacity="1" stop-color="rgb(87.013245%, 36.750793%, 42.81311%)" offset="0.898438"/><stop stop-opacity="1" stop-color="rgb(87.165833%, 36.64856%, 42.346191%)" offset="0.902344"/><stop stop-opacity="1" stop-color="rgb(87.319946%, 36.546326%, 41.880798%)" offset="0.90625"/><stop stop-opacity="1" stop-color="rgb(87.47406%, 36.444092%, 41.413879%)" offset="0.910156"/><stop stop-opacity="1" stop-color="rgb(87.628174%, 36.343384%, 40.94696%)" offset="0.914063"/><stop stop-opacity="1" stop-color="rgb(87.780762%, 36.24115%, 40.480042%)" offset="0.917969"/><stop stop-opacity="1" stop-color="rgb(87.934875%, 36.138916%, 40.014648%)" offset="0.921875"/><stop stop-opacity="1" stop-color="rgb(88.088989%, 36.036682%, 39.547729%)" offset="0.925781"/><stop stop-opacity="1" stop-color="rgb(88.243103%, 35.935974%, 39.080811%)" offset="0.929688"/><stop stop-opacity="1" stop-color="rgb(88.395691%, 35.83374%, 38.613892%)" offset="0.933594"/><stop stop-opacity="1" stop-color="rgb(88.549805%, 35.731506%, 38.148499%)" offset="0.9375"/><stop stop-opacity="1" stop-color="rgb(88.574219%, 35.714722%, 38.07373%)" offset="1"/></linearGradient></defs><g clip-path="url(#b78fba0934)"><g clip-path="url(#11eee06144)"><path fill="url(#78649560a9)" d="M 72.359375 64.136719 L 72.359375 310.71875 L 302.609375 310.71875 L 302.609375 64.136719 Z M 72.359375 64.136719 " fill-rule="nonzero"/></g></g></svg>