<?xml version="1.0" encoding="UTF-8"?>
<svg xmlns="http://www.w3.org/2000/svg" xmlns:xlink="http://www.w3.org/1999/xlink" width="px" height="512px" viewBox="0 0 909 512" version="1.1">
<g id="surface1">
<path style=" stroke:none;fill-rule:nonzero;fill:rgb(0%,0%,0%);fill-opacity:1;" d="M 431.773438 60.664062 C 405.109375 63.695312 389.050781 68.851562 363.296875 82.199219 C 318.757812 105.554688 283.609375 146.804688 267.851562 195.03125 C 260.578125 216.570312 259.367188 224.757812 259.367188 256.304688 C 259.367188 287.847656 260.578125 296.039062 267.851562 317.574219 C 283.609375 365.800781 318.757812 407.050781 363.296875 430.40625 C 394.203125 446.484375 419.351562 452.550781 454.5 452.550781 C 489.648438 452.550781 514.796875 446.484375 545.703125 430.40625 C 590.242188 407.050781 625.390625 365.800781 641.148438 317.574219 C 648.421875 296.039062 649.632812 287.847656 649.632812 256.304688 C 649.632812 224.757812 648.421875 216.570312 641.148438 195.03125 C 612.058594 106.769531 523.886719 50.046875 431.773438 60.664062 Z M 512.675781 85.839844 C 542.371094 96.757812 564.792969 111.015625 584.789062 132.246094 C 617.816406 167.734375 633.574219 206.558594 633.875 253.269531 C 634.480469 302.710938 618.726562 343.355469 586.003906 378.539062 C 565.398438 400.984375 543.582031 415.546875 512.675781 427.070312 C 494.800781 434.046875 487.828125 434.957031 454.5 434.957031 C 421.171875 434.957031 414.199219 434.046875 396.324219 427.070312 C 365.417969 415.546875 343.601562 400.984375 322.996094 378.539062 C 290.273438 343.355469 274.519531 302.710938 275.125 253.269531 C 275.730469 168.949219 335.421875 97.0625 419.65625 78.863281 C 442.078125 73.707031 490.253906 77.347656 512.675781 85.839844 Z M 512.675781 85.839844 "/>
<path style=" stroke:none;fill-rule:nonzero;fill:rgb(0%,0%,0%);fill-opacity:1;" d="M 449.652344 88.871094 C 446.621094 97.363281 449.652344 113.742188 454.5 113.742188 C 457.832031 113.742188 459.046875 110.105469 459.046875 100.398438 C 459.046875 87.050781 453.289062 79.773438 449.652344 88.871094 Z M 449.652344 88.871094 "/>
<path style=" stroke:none;fill-rule:nonzero;fill:rgb(0%,0%,0%);fill-opacity:1;" d="M 366.628906 112.835938 C 366.628906 121.023438 378.445312 136.492188 383.296875 134.671875 C 389.050781 132.246094 389.050781 130.125 382.6875 118.597656 C 377.234375 109.496094 366.628906 105.554688 366.628906 112.835938 Z M 366.628906 112.835938 "/>
<path style=" stroke:none;fill-rule:nonzero;fill:rgb(0%,0%,0%);fill-opacity:1;" d="M 526.613281 118.597656 C 519.949219 130.125 519.949219 132.246094 525.703125 134.671875 C 530.554688 136.492188 542.371094 121.023438 542.371094 112.835938 C 542.371094 105.554688 531.765625 109.496094 526.613281 118.597656 Z M 526.613281 118.597656 "/>
<path style=" stroke:none;fill-rule:nonzero;fill:rgb(0%,0%,0%);fill-opacity:1;" d="M 309.96875 168.949219 C 303.304688 171.375 305.726562 177.441406 314.816406 182.902344 C 325.726562 189.269531 334.210938 189.574219 332.695312 183.507812 C 331.480469 177.441406 314.816406 167.128906 309.96875 168.949219 Z M 309.96875 168.949219 "/>
<path style=" stroke:none;fill-rule:nonzero;fill:rgb(0%,0%,0%);fill-opacity:1;" d="M 585.394531 173.496094 C 575.09375 179.867188 572.367188 188.058594 580.546875 188.058594 C 587.515625 188.058594 602.96875 178.351562 602.96875 174.105469 C 602.96875 167.429688 595.09375 167.429688 585.394531 173.496094 Z M 585.394531 173.496094 "/>
<path style=" stroke:none;fill-rule:nonzero;fill:rgb(0%,0%,0%);fill-opacity:1;" d="M 400.867188 196.246094 C 391.777344 199.582031 397.535156 211.414062 416.929688 230.519531 C 448.136719 261.460938 447.53125 259.640625 435.410156 323.335938 C 426.320312 370.046875 425.410156 378.238281 429.046875 382.179688 C 431.773438 384.910156 434.199219 385.515625 436.015625 383.695312 C 437.230469 381.875 442.984375 356.09375 448.441406 326.066406 C 455.710938 285.421875 459.652344 269.953125 463.894531 266.007812 C 467.226562 262.976562 469.648438 258.730469 469.648438 256.304688 C 469.648438 251.148438 461.46875 242.652344 456.015625 242.652344 C 453.589844 242.652344 442.683594 232.339844 431.472656 219.90625 C 409.960938 196.550781 406.929688 194.125 400.867188 196.246094 Z M 400.867188 196.246094 "/>
<path style=" stroke:none;fill-rule:nonzero;fill:rgb(0%,0%,0%);fill-opacity:1;" d="M 286.03125 253.269531 C 283.304688 260.246094 287.546875 263.886719 298.152344 263.886719 C 309.96875 263.886719 316.9375 257.820312 311.484375 252.359375 C 306.332031 247.203125 288.152344 247.808594 286.03125 253.269531 Z M 286.03125 253.269531 "/>
<path style=" stroke:none;fill-rule:nonzero;fill:rgb(0%,0%,0%);fill-opacity:1;" d="M 597.515625 252.664062 C 592.0625 259.03125 600.242188 264.492188 612.664062 263.28125 C 620.242188 262.671875 622.664062 260.851562 622.664062 256.304688 C 622.664062 251.449219 620.242188 249.933594 611.757812 249.328125 C 605.089844 248.71875 599.636719 249.933594 597.515625 252.664062 Z M 597.515625 252.664062 "/>
<path style=" stroke:none;fill-rule:nonzero;fill:rgb(0%,0%,0%);fill-opacity:1;" d="M 314.515625 330.007812 C 305.425781 335.46875 303.605469 341.230469 309.96875 343.660156 C 315.421875 345.78125 333.300781 334.257812 333.300781 328.796875 C 333.300781 323.03125 324.511719 323.640625 314.515625 330.007812 Z M 314.515625 330.007812 "/>
<path style=" stroke:none;fill-rule:nonzero;fill:rgb(0%,0%,0%);fill-opacity:1;" d="M 575.699219 328.796875 C 575.699219 334.257812 593.578125 345.78125 599.03125 343.660156 C 605.394531 341.230469 603.574219 335.164062 594.183594 329.707031 C 583.578125 323.335938 575.699219 323.03125 575.699219 328.796875 Z M 575.699219 328.796875 "/>
<path style=" stroke:none;fill-rule:nonzero;fill:rgb(0%,0%,0%);fill-opacity:1;" d="M 372.691406 386.125 C 369.355469 391.28125 366.628906 397.648438 366.628906 399.46875 C 366.628906 407.050781 377.234375 403.109375 382.6875 394.007812 C 389.050781 382.484375 389.050781 380.359375 383.296875 377.933594 C 380.265625 376.71875 376.628906 379.449219 372.691406 386.125 Z M 372.691406 386.125 "/>
<path style=" stroke:none;fill-rule:nonzero;fill:rgb(0%,0%,0%);fill-opacity:1;" d="M 524.492188 378.84375 C 520.554688 381.269531 520.855469 383.394531 525.703125 392.492188 C 531.460938 403.109375 542.371094 407.660156 542.371094 399.46875 C 542.371094 396.132812 531.460938 376.113281 529.644531 376.113281 C 529.039062 376.113281 526.613281 377.328125 524.492188 378.84375 Z M 524.492188 378.84375 "/>
<path style=" stroke:none;fill-rule:nonzero;fill:rgb(0%,0%,0%);fill-opacity:1;" d="M 449.652344 401.289062 C 446.621094 409.78125 449.652344 426.160156 454.5 426.160156 C 457.832031 426.160156 459.046875 422.519531 459.046875 412.816406 C 459.046875 399.46875 453.289062 392.191406 449.652344 401.289062 Z M 449.652344 401.289062 "/>
</g>
</svg>
