<?xml version="1.0" encoding="UTF-8"?>
<svg xmlns="http://www.w3.org/2000/svg" xmlns:xlink="http://www.w3.org/1999/xlink" width="px" height="512px" viewBox="0 0 512 512" version="1.1">
<g id="surface1">
<path style=" stroke:none;fill-rule:evenodd;fill:rgb(30.588235%,27.058824%,45.490196%);fill-opacity:1;" d="M 283.5 67.101562 C 262.894531 72.875 258.992188 74.667969 259.003906 78.359375 C 259.007812 79.808594 280.261719 116.527344 282.578125 119.085938 C 284.984375 121.742188 289.589844 121.566406 291.402344 118.75 C 292.195312 117.511719 294.503906 112.339844 296.527344 107.25 C 298.554688 102.160156 300.351562 98 300.523438 98 C 302.15625 98 320.441406 105.125 327.652344 108.566406 C 359.359375 123.714844 388.527344 153.089844 403.941406 185.394531 C 425.257812 230.066406 425.257812 281.933594 403.941406 326.605469 C 395.796875 343.679688 386.269531 356.898438 371.578125 371.515625 C 351.429688 391.570312 331.863281 403.632812 305.71875 412.128906 C 291.660156 416.695312 289.796875 418.269531 292.195312 423.527344 C 293.914062 427.308594 297.066406 427.523438 306.765625 424.53125 C 334.140625 416.085938 357.355469 402.371094 377.871094 382.53125 C 405.878906 355.445312 422.402344 324.554688 429.679688 285.695312 C 432.089844 272.808594 432.089844 239.191406 429.679688 226.304688 C 422.402344 187.445312 405.878906 156.554688 377.871094 129.46875 C 358.476562 110.714844 336.34375 97.1875 311.75 89.066406 C 308.039062 87.839844 305 86.683594 305 86.496094 C 305 86.3125 306.574219 82.425781 308.5 77.859375 C 310.425781 73.296875 312 68.335938 312 66.835938 C 312 63.976562 308.804688 60.910156 306.027344 61.109375 C 305.1875 61.167969 295.050781 63.863281 283.5 67.101562 M 284 79.65625 C 279.324219 81.042969 275.367188 82.308594 275.203125 82.464844 C 275.042969 82.625 277.378906 86.960938 280.398438 92.09375 C 285.535156 100.84375 285.945312 101.277344 286.828125 98.96875 C 287.347656 97.609375 289.398438 92.476562 291.386719 87.554688 C 293.375 82.636719 295 78.25 295 77.804688 C 295 76.609375 293.351562 76.886719 284 79.65625 M 201 88.910156 C 172.457031 98.550781 150.695312 112.246094 129.9375 133.644531 C 103.632812 160.753906 88.609375 190.53125 81.824219 229 C 80.09375 238.816406 80.105469 273 81.84375 283 C 88.75 322.738281 105.550781 354.878906 133.625 382.058594 C 153.28125 401.089844 175.734375 414.859375 200.316406 422.960938 C 205.171875 424.5625 206.980469 425.605469 206.601562 426.59375 C 203.835938 433.804688 200.9375 445.613281 201.441406 447.621094 C 202.753906 452.851562 205.429688 452.53125 228.261719 444.378906 C 249.007812 436.972656 253 434.832031 253 431.105469 C 253 428.300781 227.246094 391.605469 224.5625 390.585938 C 220.058594 388.871094 217.75 391.675781 214.109375 403.300781 L 210.816406 413.816406 L 204.144531 411.550781 C 162.445312 397.367188 126.773438 365.832031 108.058594 326.605469 C 78.878906 265.449219 90.410156 192.222656 136.847656 143.777344 C 157.816406 121.902344 180.480469 107.8125 208.910156 98.980469 C 217.386719 96.347656 219.28125 95.386719 220.0625 93.339844 C 220.691406 91.683594 220.621094 90.148438 219.851562 88.683594 C 217.34375 83.921875 215.722656 83.941406 201 88.910156 M 241 121.460938 C 240.175781 121.65625 236.125 122.363281 232 123.027344 C 227.875 123.691406 219.964844 125.714844 214.425781 127.519531 C 168.285156 142.550781 133.867188 180.914062 123.378906 229 C 120.746094 241.0625 120.746094 270.9375 123.378906 283 C 133.40625 328.972656 165.480469 366.34375 208.957031 382.707031 C 212.507812 384.042969 220.15625 386.328125 225.957031 387.789062 C 235.492188 390.183594 238.316406 390.441406 255.5 390.464844 C 270.394531 390.484375 276.335938 390.089844 283 388.628906 C 336.359375 376.941406 377.050781 336.246094 388.613281 283 C 390.941406 272.273438 391.238281 242.234375 389.117188 231.5 C 378.433594 177.355469 337.601562 135.59375 283.5 123.472656 C 277.121094 122.042969 244.925781 120.519531 241 121.460938 M 243 133.460938 C 242.175781 133.65625 238.125 134.367188 234 135.035156 C 191.359375 141.933594 152.78125 175.535156 139.136719 217.65625 C 134.597656 231.679688 133.5 239.132812 133.5 256 C 133.5 265.183594 134.066406 274.351562 134.886719 278.5 C 144.804688 328.558594 183.441406 367.195312 233.5 377.113281 C 237.648438 377.933594 246.816406 378.5 256 378.5 C 265.183594 378.5 274.351562 377.933594 278.5 377.113281 C 325.710938 367.761719 362.964844 332.835938 375.179688 286.46875 C 378.152344 275.191406 378.335938 273.460938 378.355469 256.5 C 378.386719 232.542969 375.269531 219.023438 365.246094 199.613281 C 348.289062 166.785156 317.628906 143.457031 280.839844 135.402344 C 274.214844 133.953125 246.820312 132.546875 243 133.460938 M 244.246094 150.101562 C 186.542969 156.816406 144.617188 208.230469 150.058594 265.617188 C 155.652344 324.695312 207.96875 367.886719 266.652344 361.882812 C 317.171875 356.714844 357.160156 316.433594 361.914062 265.917969 C 367.464844 206.917969 324.265625 155.355469 264.789062 149.996094 C 253.269531 148.957031 254.148438 148.953125 244.246094 150.101562 M 237 163.425781 C 198.640625 171.941406 169.785156 201.640625 163.003906 239.59375 C 161.359375 248.792969 162.1875 271.316406 164.492188 280 C 166.710938 288.363281 173.902344 303.71875 178.699219 310.335938 C 202.199219 342.734375 242.679688 357.449219 280.5 347.339844 C 287.882812 345.363281 303.257812 338.296875 309.484375 334.011719 C 321.523438 325.730469 333.644531 311.742188 340.265625 298.5 C 368.15625 242.695312 336.011719 176.5 274.683594 163.449219 C 266.449219 161.699219 244.847656 161.683594 237 163.425781 M 251.558594 186.222656 C 250.257812 188.078125 250 192.261719 250 211.601562 L 250 234.757812 L 247.023438 235.988281 C 243.597656 237.410156 236.550781 244.695312 235.546875 247.855469 C 234.890625 249.925781 234.332031 250 219.589844 250 C 206.058594 250 204.121094 250.210938 202.65625 251.828125 C 200.46875 254.242188 200.550781 258.285156 202.828125 260.34375 C 204.359375 261.730469 207.105469 262 219.707031 262 L 234.757812 262 L 235.941406 264.859375 C 238.679688 271.472656 248.644531 278 256 278 C 266.984375 278 278 266.960938 278 255.949219 C 278 248.644531 271.449219 238.671875 264.859375 235.941406 L 262 234.757812 L 262 211.601562 C 262 185.882812 261.589844 184 256 184 C 254.152344 184 252.554688 184.800781 251.558594 186.222656 M 252.214844 247.507812 C 250.070312 248.4375 248.410156 250.167969 247.449219 252.46875 C 245.382812 257.417969 247.476562 262.464844 252.464844 264.550781 C 255.582031 265.851562 256.417969 265.851562 259.535156 264.550781 C 267.261719 261.320312 267.28125 250.6875 259.566406 247.464844 C 255.449219 245.742188 256.28125 245.738281 252.214844 247.507812 M 220.753906 422.707031 C 218.753906 429.167969 217.285156 434.617188 217.484375 434.820312 C 217.90625 435.242188 235.148438 429.078125 236.199219 428.128906 C 236.902344 427.496094 226.601562 411.738281 225.152344 411.230469 C 224.730469 411.082031 222.75 416.246094 220.753906 422.707031 "/>
<path style=" stroke:none;fill-rule:evenodd;fill:rgb(91.372549%,81.960784%,70.196078%);fill-opacity:1;" d="M 230.597656 50.140625 C 144.621094 61.171875 74.980469 123.375 54.425781 207.5 C 47.132812 237.355469 47.132812 274.644531 54.425781 304.5 C 71.183594 373.09375 121.285156 428.511719 187.40625 451.605469 C 210.035156 459.507812 231.007812 463 255.828125 463 C 279.984375 463 298.5625 460.109375 320.5 452.941406 C 397.316406 427.839844 451.933594 361.070312 461.953125 280.027344 C 463.464844 267.796875 463.238281 241.917969 461.507812 228.800781 C 453.289062 166.539062 417.03125 111.179688 363 78.40625 C 339.21875 63.980469 311.238281 54.191406 283.199219 50.492188 C 270.871094 48.863281 242.035156 48.671875 230.597656 50.140625 M 283.5 67.101562 C 262.894531 72.875 258.992188 74.667969 259.003906 78.359375 C 259.007812 79.808594 280.261719 116.527344 282.578125 119.085938 C 284.984375 121.742188 289.589844 121.566406 291.402344 118.75 C 292.195312 117.511719 294.503906 112.339844 296.527344 107.25 C 298.554688 102.160156 300.351562 98 300.523438 98 C 302.15625 98 320.441406 105.125 327.652344 108.566406 C 359.359375 123.714844 388.527344 153.089844 403.941406 185.394531 C 425.257812 230.066406 425.257812 281.933594 403.941406 326.605469 C 395.796875 343.679688 386.269531 356.898438 371.578125 371.515625 C 351.429688 391.570312 331.863281 403.632812 305.71875 412.128906 C 291.660156 416.695312 289.796875 418.269531 292.195312 423.527344 C 293.914062 427.308594 297.066406 427.523438 306.765625 424.53125 C 334.140625 416.085938 357.355469 402.371094 377.871094 382.53125 C 405.878906 355.445312 422.402344 324.554688 429.679688 285.695312 C 432.089844 272.808594 432.089844 239.191406 429.679688 226.304688 C 422.402344 187.445312 405.878906 156.554688 377.871094 129.46875 C 358.476562 110.714844 336.34375 97.1875 311.75 89.066406 C 308.039062 87.839844 305 86.683594 305 86.496094 C 305 86.3125 306.574219 82.425781 308.5 77.859375 C 310.425781 73.296875 312 68.335938 312 66.835938 C 312 63.976562 308.804688 60.910156 306.027344 61.109375 C 305.1875 61.167969 295.050781 63.863281 283.5 67.101562 M 284 79.65625 C 279.324219 81.042969 275.367188 82.308594 275.203125 82.464844 C 275.042969 82.625 277.378906 86.960938 280.398438 92.09375 C 285.535156 100.84375 285.945312 101.277344 286.828125 98.96875 C 287.347656 97.609375 289.398438 92.476562 291.386719 87.554688 C 293.375 82.636719 295 78.25 295 77.804688 C 295 76.609375 293.351562 76.886719 284 79.65625 M 201 88.910156 C 172.457031 98.550781 150.695312 112.246094 129.9375 133.644531 C 103.632812 160.753906 88.609375 190.53125 81.824219 229 C 80.09375 238.816406 80.105469 273 81.84375 283 C 88.75 322.738281 105.550781 354.878906 133.625 382.058594 C 153.28125 401.089844 175.734375 414.859375 200.316406 422.960938 C 205.171875 424.5625 206.980469 425.605469 206.601562 426.59375 C 203.835938 433.804688 200.9375 445.613281 201.441406 447.621094 C 202.753906 452.851562 205.429688 452.53125 228.261719 444.378906 C 249.007812 436.972656 253 434.832031 253 431.105469 C 253 428.300781 227.246094 391.605469 224.5625 390.585938 C 220.058594 388.871094 217.75 391.675781 214.109375 403.300781 L 210.816406 413.816406 L 204.144531 411.550781 C 162.445312 397.367188 126.773438 365.832031 108.058594 326.605469 C 78.878906 265.449219 90.410156 192.222656 136.847656 143.777344 C 157.816406 121.902344 180.480469 107.8125 208.910156 98.980469 C 217.386719 96.347656 219.28125 95.386719 220.0625 93.339844 C 220.691406 91.683594 220.621094 90.148438 219.851562 88.683594 C 217.34375 83.921875 215.722656 83.941406 201 88.910156 M 241 121.460938 C 240.175781 121.65625 236.125 122.363281 232 123.027344 C 227.875 123.691406 219.964844 125.714844 214.425781 127.519531 C 168.285156 142.550781 133.867188 180.914062 123.378906 229 C 120.746094 241.0625 120.746094 270.9375 123.378906 283 C 133.40625 328.972656 165.480469 366.34375 208.957031 382.707031 C 212.507812 384.042969 220.15625 386.328125 225.957031 387.789062 C 235.492188 390.183594 238.316406 390.441406 255.5 390.464844 C 270.394531 390.484375 276.335938 390.089844 283 388.628906 C 336.359375 376.941406 377.050781 336.246094 388.613281 283 C 390.941406 272.273438 391.238281 242.234375 389.117188 231.5 C 378.433594 177.355469 337.601562 135.59375 283.5 123.472656 C 277.121094 122.042969 244.925781 120.519531 241 121.460938 M 243 133.460938 C 242.175781 133.65625 238.125 134.367188 234 135.035156 C 191.359375 141.933594 152.78125 175.535156 139.136719 217.65625 C 134.597656 231.679688 133.5 239.132812 133.5 256 C 133.5 265.183594 134.066406 274.351562 134.886719 278.5 C 144.804688 328.558594 183.441406 367.195312 233.5 377.113281 C 237.648438 377.933594 246.816406 378.5 256 378.5 C 265.183594 378.5 274.351562 377.933594 278.5 377.113281 C 325.710938 367.761719 362.964844 332.835938 375.179688 286.46875 C 378.152344 275.191406 378.335938 273.460938 378.355469 256.5 C 378.386719 232.542969 375.269531 219.023438 365.246094 199.613281 C 348.289062 166.785156 317.628906 143.457031 280.839844 135.402344 C 274.214844 133.953125 246.820312 132.546875 243 133.460938 M 244.246094 150.101562 C 186.542969 156.816406 144.617188 208.230469 150.058594 265.617188 C 155.652344 324.695312 207.96875 367.886719 266.652344 361.882812 C 317.171875 356.714844 357.160156 316.433594 361.914062 265.917969 C 367.464844 206.917969 324.265625 155.355469 264.789062 149.996094 C 253.269531 148.957031 254.148438 148.953125 244.246094 150.101562 M 237 163.425781 C 198.640625 171.941406 169.785156 201.640625 163.003906 239.59375 C 161.359375 248.792969 162.1875 271.316406 164.492188 280 C 166.710938 288.363281 173.902344 303.71875 178.699219 310.335938 C 202.199219 342.734375 242.679688 357.449219 280.5 347.339844 C 287.882812 345.363281 303.257812 338.296875 309.484375 334.011719 C 321.523438 325.730469 333.644531 311.742188 340.265625 298.5 C 368.15625 242.695312 336.011719 176.5 274.683594 163.449219 C 266.449219 161.699219 244.847656 161.683594 237 163.425781 M 251.558594 186.222656 C 250.257812 188.078125 250 192.261719 250 211.601562 L 250 234.757812 L 247.023438 235.988281 C 243.597656 237.410156 236.550781 244.695312 235.546875 247.855469 C 234.890625 249.925781 234.332031 250 219.589844 250 C 206.058594 250 204.121094 250.210938 202.65625 251.828125 C 200.46875 254.242188 200.550781 258.285156 202.828125 260.34375 C 204.359375 261.730469 207.105469 262 219.707031 262 L 234.757812 262 L 235.941406 264.859375 C 238.679688 271.472656 248.644531 278 256 278 C 266.984375 278 278 266.960938 278 255.949219 C 278 248.644531 271.449219 238.671875 264.859375 235.941406 L 262 234.757812 L 262 211.601562 C 262 185.882812 261.589844 184 256 184 C 254.152344 184 252.554688 184.800781 251.558594 186.222656 M 252.214844 247.507812 C 250.070312 248.4375 248.410156 250.167969 247.449219 252.46875 C 245.382812 257.417969 247.476562 262.464844 252.464844 264.550781 C 255.582031 265.851562 256.417969 265.851562 259.535156 264.550781 C 267.261719 261.320312 267.28125 250.6875 259.566406 247.464844 C 255.449219 245.742188 256.28125 245.738281 252.214844 247.507812 M 220.753906 422.707031 C 218.753906 429.167969 217.285156 434.617188 217.484375 434.820312 C 217.90625 435.242188 235.148438 429.078125 236.199219 428.128906 C 236.902344 427.496094 226.601562 411.738281 225.152344 411.230469 C 224.730469 411.082031 222.75 416.246094 220.753906 422.707031 "/>
</g>
</svg>
