<svg xmlns="http://www.w3.org/2000/svg" width="846" height="846" viewBox="0 0 846 846" version="1.1"><path d="M 386.500 1.111 C 300.816 9.110, 223.794 40.290, 156 94.421 C 139.934 107.249, 107.249 139.934, 94.421 156 C 48.612 213.372, 19.412 276.886, 6.611 347 C 1.315 376.009, 0.501 386.133, 0.501 423 C 0.501 459.867, 1.315 469.991, 6.611 499 C 30.293 628.712, 113.200 740.172, 230.500 799.993 C 279.978 825.227, 333.558 840.398, 389.716 845.074 C 410.593 846.812, 456.167 845.746, 476 843.055 C 556.852 832.085, 626.413 802.350, 690 751.579 C 706.066 738.751, 738.751 706.066, 751.579 690 C 795.807 634.608, 824.487 573.673, 837.946 506.500 C 841.169 490.416, 845 462.727, 845 455.521 C 845 453.099, 845.450 450.840, 846 450.500 C 846.628 450.112, 847 439.470, 847 421.882 C 847 406.482, 846.613 394.121, 846.141 394.413 C 845.669 394.705, 844.972 390.449, 844.594 384.956 C 843.241 365.306, 837.137 331.794, 830.856 309.535 C 801.512 205.533, 735.550 118.168, 643.857 61.859 C 589.348 28.385, 527.339 7.790, 462.089 1.488 C 445.387 -0.125, 402.050 -0.341, 386.500 1.111 M 414.500 40.451 C 409.395 42.290, 402.703 49.580, 400.466 55.739 C 399.294 58.964, 398.581 64.737, 398.255 73.634 L 397.775 86.768 366.138 112.280 C 348.737 126.311, 333.246 139.118, 331.712 140.740 C 330.179 142.361, 328.661 145.312, 328.339 147.298 C 327.837 150.394, 328.187 151.340, 330.800 153.954 C 332.565 155.718, 334.894 157, 336.338 157 C 337.708 157, 347.080 154.034, 357.165 150.408 C 379.404 142.413, 397.797 136, 398.489 136 C 398.770 136, 399 146.287, 399 158.861 L 399 181.721 390.162 187.887 C 377.428 196.770, 375.941 198.557, 375.288 205.756 C 374.950 209.492, 375.148 211.973, 375.817 212.387 C 376.674 212.917, 390.881 210.182, 411.750 205.470 C 413.960 204.971, 414 205.128, 414 214.416 C 414 219.616, 414.429 224.999, 414.954 226.379 C 416.256 229.803, 420.731 232.080, 423.595 230.775 C 426.953 229.245, 427.854 226.335, 428.237 215.789 C 428.430 210.448, 428.819 205.848, 429.100 205.567 C 429.381 205.286, 436.111 206.427, 444.055 208.102 C 452 209.777, 460.188 211.399, 462.250 211.706 L 466 212.263 466 206.582 C 466 203.457, 465.347 199.638, 464.549 198.095 C 463.751 196.552, 458.576 191.823, 453.049 187.587 L 443 179.884 443 156.883 C 443 144.232, 443.337 134.088, 443.750 134.339 C 445.917 135.660, 504.918 157, 506.403 157 C 509.238 157, 514.005 151.532, 513.965 148.327 C 513.896 142.880, 514.478 143.424, 467.636 104.981 C 457.260 96.467, 447.698 88.675, 446.386 87.667 C 444.326 86.083, 444 84.988, 444 79.640 C 444 66.618, 442.155 56.882, 438.573 51 C 432.640 41.258, 423.444 37.228, 414.500 40.451 M 413.952 56.253 C 410.084 58.860, 406.542 64.364, 407.360 66.496 C 407.839 67.745, 408.608 67.668, 412.544 65.981 C 418.171 63.569, 423.040 63.468, 428.739 65.644 C 431.107 66.549, 433.314 67.020, 433.642 66.691 C 434.894 65.439, 432.749 60.549, 429.541 57.341 C 426.754 54.554, 425.462 54, 421.748 54 C 418.785 54, 416.177 54.754, 413.952 56.253 M 281.844 61.460 C 273.767 66.948, 274.124 80.823, 282.474 85.984 C 289.276 90.188, 298.532 87.377, 302.248 79.980 C 308.789 66.962, 293.787 53.345, 281.844 61.460 M 545.290 60.965 C 541.545 63.248, 538 69.592, 538 74.010 C 538 78.039, 540.170 82.124, 544.041 85.381 C 550.216 90.577, 561.470 87.906, 564.560 80.510 C 570.140 67.156, 556.998 53.826, 545.290 60.965 M 339.229 61.669 C 338.530 61.951, 337.257 63.536, 336.400 65.193 C 335.142 67.627, 335.066 68.746, 336.007 71.017 C 338.271 76.482, 345.280 77.083, 347.977 72.043 C 351.388 65.669, 345.790 59.030, 339.229 61.669 M 494.223 62.557 C 491.408 64.528, 491.125 70.921, 493.750 73.227 C 496.982 76.064, 499.621 76.236, 502.364 73.786 C 506.270 70.299, 506.727 66.636, 503.641 63.550 C 500.734 60.643, 497.450 60.296, 494.223 62.557 M 228.975 91.565 C 228.439 92.976, 228 95.845, 228 97.941 L 228 101.752 222.350 102.221 C 217.105 102.656, 214 104.478, 214 107.120 C 214 109.401, 217.532 111, 222.571 111 L 228 111 228 116.429 C 228 122.144, 229.623 125, 232.871 125 C 235.879 125, 237 122.773, 237 116.800 L 237 111 243.021 111 C 248.455 111, 249.153 110.759, 250.168 108.530 C 251.964 104.588, 249.870 103, 242.878 103 L 237 103 237 97.200 C 237 90.922, 235.893 89, 232.275 89 C 230.700 89, 229.636 89.827, 228.975 91.565 M 608.714 89.619 C 608.321 90.012, 608 92.958, 608 96.167 L 608 102 602.500 102 C 598.269 102, 596.522 102.478, 594.927 104.073 C 593.062 105.938, 592.999 106.366, 594.293 108.323 C 595.467 110.097, 596.869 110.555, 601.867 110.798 L 608 111.095 608 117.529 C 608 123.566, 608.155 124.001, 610.513 124.593 C 614.534 125.602, 616 123.540, 616 116.878 L 616 111 621.429 111 C 629.182 111, 631.999 107.999, 628 104 C 626.538 102.538, 624.667 102, 621.048 102 L 616.095 102 615.798 95.750 C 615.505 89.597, 615.453 89.495, 612.464 89.203 C 610.794 89.039, 609.107 89.227, 608.714 89.619 M 290.459 110.880 C 285.645 113.066, 281 118.253, 281 121.443 C 281 122.702, 286.063 134.107, 292.250 146.786 L 303.500 169.840 311.500 166.799 C 315.900 165.126, 320.091 163.205, 320.814 162.529 C 321.892 161.522, 321.286 158.755, 317.449 147.163 C 314.597 138.545, 312.364 133.275, 311.730 133.667 C 311.120 134.044, 310.992 133.823, 311.420 133.130 C 312.328 131.661, 307.319 116.162, 305.123 113.648 C 303.086 111.316, 298.656 108.993, 296.300 109.022 C 295.310 109.034, 292.681 109.870, 290.459 110.880 M 540.483 110.487 C 538.824 111.332, 536.863 112.990, 536.126 114.170 C 535.389 115.350, 531.271 126.530, 526.974 139.013 L 519.162 161.710 528.630 165.750 L 538.097 169.789 549.048 147.903 C 560.528 124.962, 561.734 120.920, 558.482 116.278 C 554.385 110.428, 545.935 107.710, 540.483 110.487 M 175.174 122.314 C 172.290 125.385, 172.403 129.493, 175.455 132.545 C 178.312 135.403, 179.114 135.509, 182.928 133.537 C 187.811 131.012, 188.521 125.342, 184.365 122.073 C 180.927 119.368, 177.867 119.448, 175.174 122.314 M 241.500 141.882 C 237.808 143.579, 218.800 160.233, 209.547 169.879 C 205.743 173.845, 203.149 174.762, 199.596 173.399 C 198.201 172.863, 198.192 172.564, 199.514 170.676 C 201.815 167.391, 201.388 163.300, 198.549 161.440 C 195.220 159.259, 192.712 160.267, 188.279 165.570 C 186.111 168.164, 183.939 169.837, 183.038 169.607 C 171.466 166.649, 171.818 166.816, 173.974 165.306 C 176.393 163.612, 176.586 160.282, 174.443 157.223 C 172.045 153.798, 168.944 154.515, 162.917 159.886 L 157.435 164.772 142.568 161.366 C 134.391 159.493, 126.958 158.196, 126.050 158.484 C 122.956 159.466, 110.441 171.755, 111.500 172.772 C 112.050 173.300, 119.700 176.759, 128.500 180.459 C 137.300 184.159, 151.879 190.377, 160.898 194.276 L 177.295 201.365 156.275 222.103 L 135.255 242.840 124.378 239.921 C 118.395 238.315, 112.807 237.001, 111.961 237.001 C 110.259 237, 95.612 249.945, 96.411 250.744 C 96.686 251.019, 103.539 254.314, 111.641 258.065 C 119.742 261.816, 127.357 265.699, 128.563 266.693 C 129.785 267.700, 133.506 275.139, 136.970 283.500 C 140.387 291.750, 143.627 298.950, 144.168 299.500 C 145.589 300.944, 157 288.627, 157 285.650 C 157 284.386, 156.311 278.744, 155.469 273.112 L 153.938 262.872 164.219 253.213 C 169.874 247.900, 179.076 239.105, 184.668 233.667 C 190.261 228.230, 195.287 224.059, 195.837 224.399 C 198.485 226.036, 227 282.640, 227 286.259 C 227 286.815, 224.138 291.147, 220.641 295.885 C 212.234 307.273, 207.943 314.163, 202.479 325.041 C 198.610 332.745, 197.703 333.912, 196.205 333.110 C 190.712 330.170, 158.589 315, 157.857 315 C 157.377 315, 155.309 318.385, 153.261 322.523 C 150.528 328.046, 149.800 330.457, 150.519 331.595 C 151.059 332.448, 160.042 336.967, 170.483 341.639 C 180.923 346.310, 189.649 350.316, 189.875 350.541 C 190.100 350.767, 188.861 354.722, 187.121 359.332 C 178.313 382.669, 173.080 418.278, 174.275 446.750 C 174.860 460.694, 175.705 459.608, 165.250 458.352 L 160 457.721 160 450.361 L 160 443 163 443 L 166 443 166 424 L 166 405 162.979 405 L 159.958 405 160.229 393.250 C 160.472 382.712, 160.264 381.022, 158.215 376.862 C 156.849 374.089, 154.269 371.072, 151.801 369.362 L 147.672 366.500 111.086 366.500 C 75.923 366.500, 74.344 366.581, 70.500 368.589 C 68.300 369.738, 65.150 372.587, 63.500 374.921 C 60.598 379.024, 60.489 379.586, 60.171 392.040 L 59.843 404.916 52.671 405.208 L 45.500 405.500 45.228 424.250 L 44.956 443 50.228 443.106 C 60.304 443.309, 59.495 442.657, 59.544 450.621 L 59.588 457.743 52.264 458.296 C 43.179 458.984, 39.216 461.133, 36.250 466.985 C 31.776 475.812, 24.770 475, 105.393 475 C 183.895 475, 178 474.516, 178 480.962 L 178 483.761 123.750 484.252 C 93.912 484.521, 61.625 484.687, 52 484.621 L 34.500 484.500 34.500 509.500 L 34.500 534.500 57.832 535 C 79.455 535.463, 81.269 535.642, 82.582 537.441 C 84.891 540.602, 84.275 541.857, 80.250 542.190 L 76.500 542.500 76.233 567.764 L 75.966 593.027 109.233 592.764 L 142.500 592.500 142.500 564 L 142.500 535.500 162.500 535 L 182.500 534.500 185.698 529.715 C 187.457 527.083, 189.219 524.916, 189.614 524.898 C 190.009 524.880, 191.351 527.370, 192.596 530.431 C 197.102 541.505, 205.639 557.640, 212.192 567.466 C 215.872 572.985, 218.572 577.805, 218.192 578.178 C 217.319 579.032, 180.892 598.531, 169.800 604.080 C 165.235 606.364, 161.359 608.359, 161.187 608.513 C 160.481 609.144, 169.111 625, 170.160 625 C 171.736 625, 197.092 611.136, 224.070 595.523 L 229.640 592.300 237.570 601.102 C 241.932 605.943, 248.313 612.429, 251.750 615.514 C 255.188 618.600, 258 621.511, 258 621.984 C 258 622.457, 249.563 622.992, 239.250 623.172 C 212.782 623.635, 211 624.915, 211 643.468 L 211 653 206.250 653.016 C 200.233 653.037, 194.357 656.291, 191.831 661 C 190.077 664.272, 189.972 666.923, 190.227 701.678 C 190.490 737.445, 190.578 738.961, 192.562 741.616 C 193.696 743.134, 195.866 745.304, 197.384 746.438 C 200.039 748.421, 201.564 748.511, 237.373 748.784 L 274.603 749.068 277.964 746.784 C 284.227 742.529, 284.912 739.793, 285.049 718.500 L 285.171 699.500 268.585 699.303 L 252 699.107 252 702.019 C 252 705.776, 247.023 711.507, 242.450 713.016 C 235.510 715.307, 228.608 710.657, 227.360 702.850 L 226.744 699 215.872 699 C 206.999 699, 205 698.731, 205 697.538 C 205 695.193, 209.061 685, 209.995 685 C 210.463 685, 212.217 686.154, 213.893 687.564 L 216.940 690.127 220.381 686.686 L 223.822 683.245 220.911 681.092 C 219.310 679.909, 218 678.298, 218 677.512 C 218 675.779, 225.268 671.453, 229.750 670.519 L 233 669.841 233.118 674.171 C 233.184 676.552, 233.184 678.837, 233.118 679.250 C 233.053 679.663, 235.250 680, 238 680 L 243 680 243 674.481 C 243 668.981, 243.010 668.964, 245.750 669.562 C 250.013 670.493, 254.187 672.125, 257.823 674.282 L 261.146 676.254 257.846 679.658 L 254.546 683.063 257.523 685.496 C 260.327 687.787, 261.248 687.930, 273.355 687.964 L 286.211 688 285.855 676.250 C 285.432 662.264, 283.961 658.771, 277.015 655.250 C 272.746 653.086, 271.569 653, 246.251 653 L 219.925 653 220.212 643.750 L 220.500 634.500 243.750 634.232 C 256.538 634.084, 267.007 633.634, 267.015 633.232 C 267.024 632.829, 267.416 631.892, 267.887 631.148 C 268.549 630.105, 270.427 631.038, 276.122 635.239 C 285.878 642.436, 300.887 651.425, 314.763 658.382 L 326.026 664.030 324.165 667.765 C 319.848 676.432, 313.738 693.135, 314.593 693.934 C 315.721 694.989, 330.260 701.073, 330.671 700.662 C 330.836 700.497, 333.377 693.757, 336.317 685.683 C 339.257 677.610, 341.923 670.744, 342.241 670.426 C 342.559 670.108, 346.911 671.253, 351.911 672.970 L 361.004 676.091 364.864 672.989 C 372.065 667.202, 373.980 667, 421.639 667 C 468.559 667, 469.102 667.056, 476.683 672.651 C 480.688 675.606, 481.530 675.588, 490.684 672.338 C 496.956 670.111, 498.325 669.907, 499.055 671.088 C 499.536 671.865, 502.267 678.913, 505.125 686.750 C 507.982 694.588, 510.488 701, 510.693 701 C 512.679 701, 527.268 694.464, 527.681 693.389 C 527.979 692.613, 525.945 686.671, 523.161 680.184 C 515.072 661.337, 515.362 663.235, 520.269 661.298 C 528.851 657.909, 545.807 648.516, 556.500 641.229 C 575.249 628.450, 583.994 621.202, 598.587 606.343 C 606.336 598.454, 612.899 592, 613.174 592 C 613.448 592, 620.158 595.655, 628.086 600.121 C 660.009 618.108, 672.448 625, 672.988 625 C 673.299 625, 675.421 621.236, 677.702 616.636 L 681.850 608.272 668.175 601.115 C 660.654 597.179, 647.750 590.375, 639.500 585.996 C 631.250 581.617, 624.102 577.893, 623.615 577.722 C 623.128 577.550, 625.299 573.830, 628.441 569.455 C 641.880 550.738, 656.212 515.220, 661.916 486.500 C 665.896 466.464, 667 455.336, 667 435.283 C 667 407.307, 663.075 383.275, 654.661 359.739 C 651.512 350.928, 651.334 349.893, 652.836 349.106 C 653.751 348.626, 659.675 345.971, 666 343.206 C 672.325 340.440, 680.963 336.560, 685.197 334.583 L 692.893 330.989 691.343 327.244 C 686.605 315.801, 685.995 314.868, 683.701 315.560 C 682.491 315.925, 673.263 319.999, 663.196 324.612 C 653.128 329.225, 644.552 333, 644.138 333 C 643.724 333, 642.552 331.112, 641.533 328.803 C 636.965 318.448, 623.989 297.977, 614.085 285.500 C 605.653 274.877, 586.778 255.825, 574.741 245.788 C 561.401 234.664, 542.585 222.051, 529.743 215.624 C 524.384 212.942, 520 210.454, 520 210.095 C 520 209.737, 522.047 204.791, 524.550 199.105 C 527.052 193.419, 528.937 188.603, 528.737 188.404 C 527.971 187.638, 513.662 182, 512.485 182 C 511.803 182, 509.765 186.162, 507.956 191.250 C 506.147 196.338, 504.326 201.452, 503.910 202.615 C 503.158 204.714, 503.067 204.702, 491.826 201.012 C 485.597 198.968, 479.021 197.012, 477.213 196.665 L 473.925 196.035 474.213 205.035 L 474.500 214.035 486.309 218.063 C 522.883 230.540, 549.951 247.384, 579.361 275.971 C 585.884 282.312, 594.134 291.100, 597.694 295.500 C 618.638 321.388, 635.020 354.334, 642.944 386.500 C 646.927 402.668, 647.501 408.896, 647.459 435.500 C 647.424 457.877, 647.111 463.172, 645.216 473.500 C 636.441 521.325, 617.877 558.384, 586.347 591.020 C 549.673 628.979, 498.615 655.202, 452.144 659.943 C 438.796 661.305, 402.718 661.305, 390.211 659.942 C 366.143 657.321, 348.110 651.982, 324.500 640.488 C 276.766 617.250, 237.615 579.030, 215.931 534.500 C 205.538 513.158, 197.604 485.730, 194.958 462 C 193.458 448.555, 193.465 421.490, 194.972 408.058 C 198.911 372.929, 215.170 334.220, 239.587 301.842 C 254.792 281.678, 279.248 258.808, 301.719 243.737 C 317.455 233.183, 349.604 218.692, 364.250 215.552 L 367 214.962 367 205.981 C 367 198.889, 366.701 197, 365.580 197 C 364.799 197, 358.646 198.587, 351.906 200.527 C 343.541 202.935, 339.438 203.708, 338.978 202.964 C 338.607 202.364, 336.827 197.514, 335.022 192.187 C 333.217 186.859, 331.602 182.341, 331.434 182.147 C 331.057 181.713, 316.018 186.703, 314.168 187.876 C 313.119 188.540, 313.871 191.042, 317.692 199.610 L 322.550 210.500 313.025 215.169 C 293.055 224.957, 269.602 241.682, 251.738 258.876 C 246.918 263.514, 242.800 267.127, 242.585 266.904 C 242.371 266.682, 241.569 263.350, 240.804 259.500 L 239.412 252.500 244.706 247.650 C 250.655 242.199, 251.491 239.023, 247.641 236.500 C 244.872 234.686, 242.287 235.399, 239.677 238.697 C 237.114 241.937, 236.237 241.595, 234.962 236.859 L 233.847 232.718 239.054 227.446 C 244.722 221.706, 245.202 218.815, 240.926 216.172 C 239.004 214.984, 238.360 215.180, 234.822 218.022 C 232.647 219.771, 230.719 221.043, 230.538 220.850 C 230.357 220.658, 229.746 218.805, 229.181 216.734 C 228.164 213.012, 228.215 212.910, 233.576 207.839 C 239.377 202.354, 240.299 199.485, 237.171 196.655 C 234.548 194.281, 232.531 194.595, 228.679 197.977 C 225.060 201.154, 224 201.024, 224 197.400 C 224 195.813, 226.619 192.799, 232.750 187.332 C 258.930 163.987, 265.552 153.822, 260.335 144.990 C 259.419 143.439, 257.598 141.682, 256.288 141.085 C 252.708 139.454, 245.996 139.816, 241.500 141.882 M 614.389 149.905 C 612.677 150.948, 610.202 153.309, 608.889 155.151 L 606.500 158.500 606.215 209.765 C 606.027 243.649, 606.291 262.365, 606.992 264.969 C 607.575 267.136, 609.257 270.341, 610.730 272.091 C 616.063 278.429, 616.483 278.486, 659 278.636 C 681.170 278.714, 699.171 278.358, 701.440 277.796 C 706.528 276.536, 711.520 271.498, 712.953 266.175 C 713.745 263.232, 713.997 246.596, 713.793 210.735 L 713.500 159.500 710.666 155.324 C 705.616 147.882, 706.441 148, 659.349 148.004 C 620.019 148.007, 617.313 148.122, 614.389 149.905 M 626.635 168.073 L 624 170.145 624 209.001 C 624 242.991, 624.197 248.054, 625.571 249.429 C 626.938 250.795, 631.554 251, 661 251 C 690.446 251, 695.062 250.795, 696.429 249.429 C 697.803 248.054, 698 243.026, 698 209.383 L 698 170.909 695.545 168.455 L 693.091 166 661.180 166 C 630.411 166, 629.175 166.074, 626.635 168.073 M 581.264 169.750 C 574.229 180.084, 570.723 202.223, 573.911 216.189 C 576.582 227.890, 581.646 237, 585.479 237 C 588.413 237, 593.510 231.320, 592.101 229.622 C 591.574 228.986, 589.935 224.874, 588.458 220.483 C 586.238 213.879, 585.778 210.750, 585.796 202.372 C 585.815 193.581, 586.235 191.072, 588.974 183.372 C 590.710 178.492, 592.350 173.823, 592.618 172.995 C 593.368 170.677, 589.327 167, 586.029 167 C 583.994 167, 582.581 167.815, 581.264 169.750 M 631 209.015 L 631 244.030 660.750 243.765 L 690.500 243.500 690.768 219.250 C 690.915 205.912, 690.662 195, 690.206 195 C 689.462 195, 666.413 221.575, 663.193 226.145 C 662.372 227.311, 660.699 227.986, 658.693 227.962 C 655.916 227.929, 654.359 226.620, 646.750 217.921 C 641.938 212.420, 638 207.295, 638 206.532 C 638 205.010, 642.616 201, 644.369 201 C 644.974 201, 648.199 203.925, 651.536 207.500 C 654.873 211.075, 657.838 214, 658.125 214 C 658.412 214, 661.969 210.063, 666.029 205.250 C 670.089 200.438, 677.143 192.398, 681.705 187.384 C 694.578 173.238, 695.786 174, 660.500 174 L 631 174 631 209.015 M 730.228 185.230 C 726.948 186.811, 726.592 189.888, 729.034 195.538 C 737.414 214.929, 737.058 238.421, 728.083 258.343 C 724.389 266.544, 724.355 267.045, 727.314 269.826 C 731.004 273.292, 733.642 272.634, 736.946 267.424 C 749.334 247.890, 751.534 218.342, 742.314 195.312 C 738.078 184.731, 735.583 182.649, 730.228 185.230 M 462.330 223.188 C 461.422 224.191, 460.976 225.310, 461.339 225.673 C 461.703 226.036, 462 225.782, 462 225.108 C 462 224.434, 462.520 224.203, 463.155 224.595 C 463.870 225.038, 464.038 224.870, 463.595 224.155 C 462.889 223.011, 464.600 222.524, 468.250 222.830 C 469.212 222.910, 470 222.614, 470 222.170 C 470 220.592, 463.953 221.395, 462.330 223.188 M 397.500 239.683 C 369.361 243.275, 338.296 254.660, 315.500 269.735 C 284.956 289.935, 258.907 319.248, 242.659 351.702 C 228.663 379.659, 223 403.876, 223 435.770 C 223 454.166, 224.045 465.028, 227.062 478 C 237.851 524.378, 264.159 564.885, 301.652 592.845 C 327.430 612.068, 357.507 625.159, 388 630.426 C 401.521 632.762, 428.126 633.570, 442.069 632.067 C 492.711 626.611, 540.648 601.010, 573.172 562.051 C 594.048 537.046, 608.349 506.917, 615.678 472.500 C 618.266 460.352, 618.447 457.927, 618.445 435.500 C 618.443 404.817, 616.372 393.056, 606.436 367.307 C 589.197 322.630, 551.586 281.328, 508.500 259.760 C 488.750 249.873, 468.342 243.278, 448.994 240.528 C 439.371 239.160, 405.896 238.611, 397.500 239.683 M 657 260 C 653.173 263.827, 655.745 272, 660.777 272 C 664.425 272, 667 269.104, 667 265 C 667 258.763, 661.158 255.842, 657 260 M 414.455 261.455 C 412.089 263.820, 412 264.402, 412 277.531 L 412 291.154 414.923 294.077 C 418.743 297.897, 423.999 298.092, 427.545 294.545 C 429.919 292.172, 430 291.627, 430 278 C 430 264.373, 429.919 263.828, 427.545 261.455 C 424.134 258.044, 417.866 258.044, 414.455 261.455 M 55.299 272.960 C 51.133 275.500, 49 279.769, 49 285.568 C 49 289.656, 49.482 290.717, 52.882 294.118 C 56.374 297.609, 57.277 298, 61.848 298 C 76.267 298, 80.673 279.054, 67.802 272.398 C 64.018 270.441, 59.064 270.664, 55.299 272.960 M 772.299 272.960 C 760.706 280.028, 766.053 298.092, 779.700 297.965 C 787.108 297.895, 791.985 292.751, 791.990 285 C 791.997 274.180, 781.162 267.555, 772.299 272.960 M 371.040 276.452 C 370.377 277.251, 370.071 278.713, 370.359 279.702 C 375.393 296.974, 376.069 298.104, 380.072 295.961 C 381.231 295.341, 382 293.873, 382 292.280 C 382 289.031, 379.046 277.964, 377.721 276.250 C 376.410 274.553, 372.518 274.671, 371.040 276.452 M 464.212 276.250 C 462.596 278.206, 459.856 289.873, 460.195 293.358 C 460.463 296.115, 460.868 296.500, 463.500 296.500 C 466.254 296.500, 466.647 296.048, 468.283 291 C 470.969 282.718, 471.583 276.983, 469.899 275.917 C 467.900 274.651, 465.413 274.797, 464.212 276.250 M 325.186 289.497 C 319.335 294.421, 319.897 297.140, 329.564 310.661 C 337.768 322.135, 338.727 323, 343.240 323 C 348.488 323, 350.624 321.670, 351.981 317.557 C 353.333 313.461, 353.199 313.149, 344.741 300.743 C 335.277 286.860, 331.144 284.483, 325.186 289.497 M 507.723 288.095 C 505.201 289.563, 490.062 309.903, 489.335 312.800 C 488.992 314.168, 489.421 316.659, 490.325 318.556 C 492.361 322.826, 498.795 325.020, 502.383 322.669 C 504.410 321.341, 517.220 304.239, 519.745 299.489 C 521.352 296.467, 520.120 292.279, 516.805 289.489 C 513.674 286.855, 510.651 286.391, 507.723 288.095 M 83.387 297.847 C 80.095 299.917, 76 307.124, 76 310.848 C 76 317.349, 82.138 324.341, 88.838 325.473 C 96.806 326.819, 104.759 320.317, 105.735 311.659 C 106.284 306.790, 104.695 302.906, 100.581 299.063 C 96.957 295.677, 87.861 295.034, 83.387 297.847 M 119.958 314.593 C 118.331 318.219, 117 321.932, 117.001 322.843 C 117.002 324.917, 125.846 330, 129.452 330 C 131.714 330, 132.474 329.176, 134.555 324.471 C 135.900 321.431, 137 317.909, 137 316.646 C 137 313.985, 133.733 310.600, 129.685 309.067 C 124.149 306.969, 123.116 307.556, 119.958 314.593 M 713.500 309.412 C 706.284 312.619, 703.002 319.432, 702.996 331.218 C 702.994 335.773, 702.702 345.192, 702.347 352.148 L 701.702 364.796 694.511 365.160 C 685.585 365.610, 680.304 368.675, 677.121 375.250 C 675.014 379.603, 675 380.148, 675 459.848 C 675 547.614, 674.767 544.102, 680.941 549.297 C 683.568 551.507, 685.142 552, 689.577 552 L 695 552 695 538.060 L 695 524.121 691.250 523.810 C 687.593 523.508, 687.500 523.400, 687.500 519.500 C 687.500 515.600, 687.593 515.492, 691.250 515.190 L 695 514.879 695 503.440 L 695 492 690.943 492 L 686.885 492 687.193 487.750 C 687.491 483.618, 687.597 483.500, 691 483.500 L 694.500 483.500 694.798 477.250 C 695.085 471.209, 695.014 471, 692.655 471 C 689.525 471, 688.523 468.377, 690.500 465.359 L 692.046 463 726.523 463 L 761 463 761 457.500 L 761 452 755.122 452 C 748.667 452, 746.626 450.666, 747.173 446.805 L 747.500 444.500 767.391 444.500 C 785.248 444.500, 787.395 444.679, 788.386 446.250 C 789.189 447.524, 789.190 448.476, 788.389 449.750 C 787.506 451.155, 785.585 451.557, 778.644 451.789 L 770 452.078 770 455.957 C 770 462.791, 770.281 463, 779.485 463 C 788.455 463, 790.423 463.989, 789.827 468.195 C 789.518 470.375, 788.986 470.527, 780 471 L 770.500 471.500 770.201 477.217 L 769.902 482.934 781.201 483.217 L 792.500 483.500 792.500 487.500 L 792.500 491.500 781.250 491.783 L 770 492.066 770 503.533 L 770 515 778.557 515 L 787.115 515 786.807 519.250 L 786.500 523.500 778.250 523.790 L 770 524.081 770 538.146 L 770 552.211 781.750 551.855 C 795.132 551.451, 798.225 550.115, 801.627 543.270 C 803.411 539.679, 803.500 535.677, 803.500 459 L 803.500 378.500 800.751 373.823 C 798.624 370.206, 796.766 368.562, 792.554 366.569 L 787.106 363.992 786.803 341.665 L 786.500 319.339 783.692 315.660 C 778.048 308.266, 776.665 307.995, 744.790 308.039 C 723.452 308.069, 715.763 308.406, 713.500 309.412 M 414.669 316.045 C 413.239 317.171, 411.606 319.758, 411.040 321.795 C 410.408 324.071, 410.004 342.469, 409.993 369.500 L 409.975 413.500 406.597 415.687 C 404.739 416.891, 402.149 419.816, 400.841 422.187 L 398.462 426.500 357.648 427 L 316.834 427.500 313.917 430.766 C 310.535 434.552, 309.990 440.112, 312.631 443.883 C 316.049 448.764, 318.161 448.997, 359.218 449.038 L 397.500 449.076 400.182 452.956 C 403.490 457.741, 410.056 461.699, 417.138 463.178 C 431.200 466.114, 445.841 454.875, 447.286 440.035 C 447.598 436.832, 449.844 434.738, 477.062 412.289 C 493.253 398.934, 507.063 387.245, 507.750 386.313 C 508.438 385.380, 509 382.911, 509 380.825 C 509 372.993, 499.723 367.317, 492.741 370.877 C 490.945 371.793, 478.717 381.532, 465.566 392.521 C 452.416 403.509, 440.352 413.570, 438.757 414.878 C 436.311 416.884, 435.478 417.083, 433.429 416.150 L 431 415.043 431 367.921 L 431 320.800 427.600 317.400 C 423.547 313.347, 418.740 312.843, 414.669 316.045 M 299.655 321.829 C 298.745 322.835, 298 324.338, 298 325.170 C 298 327.351, 310.459 339, 312.791 339 C 315.527 339, 317.336 336.476, 316.627 333.648 C 316.043 331.324, 304.116 320, 302.251 320 C 301.734 320, 300.565 320.823, 299.655 321.829 M 533.974 323.642 C 531.757 325.645, 528.546 329.048, 526.839 331.203 C 524.149 334.599, 523.883 335.448, 524.846 337.561 C 526.633 341.483, 529.605 340.546, 536.562 333.865 C 543.867 326.851, 544.931 324.687, 542.435 321.928 C 539.974 319.209, 538.565 319.494, 533.974 323.642 M 730.552 322.703 C 725.631 322.912, 721.018 323.570, 720.302 324.164 C 719.313 324.985, 719 330.016, 719 345.122 L 719 365 745 365 L 771 365 771 345.691 C 771 330.601, 770.690 325.958, 769.582 324.441 C 768.298 322.684, 766.807 322.492, 753.832 322.411 C 745.949 322.363, 735.473 322.494, 730.552 322.703 M 51.496 334.250 C 45.960 339.012, 49.068 347, 56.456 347 C 63.166 347, 65.844 338.843, 60.611 334.342 C 57.199 331.407, 54.829 331.383, 51.496 334.250 M 270.500 346.208 C 267.324 348.029, 266.064 350.237, 266.054 354 C 266.041 358.843, 267.925 360.763, 280.159 368.371 C 292.134 375.818, 295.539 376.552, 299.545 372.545 C 302.864 369.227, 302.834 364.144, 299.473 360.150 C 296.132 356.180, 277.946 344.992, 274.896 345.030 C 273.578 345.047, 271.600 345.577, 270.500 346.208 M 554.279 351.586 C 548.900 355.208, 543.487 359.283, 542.250 360.641 C 539.168 364.024, 539.242 369.333, 542.414 372.505 C 547.119 377.210, 548.944 376.880, 561.465 369.065 C 576.844 359.464, 578.928 356.629, 575.490 349.980 C 571.800 342.845, 566.682 343.233, 554.279 351.586 M 76.315 380.007 C 71.801 381.826, 71.504 383.829, 71.428 413 C 71.388 428.125, 71.544 444.625, 71.774 449.667 L 72.193 458.833 109.826 458.353 C 130.525 458.089, 147.622 457.712, 147.819 457.514 C 148.017 457.316, 148.251 440.733, 148.339 420.662 L 148.500 384.169 146.076 381.585 L 143.651 379 111.076 379.063 C 93.159 379.098, 77.517 379.523, 76.315 380.007 M 696.750 383.080 C 695.168 384.002, 695 386.197, 695 405.993 C 695 427.484, 695.041 427.915, 697.223 429.443 C 699.147 430.791, 704.975 431, 740.650 431 L 781.855 431 783.927 428.365 C 785.870 425.896, 786 424.453, 786 405.437 C 786 388.321, 785.754 384.897, 784.429 383.571 C 783.049 382.192, 777.716 382.004, 740.679 382.030 C 713.895 382.050, 697.861 382.433, 696.750 383.080 M 259.667 390.667 C 258.549 391.785, 258.923 395.694, 260.250 396.757 C 262.068 398.213, 272.304 401, 275.837 401 C 279.232 401, 281.016 397.929, 279.018 395.522 C 276.543 392.540, 261.554 388.779, 259.667 390.667 M 574 391.462 C 571.525 392.190, 568.275 393.064, 566.779 393.404 C 563.267 394.204, 561.353 397.515, 563.150 399.681 C 564.634 401.468, 571.739 401.073, 578.500 398.827 C 583.092 397.302, 584.526 393.589, 581.404 391.306 C 579.319 389.782, 579.747 389.773, 574 391.462 M 703.331 391.273 C 703.069 391.698, 703.169 398.673, 703.553 406.773 L 704.253 421.500 709.377 421.025 C 714.076 420.589, 714.190 420.522, 710.750 420.214 C 706.702 419.853, 705.808 418.513, 708.949 417.516 C 710.021 417.176, 710.681 416.332, 710.416 415.640 C 709.577 413.455, 713.493 410, 716.808 410 C 718.499 410, 720.099 409.649, 720.363 409.221 C 720.628 408.792, 724.930 408.348, 729.922 408.233 C 737.385 408.062, 739 408.290, 739 409.512 C 739 410.660, 740.199 410.964, 744.250 410.843 L 749.500 410.686 744.500 410 C 739.911 409.371, 739.808 409.301, 743.250 409.157 C 745.313 409.071, 747 408.590, 747 408.088 C 747 406.756, 750.477 407.482, 750.625 408.845 C 750.694 409.480, 750.806 410.450, 750.875 411 C 750.944 411.550, 752.688 412.061, 754.750 412.136 C 757.071 412.220, 757.643 412.437, 756.250 412.706 C 752.904 413.350, 753.234 417.311, 756.750 418.701 L 759.500 419.787 756.833 419.894 C 755.367 419.952, 753.904 419.438, 753.583 418.750 C 753.117 417.750, 752.883 417.750, 752.417 418.750 C 752.026 419.588, 748.977 420.057, 743.167 420.173 L 734.500 420.346 746 421.041 C 752.325 421.424, 761.832 421.796, 767.126 421.868 L 776.752 422 777.221 406.750 C 777.479 398.363, 777.565 391.342, 777.411 391.149 C 776.827 390.416, 703.785 390.538, 703.331 391.273 M 0.441 423 C 0.441 438.675, 0.579 445.087, 0.748 437.250 C 0.917 429.412, 0.917 416.587, 0.748 408.750 C 0.579 400.912, 0.441 407.325, 0.441 423 M 104 403 L 104 407 120.883 407 C 137.547 407, 137.775 406.971, 138.370 404.750 C 139.966 398.792, 140.577 399, 121.500 399 L 104 399 104 403 M 708.083 405.379 C 709.103 406.305, 724.584 406.667, 736 406.031 C 748.180 405.352, 747.978 405.330, 728.083 405.167 C 716.854 405.075, 707.854 405.170, 708.083 405.379 M 758.015 406.750 C 758.026 407.930, 758.278 408.111, 758.789 407.307 C 759.207 406.650, 762.237 405.948, 765.524 405.746 L 771.500 405.378 764.750 405.189 C 758.911 405.026, 758.002 405.236, 758.015 406.750 M 83.452 419.265 C 83.121 420.126, 82.997 422.107, 83.175 423.666 L 83.500 426.500 104.904 426.667 C 127.789 426.845, 131.549 426.305, 130.498 422.993 C 130.023 421.496, 130.450 420.751, 132.181 420.057 C 133.778 419.416, 129.956 419.107, 119.906 419.063 C 111.879 419.029, 100.528 418.707, 94.682 418.350 C 85.562 417.792, 83.967 417.922, 83.452 419.265 M 250.120 428.628 C 244.912 432.277, 244.382 440.366, 249.097 444.250 C 250.885 445.723, 253.331 446, 264.529 446 C 271.848 446, 278.565 445.720, 279.455 445.379 C 281.573 444.566, 284 439.798, 284 436.450 C 284 434.770, 282.756 432.556, 280.600 430.400 L 277.200 427 264.823 427 C 255.005 427, 251.964 427.337, 250.120 428.628 M 561.856 428.516 C 559.298 429.906, 557 434.428, 557 438.072 C 557 439.048, 558.165 441.231, 559.589 442.923 L 562.178 446 576.033 446 C 589.207 446, 590.025 445.882, 592.672 443.606 C 594.895 441.693, 595.455 440.367, 595.455 437.004 C 595.455 433.520, 594.896 432.296, 592.211 429.898 C 589.002 427.030, 588.844 427, 576.734 427.040 C 568.059 427.068, 563.731 427.498, 561.856 428.516 M 83.190 440.750 L 83.500 444.500 105.864 444.769 C 123.986 444.988, 128.133 444.790, 127.726 443.728 C 127.449 443.006, 127.847 441.562, 128.611 440.517 C 129.375 439.472, 130 438.254, 130 437.809 C 130 437.364, 119.398 437, 106.440 437 L 82.879 437 83.190 440.750 M 690.832 446.470 C 688.678 451.198, 690.725 452.002, 704.872 451.985 C 711.818 451.976, 717.995 451.639, 718.600 451.235 C 720.286 450.109, 720.828 447.691, 719.830 445.750 C 719.040 444.214, 717.278 444, 705.443 444 C 692.072 444, 691.948 444.021, 690.832 446.470 M 269.235 472.573 C 261.007 474.376, 259 475.538, 259 478.500 C 259 482.579, 261.826 483.176, 270.113 480.850 C 277.981 478.642, 280 477.539, 280 475.449 C 280 474.032, 277.280 470.937, 276.179 471.100 C 275.805 471.156, 272.681 471.818, 269.235 472.573 M 564.170 471.874 C 563.414 472.353, 562.982 473.966, 563.170 475.609 C 563.479 478.313, 564.037 478.652, 571.789 480.840 C 580.793 483.382, 583 482.930, 583 478.547 C 583 476.028, 580.943 474.785, 573.068 472.545 C 566.852 470.777, 566.002 470.713, 564.170 471.874 M 704 477.266 L 704 483.595 715.750 483.547 L 727.500 483.500 727.500 477.500 L 727.500 471.500 715.750 471.218 L 704 470.937 704 477.266 M 736.409 472.377 C 736.118 473.134, 736.020 475.947, 736.190 478.627 L 736.500 483.500 748.750 483.781 L 761 484.062 761 477.531 L 761 471 748.969 471 C 739.674 471, 736.817 471.313, 736.409 472.377 M 704 503.500 L 704 515 716 515 L 728 515 728 503.500 L 728 492 716 492 L 704 492 704 503.500 M 737 503.500 L 737 515 749 515 L 761 515 761 503.500 L 761 492 749 492 L 737 492 737 503.500 M 281 503.494 C 267.285 512.089, 265.505 513.892, 265.640 519.056 C 265.780 524.386, 269.053 528, 273.740 528 C 277.730 528, 278.647 527.556, 290.656 519.817 C 299.567 514.074, 303 510.124, 303 505.615 C 303 503.071, 297.762 498.042, 294.500 497.455 C 292.038 497.012, 289.617 498.095, 281 503.494 M 545.110 498.396 C 539.509 501.500, 538.323 509.248, 542.801 513.475 C 548.177 518.548, 564.263 528, 567.522 528 C 574.143 528, 578.432 518.917, 574.477 513.270 C 573.023 511.195, 559.353 501.785, 553.074 498.538 C 549.493 496.686, 548.234 496.664, 545.110 498.396 M 67.763 500.511 C 58.167 505.908, 62.206 520.037, 73.327 519.978 C 82.674 519.928, 87.381 509.815, 81.250 502.954 C 77.910 499.216, 71.977 498.141, 67.763 500.511 M 134.183 501.829 C 127.911 507.688, 129.331 516.315, 137.079 519.415 C 144.878 522.536, 152 517.789, 152 509.469 C 152 505.842, 151.473 504.745, 148.465 502.104 C 143.707 497.926, 138.469 497.825, 134.183 501.829 M 704 538 L 704 552 716 552 L 728 552 728 538 L 728 524 716 524 L 704 524 704 538 M 736.436 525.305 C 736.161 526.023, 736.062 532.211, 736.218 539.055 L 736.500 551.500 748.750 551.781 L 761 552.062 761 538.031 L 761 524 748.969 524 C 739.993 524, 736.810 524.332, 736.436 525.305 M 305.231 537.750 C 297.478 546.022, 296.631 547.442, 297.964 549.933 C 299.945 553.635, 303.146 552.411, 310.277 545.225 C 313.975 541.499, 317 537.743, 317 536.880 C 317 535.011, 313.903 532, 311.981 532 C 311.232 532, 308.195 534.587, 305.231 537.750 M 527 534 C 525.900 535.100, 525 536.494, 525 537.097 C 525 538.603, 538.043 552, 539.509 552 C 541.523 552, 544.217 548.259, 543.601 546.318 C 542.873 544.023, 531.508 532, 530.067 532 C 529.480 532, 528.100 532.900, 527 534 M 34.501 543.999 C 33.616 545.431, 34.851 550.723, 37.113 555.192 C 40.822 562.519, 48.957 566.382, 59.500 565.820 L 65.500 565.500 65.500 554.500 L 65.500 543.500 50.325 543.224 C 40.513 543.046, 34.920 543.320, 34.501 543.999 M 152.430 544.321 C 152.151 545.048, 152.053 550.110, 152.212 555.571 L 152.500 565.500 157 565.836 C 163.468 566.319, 171.528 564.268, 175.154 561.217 C 179.008 557.974, 181.949 551.740, 181.978 546.750 L 182 543 167.469 543 C 156.348 543, 152.818 543.310, 152.430 544.321 M 339.180 548.554 C 336.933 550.160, 324.476 566.373, 322.149 570.721 C 320.192 574.379, 320.805 577.959, 323.923 581.077 C 327.113 584.267, 332.253 585.024, 335.283 582.750 C 336.199 582.063, 340.335 576.567, 344.474 570.537 C 350.430 561.861, 352 558.820, 352 555.961 C 352 549.503, 344.177 544.983, 339.180 548.554 M 493.750 549.080 C 491.145 550.598, 489.020 555.353, 489.721 558.097 C 490.059 559.419, 493.863 565.780, 498.176 572.233 C 506.616 584.863, 508.520 586.270, 514.067 583.972 C 517.202 582.674, 520 578.525, 520 575.176 C 520 573.220, 511.498 559.974, 505.285 552.250 C 502.536 548.832, 501.243 548.006, 498.683 548.030 C 496.932 548.047, 494.712 548.519, 493.750 549.080 M 692.333 564.729 C 692.709 565.338, 691.520 565.561, 689.237 565.310 C 684.474 564.785, 680.704 565.712, 681.614 567.184 C 682.033 567.863, 681.860 568.031, 681.175 567.608 C 679.469 566.554, 676.211 568.692, 674.510 571.980 C 673.680 573.586, 673 575.103, 673 575.351 C 673 575.598, 677.725 575.856, 683.500 575.922 C 690.063 575.998, 694 575.661, 694 575.022 C 694 574.460, 693.325 574, 692.500 574 C 691.675 574, 691 573.564, 691 573.031 C 691 572.499, 691.675 572.322, 692.500 572.638 C 693.662 573.084, 694 572.402, 694 569.607 C 694 567.623, 694.034 565.674, 694.075 565.275 C 694.116 564.876, 693.604 564.368, 692.936 564.145 C 692.268 563.923, 691.997 564.185, 692.333 564.729 M 704.667 564.667 C 703.403 565.930, 704.004 568.903, 705.750 570.026 C 707.417 571.097, 707.417 571.125, 705.750 570.607 C 704.353 570.172, 704 570.664, 704 573.047 L 704 576.032 715.500 575.927 L 727 575.822 726.985 569.661 C 726.974 565.314, 726.684 563.942, 726 565 C 725.436 565.873, 725.024 566.009, 725.015 565.325 C 724.997 563.918, 709.308 563.992, 707.095 565.409 C 706.127 566.030, 705.912 565.951, 706.405 565.155 C 707.163 563.928, 705.791 563.543, 704.667 564.667 M 737 570.273 C 737 573.978, 737.372 575.888, 738.016 575.490 C 738.575 575.144, 738.738 574.385, 738.377 573.801 C 737.996 573.185, 738.304 572.952, 739.111 573.245 C 739.875 573.523, 740.388 574.256, 740.250 574.875 C 740.093 575.580, 741.700 576, 744.559 576 C 747.940 576, 748.924 575.677, 748.367 574.750 C 747.786 573.783, 747.943 573.762, 749.058 574.657 C 749.851 575.293, 752.896 575.830, 755.825 575.850 C 760.631 575.883, 761.021 575.727, 759.825 574.251 C 758.867 573.069, 758.846 572.824, 759.750 573.367 C 760.682 573.927, 761 572.871, 761 569.214 L 761 564.310 757.042 564.498 C 754.864 564.601, 752.379 565.270, 751.519 565.984 C 750.223 567.060, 750.046 567.044, 750.487 565.891 C 750.911 564.786, 749.577 564.493, 744.010 564.464 L 737 564.428 737 570.273 M 773.250 564.745 C 771.279 565.090, 771 565.742, 771 570.011 C 771 575.643, 771.743 576.480, 774.425 573.872 C 776.248 572.099, 775.676 571.420, 772.750 571.882 C 771.538 572.073, 771.881 571.342, 773.692 569.872 C 775.128 568.708, 775.258 568.709, 774.553 569.880 C 773.978 570.835, 774.149 571.115, 775.111 570.791 C 775.875 570.533, 776.445 569.332, 776.377 568.122 C 776.263 566.076, 777.347 566.043, 777.625 568.083 C 777.901 570.111, 778.051 570.203, 779.333 569.138 C 780.343 568.301, 780.667 568.392, 780.667 569.516 C 780.667 570.332, 780.438 570.771, 780.158 570.491 C 779.549 569.883, 775 573.998, 775 575.156 C 775 575.601, 777.240 575.914, 779.979 575.852 C 783.362 575.776, 784.742 575.381, 784.287 574.620 C 783.801 573.809, 784.014 573.796, 785.058 574.573 C 785.851 575.163, 789.375 575.734, 792.889 575.843 C 798.865 576.027, 799.189 575.925, 797.906 574.270 C 796.621 572.611, 796.659 572.601, 798.517 574.098 C 801.130 576.204, 804 577.183, 804 575.969 C 804 575.436, 803.212 574.993, 802.250 574.985 C 800.754 574.972, 800.718 574.828, 802 574 C 803.090 573.296, 803.142 573.026, 802.191 573.015 C 801.471 573.007, 801.107 572.636, 801.382 572.191 C 802.080 571.062, 797 566.452, 794.014 565.505 C 791.307 564.645, 776.842 564.116, 773.250 564.745 M 790.490 568.016 C 790.144 568.575, 789.490 568.803, 789.035 568.522 C 788.580 568.241, 787.207 568.821, 785.984 569.812 L 783.760 571.613 786.184 573.201 C 788.597 574.782, 794.463 574.939, 795.798 573.459 C 796.184 573.031, 795.727 572.958, 794.782 573.297 C 793.837 573.636, 792.798 573.482, 792.473 572.956 C 791.951 572.112, 794.071 571.524, 796.293 571.896 C 796.729 571.969, 796.601 571.122, 796.008 570.014 C 794.682 567.538, 793.824 567.362, 794.719 569.750 C 795.291 571.278, 795.162 571.327, 793.698 570.137 C 792.776 569.387, 792.269 568.374, 792.570 567.887 C 792.871 567.399, 792.668 567, 792.118 567 C 791.568 567, 790.835 567.457, 790.490 568.016 M 786.633 570.526 C 785.051 571.683, 785.057 571.813, 786.721 572.521 C 788.825 573.416, 792.212 573.879, 791.508 573.175 C 791.238 572.905, 791.519 572.080, 792.131 571.342 C 793.368 569.852, 793.355 569.838, 790.413 569.517 C 789.265 569.391, 787.564 569.846, 786.633 570.526 M 414.923 574.923 L 412 577.846 412 592.500 L 412 607.154 414.923 610.077 C 416.918 612.072, 418.848 613, 421 613 C 423.152 613, 425.082 612.072, 427.077 610.077 L 430 607.154 430 592.659 C 430 584.686, 429.720 577.435, 429.379 576.545 C 428.568 574.433, 423.801 572, 420.473 572 C 418.903 572, 416.670 573.176, 414.923 574.923 M 375.193 576.267 C 374.569 577.020, 373.058 581.372, 371.835 585.939 C 369.665 594.048, 369.657 594.276, 371.497 595.622 C 375.651 598.659, 377.598 596.966, 380.092 588.152 C 382.700 578.937, 382.397 575.604, 378.914 575.199 C 377.492 575.034, 375.818 575.515, 375.193 576.267 M 460.388 577.591 C 460.030 579.015, 460.215 581.828, 460.798 583.841 C 461.382 585.853, 462.351 589.385, 462.952 591.690 C 464.063 595.951, 466.263 597.604, 469.282 596.445 C 471.894 595.443, 472.004 593.392, 469.881 585.288 C 467.552 576.394, 466.673 575, 463.397 575 C 461.693 575, 460.858 575.719, 460.388 577.591 M 133.500 620.926 C 129.650 623.016, 126.365 625.406, 126.201 626.238 C 125.800 628.264, 132.754 640.798, 134.922 641.958 C 136.876 643.004, 145.084 638.804, 148.500 635.011 L 150.500 632.790 146.415 625.200 C 144.169 621.026, 141.919 617.501, 141.415 617.368 C 140.912 617.235, 137.350 618.836, 133.500 620.926 M 701.284 618.250 C 698.741 621.561, 693 631.928, 693 633.211 C 693 635.895, 704.825 643.388, 707.462 642.376 C 709.653 641.535, 714.428 634.366, 715.992 629.570 C 717.198 625.872, 717.133 625.527, 714.896 623.715 C 712.757 621.983, 703.674 617, 702.656 617 C 702.430 617, 701.813 617.563, 701.284 618.250 M 99.299 638.960 C 87.817 645.960, 93.005 664, 106.500 664 C 116.967 664, 123.508 652.266, 118.040 643.299 C 114.288 637.143, 105.582 635.128, 99.299 638.960 M 727.941 639.703 C 724.572 642.538, 722 647.458, 722 651.067 C 722 654.667, 725.180 660.138, 728.420 662.114 C 730.316 663.271, 733.371 663.994, 736.368 663.996 C 740.691 664, 741.669 663.566, 745.118 660.118 C 748.683 656.552, 749 655.788, 749 650.753 C 749 646.707, 748.453 644.574, 746.912 642.615 C 742.062 636.450, 733.389 635.119, 727.941 639.703 M 586.881 653.322 C 582.141 656.170, 577.288 659.229, 576.096 660.119 L 573.929 661.738 579.429 669.722 L 584.930 677.707 582.558 680.922 C 581.254 682.690, 579.622 685.497, 578.933 687.161 C 577.816 689.860, 577.347 690.116, 574.590 689.541 C 572.891 689.185, 568.462 688.628, 564.750 688.302 L 558 687.710 558 701.355 C 558 717.069, 556.690 715.692, 569.999 713.965 C 575.174 713.294, 577.606 713.318, 577.847 714.042 C 578.040 714.620, 579.741 717.386, 581.627 720.188 C 584.550 724.532, 584.867 725.539, 583.778 727.015 C 579.043 733.432, 573.875 741.207, 574.160 741.484 C 574.347 741.666, 579.420 744.605, 585.434 748.015 C 598.092 755.194, 597.204 755.447, 601.782 743.348 C 604.468 736.251, 604.548 736.161, 608.500 735.760 C 615.557 735.044, 616.616 735.810, 620.939 744.750 C 623.133 749.288, 625.182 753, 625.493 753 C 626.670 753, 638.680 746.611, 642.750 743.819 C 645.087 742.216, 647 740.413, 647 739.813 C 647 739.213, 644.522 735.694, 641.494 731.993 L 635.988 725.262 639.494 719.440 C 641.422 716.238, 643 713.238, 643 712.774 C 643 712.309, 643.788 712.344, 644.750 712.851 C 645.712 713.357, 649.817 714.099, 653.871 714.499 C 659.617 715.067, 661.432 714.927, 662.105 713.864 C 662.581 713.114, 662.976 706.921, 662.985 700.101 L 663 687.703 654.750 688.286 C 650.212 688.607, 645.739 689.161, 644.809 689.519 C 643.522 690.013, 642.506 689.015, 640.551 685.334 C 639.138 682.675, 637.463 679.772, 636.829 678.881 C 635.896 677.571, 636.190 676.713, 638.374 674.381 C 639.858 672.797, 642.496 669.295, 644.237 666.599 L 647.402 661.699 644.252 659.069 C 640.617 656.035, 625.097 647.569, 624.417 648.250 C 624.165 648.501, 622.257 652.710, 620.175 657.603 L 616.391 666.500 610.541 666.500 L 604.691 666.500 602.987 661.488 C 600.869 655.258, 597.202 647.976, 596.230 648.072 C 595.828 648.111, 591.622 650.474, 586.881 653.322 M 687.073 672.635 C 684.365 676.077, 684.450 679.250, 687.342 682.611 C 690.135 685.859, 694.944 686.266, 697.987 683.512 C 700.658 681.095, 700.768 674.005, 698.171 671.655 C 695.246 669.008, 689.529 669.513, 687.073 672.635 M 151.870 672.912 C 144.211 675.390, 138.780 683.331, 138.846 691.952 C 138.892 697.835, 140.691 701.644, 145.363 705.746 C 154.704 713.947, 168.608 711.568, 174.086 700.831 C 177.262 694.606, 176.505 685.428, 172.397 680.352 C 170.740 678.305, 168.279 675.804, 166.928 674.796 C 164.118 672.698, 155.762 671.652, 151.870 672.912 M 603.324 676.383 C 596.611 678.573, 592.394 681.710, 588.949 687.080 C 586.364 691.108, 585.629 693.451, 585.239 698.910 C 584.660 706.996, 585.869 711.232, 590.481 717.272 C 595.015 723.209, 602.191 726.408, 611 726.419 C 620.745 726.430, 628.691 721.364, 633.617 712 C 636.104 707.272, 636.078 695.866, 633.569 691 C 627.237 678.721, 614.714 672.668, 603.324 676.383 M 379.917 677.905 C 377.946 678.304, 374.625 679.687, 372.537 680.977 C 366.060 684.980, 364.597 689.783, 360.038 722.017 C 357.823 737.683, 355.763 751.962, 355.460 753.750 L 354.909 757 420.792 757 L 486.675 757 485.371 748.250 C 484.654 743.438, 482.912 729.825, 481.499 718 C 477.953 688.301, 476.579 684.539, 467.500 679.653 C 463.612 677.560, 462.382 677.496, 423.500 677.339 C 401.500 677.250, 381.887 677.505, 379.917 677.905 M 601.922 687.274 C 588.840 696.090, 592.676 714.728, 608.148 717.525 C 616.017 718.947, 625.294 711.893, 626.547 703.534 C 628.503 690.493, 612.663 680.035, 601.922 687.274 M 387.231 693.815 C 382.903 694.232, 381.515 696.689, 380.066 706.500 C 379.416 710.900, 378.636 715.962, 378.331 717.750 L 377.777 721 420.389 721 C 462.380 721, 463 720.971, 463 718.993 C 463 713.766, 459.774 696.349, 458.585 695.158 C 457.525 694.096, 450.289 693.784, 423.873 693.658 C 405.518 693.571, 389.029 693.642, 387.231 693.815 M 206.022 712.250 C 206.054 715.543, 209.682 723, 211.251 723 C 211.993 723, 213.140 722.460, 213.800 721.800 C 214.733 720.867, 215 720.939, 215 722.126 C 215 725.684, 223.978 731.052, 233 732.888 C 242.630 734.848, 256.364 731.167, 260.890 725.413 C 261.934 724.086, 263.623 722.999, 264.644 722.999 C 265.956 722.998, 267.160 721.378, 268.750 717.475 C 269.988 714.438, 271 711.514, 271 710.977 C 271 710.440, 268.535 710, 265.523 710 C 260.752 710, 259.830 710.330, 258.371 712.557 C 255.847 716.409, 248.757 720.860, 243.047 722.179 C 235.498 723.921, 228.241 721.412, 221.999 714.901 C 217.458 710.166, 217.108 710, 211.650 710 C 206.451 710, 206.002 710.180, 206.022 712.250 M 306.026 715.951 C 304.509 718.786, 294 746.523, 294 747.693 C 294 748.562, 309.420 756.029, 311.169 756.008 C 311.689 756.002, 319.002 738.371, 324.555 723.737 C 325.105 722.288, 323.689 721.265, 316.594 717.987 C 311.847 715.794, 307.763 714, 307.517 714 C 307.271 714, 306.601 714.878, 306.026 715.951 M 524.774 718.588 C 516.741 722.648, 516.117 723.176, 516.914 725.249 C 518.398 729.112, 529.291 755.484, 529.531 755.796 C 529.959 756.353, 548 748.791, 548 748.054 C 548 746.907, 534.983 715.583, 534.198 714.839 C 533.814 714.476, 529.573 716.163, 524.774 718.588 M 379.852 731.804 C 376.172 732.111, 375.050 733.606, 375.014 738.250 C 375.001 739.892, 377.853 740, 421.019 740 L 467.038 740 466.436 737.250 C 466.104 735.737, 465.663 733.947, 465.456 733.272 C 465.168 732.333, 455.468 731.980, 424.290 731.772 C 401.855 731.622, 381.859 731.637, 379.852 731.804 M 349.383 771.335 C 347.357 774.176, 343.450 779.114, 340.700 782.309 C 336.996 786.613, 335.721 788.893, 335.784 791.105 C 335.916 795.749, 339.105 800.276, 343.985 802.750 L 348.424 805 419.587 805 C 458.727 805, 492.207 804.709, 493.988 804.352 C 498.618 803.426, 504.658 797.342, 505.522 792.732 C 506.156 789.354, 505.842 788.526, 502.363 784.397 C 498.114 779.354, 491.322 770.353, 489.990 768 C 489.250 766.692, 480.420 766.479, 421.103 766.335 L 353.066 766.169 349.383 771.335 M 544.458 769.846 C 535.367 774.052, 533.163 785.695, 540.112 792.803 C 546.234 799.065, 555.275 798.868, 560.999 792.349 C 565.266 787.489, 565.870 782.647, 562.900 777.114 C 558.610 769.121, 551.814 766.442, 544.458 769.846 M 284.299 770.960 C 280.231 773.440, 277.678 778.336, 277.672 783.671 C 277.662 791.935, 284.015 797.370, 292.915 796.710 C 297.599 796.362, 298.771 795.826, 301.604 792.735 C 307.538 786.260, 307.340 779.105, 301.053 772.817 C 297.673 769.438, 296.677 769, 292.368 769.004 C 289.305 769.006, 286.313 769.732, 284.299 770.960 M 404.098 786.228 C 401.014 787.861, 399.514 790.291, 400.309 792.364 C 400.861 793.801, 403.306 794, 420.433 794 C 438.590 794, 440 793.869, 440.950 792.093 C 441.731 790.635, 441.525 789.634, 440.076 787.843 C 438.252 785.588, 437.589 785.490, 422.341 785.228 C 410.992 785.034, 405.819 785.317, 404.098 786.228" stroke="none" fill="#f4f6f7" fill-rule="evenodd"/><path d="M 414.500 40.451 C 409.395 42.290, 402.703 49.580, 400.466 55.739 C 399.294 58.964, 398.581 64.737, 398.255 73.634 L 397.775 86.768 366.138 112.280 C 348.737 126.311, 333.246 139.118, 331.712 140.740 C 330.179 142.361, 328.661 145.312, 328.339 147.298 C 327.837 150.394, 328.187 151.340, 330.800 153.954 C 332.565 155.718, 334.894 157, 336.338 157 C 337.708 157, 347.080 154.034, 357.165 150.408 C 379.404 142.413, 397.797 136, 398.489 136 C 398.770 136, 399 146.287, 399 158.861 L 399 181.721 390.162 187.887 C 377.428 196.770, 375.941 198.557, 375.288 205.756 C 374.950 209.492, 375.148 211.973, 375.817 212.387 C 376.674 212.917, 390.881 210.182, 411.750 205.470 C 413.960 204.971, 414 205.128, 414 214.416 C 414 219.616, 414.429 224.999, 414.954 226.379 C 416.256 229.803, 420.731 232.080, 423.595 230.775 C 426.953 229.245, 427.854 226.335, 428.237 215.789 C 428.430 210.448, 428.819 205.848, 429.100 205.567 C 429.381 205.286, 436.111 206.427, 444.055 208.102 C 452 209.777, 460.188 211.399, 462.250 211.706 L 466 212.263 466 206.582 C 466 203.457, 465.347 199.638, 464.549 198.095 C 463.751 196.552, 458.576 191.823, 453.049 187.587 L 443 179.884 443 156.883 C 443 144.232, 443.337 134.088, 443.750 134.339 C 445.917 135.660, 504.918 157, 506.403 157 C 509.238 157, 514.005 151.532, 513.965 148.327 C 513.896 142.880, 514.478 143.424, 467.636 104.981 C 457.260 96.467, 447.698 88.675, 446.386 87.667 C 444.326 86.083, 444 84.988, 444 79.640 C 444 66.618, 442.155 56.882, 438.573 51 C 432.640 41.258, 423.444 37.228, 414.500 40.451 M 413.952 56.253 C 410.084 58.860, 406.542 64.364, 407.360 66.496 C 407.839 67.745, 408.608 67.668, 412.544 65.981 C 418.171 63.569, 423.040 63.468, 428.739 65.644 C 431.107 66.549, 433.314 67.020, 433.642 66.691 C 434.894 65.439, 432.749 60.549, 429.541 57.341 C 426.754 54.554, 425.462 54, 421.748 54 C 418.785 54, 416.177 54.754, 413.952 56.253 M 281.844 61.460 C 273.767 66.948, 274.124 80.823, 282.474 85.984 C 289.276 90.188, 298.532 87.377, 302.248 79.980 C 308.789 66.962, 293.787 53.345, 281.844 61.460 M 545.290 60.965 C 541.545 63.248, 538 69.592, 538 74.010 C 538 78.039, 540.170 82.124, 544.041 85.381 C 550.216 90.577, 561.470 87.906, 564.560 80.510 C 570.140 67.156, 556.998 53.826, 545.290 60.965 M 339.229 61.669 C 338.530 61.951, 337.257 63.536, 336.400 65.193 C 335.142 67.627, 335.066 68.746, 336.007 71.017 C 338.271 76.482, 345.280 77.083, 347.977 72.043 C 351.388 65.669, 345.790 59.030, 339.229 61.669 M 494.223 62.557 C 491.408 64.528, 491.125 70.921, 493.750 73.227 C 496.982 76.064, 499.621 76.236, 502.364 73.786 C 506.270 70.299, 506.727 66.636, 503.641 63.550 C 500.734 60.643, 497.450 60.296, 494.223 62.557 M 228.975 91.565 C 228.439 92.976, 228 95.845, 228 97.941 L 228 101.752 222.350 102.221 C 217.105 102.656, 214 104.478, 214 107.120 C 214 109.401, 217.532 111, 222.571 111 L 228 111 228 116.429 C 228 122.144, 229.623 125, 232.871 125 C 235.879 125, 237 122.773, 237 116.800 L 237 111 243.021 111 C 248.455 111, 249.153 110.759, 250.168 108.530 C 251.964 104.588, 249.870 103, 242.878 103 L 237 103 237 97.200 C 237 90.922, 235.893 89, 232.275 89 C 230.700 89, 229.636 89.827, 228.975 91.565 M 608.714 89.619 C 608.321 90.012, 608 92.958, 608 96.167 L 608 102 602.500 102 C 598.269 102, 596.522 102.478, 594.927 104.073 C 593.062 105.938, 592.999 106.366, 594.293 108.323 C 595.467 110.097, 596.869 110.555, 601.867 110.798 L 608 111.095 608 117.529 C 608 123.566, 608.155 124.001, 610.513 124.593 C 614.534 125.602, 616 123.540, 616 116.878 L 616 111 621.429 111 C 629.182 111, 631.999 107.999, 628 104 C 626.538 102.538, 624.667 102, 621.048 102 L 616.095 102 615.798 95.750 C 615.505 89.597, 615.453 89.495, 612.464 89.203 C 610.794 89.039, 609.107 89.227, 608.714 89.619 M 290.459 110.880 C 285.645 113.066, 281 118.253, 281 121.443 C 281 122.702, 286.063 134.107, 292.250 146.786 L 303.500 169.840 311.500 166.799 C 315.900 165.126, 320.091 163.205, 320.814 162.529 C 321.892 161.522, 321.286 158.755, 317.449 147.163 C 314.597 138.545, 312.364 133.275, 311.730 133.667 C 311.120 134.044, 310.992 133.823, 311.420 133.130 C 312.328 131.661, 307.319 116.162, 305.123 113.648 C 303.086 111.316, 298.656 108.993, 296.300 109.022 C 295.310 109.034, 292.681 109.870, 290.459 110.880 M 540.483 110.487 C 538.824 111.332, 536.863 112.990, 536.126 114.170 C 535.389 115.350, 531.271 126.530, 526.974 139.013 L 519.162 161.710 528.630 165.750 L 538.097 169.789 549.048 147.903 C 560.528 124.962, 561.734 120.920, 558.482 116.278 C 554.385 110.428, 545.935 107.710, 540.483 110.487 M 175.174 122.314 C 172.290 125.385, 172.403 129.493, 175.455 132.545 C 178.312 135.403, 179.114 135.509, 182.928 133.537 C 187.811 131.012, 188.521 125.342, 184.365 122.073 C 180.927 119.368, 177.867 119.448, 175.174 122.314 M 241.500 141.882 C 237.808 143.579, 218.800 160.233, 209.547 169.879 C 205.743 173.845, 203.149 174.762, 199.596 173.399 C 198.201 172.863, 198.192 172.564, 199.514 170.676 C 201.815 167.391, 201.388 163.300, 198.549 161.440 C 195.220 159.259, 192.712 160.267, 188.279 165.570 C 186.111 168.164, 183.939 169.837, 183.038 169.607 C 171.466 166.649, 171.818 166.816, 173.974 165.306 C 176.393 163.612, 176.586 160.282, 174.443 157.223 C 172.045 153.798, 168.944 154.515, 162.917 159.886 L 157.435 164.772 142.568 161.366 C 134.391 159.493, 126.958 158.196, 126.050 158.484 C 122.956 159.466, 110.441 171.755, 111.500 172.772 C 112.050 173.300, 119.700 176.759, 128.500 180.459 C 137.300 184.159, 151.879 190.377, 160.898 194.276 L 177.295 201.365 156.275 222.103 L 135.255 242.840 124.378 239.921 C 118.395 238.315, 112.807 237.001, 111.961 237.001 C 110.259 237, 95.612 249.945, 96.411 250.744 C 96.686 251.019, 103.539 254.314, 111.641 258.065 C 119.742 261.816, 127.357 265.699, 128.563 266.693 C 129.785 267.700, 133.506 275.139, 136.970 283.500 C 140.387 291.750, 143.627 298.950, 144.168 299.500 C 145.589 300.944, 157 288.627, 157 285.650 C 157 284.386, 156.311 278.744, 155.469 273.112 L 153.938 262.872 164.219 253.213 C 169.874 247.900, 179.076 239.105, 184.668 233.667 C 190.261 228.230, 195.287 224.059, 195.837 224.399 C 198.485 226.036, 227 282.640, 227 286.259 C 227 286.815, 224.138 291.147, 220.641 295.885 C 212.234 307.273, 207.943 314.163, 202.479 325.041 C 198.610 332.745, 197.703 333.912, 196.205 333.110 C 190.712 330.170, 158.589 315, 157.857 315 C 157.377 315, 155.309 318.385, 153.261 322.523 C 150.528 328.046, 149.800 330.457, 150.519 331.595 C 151.059 332.448, 160.042 336.967, 170.483 341.639 C 180.923 346.310, 189.649 350.316, 189.875 350.541 C 190.100 350.767, 188.861 354.722, 187.121 359.332 C 178.313 382.669, 173.080 418.278, 174.275 446.750 C 174.860 460.694, 175.705 459.608, 165.250 458.352 L 160 457.721 160 450.361 L 160 443 163 443 L 166 443 166 424 L 166 405 162.979 405 L 159.958 405 160.229 393.250 C 160.472 382.712, 160.264 381.022, 158.215 376.862 C 156.849 374.089, 154.269 371.072, 151.801 369.362 L 147.672 366.500 111.086 366.500 C 75.923 366.500, 74.344 366.581, 70.500 368.589 C 68.300 369.738, 65.150 372.587, 63.500 374.921 C 60.598 379.024, 60.489 379.586, 60.171 392.040 L 59.843 404.916 52.671 405.208 L 45.500 405.500 45.228 424.250 L 44.956 443 50.228 443.106 C 60.304 443.309, 59.495 442.657, 59.544 450.621 L 59.588 457.743 52.264 458.296 C 43.179 458.984, 39.216 461.133, 36.250 466.985 C 31.776 475.812, 24.770 475, 105.393 475 C 183.895 475, 178 474.516, 178 480.962 L 178 483.761 123.750 484.252 C 93.912 484.521, 61.625 484.687, 52 484.621 L 34.500 484.500 34.500 509.500 L 34.500 534.500 57.832 535 C 79.455 535.463, 81.269 535.642, 82.582 537.441 C 84.891 540.602, 84.275 541.857, 80.250 542.190 L 76.500 542.500 76.233 567.764 L 75.966 593.027 109.233 592.764 L 142.500 592.500 142.500 564 L 142.500 535.500 162.500 535 L 182.500 534.500 185.698 529.715 C 187.457 527.083, 189.219 524.916, 189.614 524.898 C 190.009 524.880, 191.351 527.370, 192.596 530.431 C 197.102 541.505, 205.639 557.640, 212.192 567.466 C 215.872 572.985, 218.572 577.805, 218.192 578.178 C 217.319 579.032, 180.892 598.531, 169.800 604.080 C 165.235 606.364, 161.359 608.359, 161.187 608.513 C 160.481 609.144, 169.111 625, 170.160 625 C 171.736 625, 197.092 611.136, 224.070 595.523 L 229.640 592.300 237.570 601.102 C 241.932 605.943, 248.313 612.429, 251.750 615.514 C 255.188 618.600, 258 621.511, 258 621.984 C 258 622.457, 249.563 622.992, 239.250 623.172 C 212.782 623.635, 211 624.915, 211 643.468 L 211 653 206.250 653.016 C 200.233 653.037, 194.357 656.291, 191.831 661 C 190.077 664.272, 189.972 666.923, 190.227 701.678 C 190.490 737.445, 190.578 738.961, 192.562 741.616 C 193.696 743.134, 195.866 745.304, 197.384 746.438 C 200.039 748.421, 201.564 748.511, 237.373 748.784 L 274.603 749.068 277.964 746.784 C 284.227 742.529, 284.912 739.793, 285.049 718.500 L 285.171 699.500 268.585 699.303 L 252 699.107 252 702.019 C 252 705.776, 247.023 711.507, 242.450 713.016 C 235.510 715.307, 228.608 710.657, 227.360 702.850 L 226.744 699 215.872 699 C 206.999 699, 205 698.731, 205 697.538 C 205 695.193, 209.061 685, 209.995 685 C 210.463 685, 212.217 686.154, 213.893 687.564 L 216.940 690.127 220.381 686.686 L 223.822 683.245 220.911 681.092 C 219.310 679.909, 218 678.298, 218 677.512 C 218 675.779, 225.268 671.453, 229.750 670.519 L 233 669.841 233.118 674.171 C 233.184 676.552, 233.184 678.837, 233.118 679.250 C 233.053 679.663, 235.250 680, 238 680 L 243 680 243 674.481 C 243 668.981, 243.010 668.964, 245.750 669.562 C 250.013 670.493, 254.187 672.125, 257.823 674.282 L 261.146 676.254 257.846 679.658 L 254.546 683.063 257.523 685.496 C 260.327 687.787, 261.248 687.930, 273.355 687.964 L 286.211 688 285.855 676.250 C 285.432 662.264, 283.961 658.771, 277.015 655.250 C 272.746 653.086, 271.569 653, 246.251 653 L 219.925 653 220.212 643.750 L 220.500 634.500 243.750 634.232 C 256.538 634.084, 267.007 633.634, 267.015 633.232 C 267.024 632.829, 267.416 631.892, 267.887 631.148 C 268.549 630.105, 270.427 631.038, 276.122 635.239 C 285.878 642.436, 300.887 651.425, 314.763 658.382 L 326.026 664.030 324.165 667.765 C 319.848 676.432, 313.738 693.135, 314.593 693.934 C 315.721 694.989, 330.260 701.073, 330.671 700.662 C 330.836 700.497, 333.377 693.757, 336.317 685.683 C 339.257 677.610, 341.923 670.744, 342.241 670.426 C 342.559 670.108, 346.911 671.253, 351.911 672.970 L 361.004 676.091 364.864 672.989 C 372.065 667.202, 373.980 667, 421.639 667 C 468.559 667, 469.102 667.056, 476.683 672.651 C 480.688 675.606, 481.530 675.588, 490.684 672.338 C 496.956 670.111, 498.325 669.907, 499.055 671.088 C 499.536 671.865, 502.267 678.913, 505.125 686.750 C 507.982 694.588, 510.488 701, 510.693 701 C 512.679 701, 527.268 694.464, 527.681 693.389 C 527.979 692.613, 525.945 686.671, 523.161 680.184 C 515.072 661.337, 515.362 663.235, 520.269 661.298 C 528.851 657.909, 545.807 648.516, 556.500 641.229 C 575.249 628.450, 583.994 621.202, 598.587 606.343 C 606.336 598.454, 612.899 592, 613.174 592 C 613.448 592, 620.158 595.655, 628.086 600.121 C 660.009 618.108, 672.448 625, 672.988 625 C 673.299 625, 675.421 621.236, 677.702 616.636 L 681.850 608.272 668.175 601.115 C 660.654 597.179, 647.750 590.375, 639.500 585.996 C 631.250 581.617, 624.102 577.893, 623.615 577.722 C 623.128 577.550, 625.299 573.830, 628.441 569.455 C 641.880 550.738, 656.212 515.220, 661.916 486.500 C 665.896 466.464, 667 455.336, 667 435.283 C 667 407.307, 663.075 383.275, 654.661 359.739 C 651.512 350.928, 651.334 349.893, 652.836 349.106 C 653.751 348.626, 659.675 345.971, 666 343.206 C 672.325 340.440, 680.963 336.560, 685.197 334.583 L 692.893 330.989 691.343 327.244 C 686.605 315.801, 685.995 314.868, 683.701 315.560 C 682.491 315.925, 673.263 319.999, 663.196 324.612 C 653.128 329.225, 644.552 333, 644.138 333 C 643.724 333, 642.552 331.112, 641.533 328.803 C 636.965 318.448, 623.989 297.977, 614.085 285.500 C 605.653 274.877, 586.778 255.825, 574.741 245.788 C 561.401 234.664, 542.585 222.051, 529.743 215.624 C 524.384 212.942, 520 210.454, 520 210.095 C 520 209.737, 522.047 204.791, 524.550 199.105 C 527.052 193.419, 528.937 188.603, 528.737 188.404 C 527.971 187.638, 513.662 182, 512.485 182 C 511.803 182, 509.765 186.162, 507.956 191.250 C 506.147 196.338, 504.326 201.452, 503.910 202.615 C 503.158 204.714, 503.067 204.702, 491.826 201.012 C 485.597 198.968, 479.021 197.012, 477.213 196.665 L 473.925 196.035 474.213 205.035 L 474.500 214.035 486.309 218.063 C 522.883 230.540, 549.951 247.384, 579.361 275.971 C 585.884 282.312, 594.134 291.100, 597.694 295.500 C 618.638 321.388, 635.020 354.334, 642.944 386.500 C 646.927 402.668, 647.501 408.896, 647.459 435.500 C 647.424 457.877, 647.111 463.172, 645.216 473.500 C 636.441 521.325, 617.877 558.384, 586.347 591.020 C 549.673 628.979, 498.615 655.202, 452.144 659.943 C 438.796 661.305, 402.718 661.305, 390.211 659.942 C 366.143 657.321, 348.110 651.982, 324.500 640.488 C 276.766 617.250, 237.615 579.030, 215.931 534.500 C 205.538 513.158, 197.604 485.730, 194.958 462 C 193.458 448.555, 193.465 421.490, 194.972 408.058 C 198.911 372.929, 215.170 334.220, 239.587 301.842 C 254.792 281.678, 279.248 258.808, 301.719 243.737 C 317.455 233.183, 349.604 218.692, 364.250 215.552 L 367 214.962 367 205.981 C 367 198.889, 366.701 197, 365.580 197 C 364.799 197, 358.646 198.587, 351.906 200.527 C 343.541 202.935, 339.438 203.708, 338.978 202.964 C 338.607 202.364, 336.827 197.514, 335.022 192.187 C 333.217 186.859, 331.602 182.341, 331.434 182.147 C 331.057 181.713, 316.018 186.703, 314.168 187.876 C 313.119 188.540, 313.871 191.042, 317.692 199.610 L 322.550 210.500 313.025 215.169 C 293.055 224.957, 269.602 241.682, 251.738 258.876 C 246.918 263.514, 242.800 267.127, 242.585 266.904 C 242.371 266.682, 241.569 263.350, 240.804 259.500 L 239.412 252.500 244.706 247.650 C 250.655 242.199, 251.491 239.023, 247.641 236.500 C 244.872 234.686, 242.287 235.399, 239.677 238.697 C 237.114 241.937, 236.237 241.595, 234.962 236.859 L 233.847 232.718 239.054 227.446 C 244.722 221.706, 245.202 218.815, 240.926 216.172 C 239.004 214.984, 238.360 215.180, 234.822 218.022 C 232.647 219.771, 230.719 221.043, 230.538 220.850 C 230.357 220.658, 229.746 218.805, 229.181 216.734 C 228.164 213.012, 228.215 212.910, 233.576 207.839 C 239.377 202.354, 240.299 199.485, 237.171 196.655 C 234.548 194.281, 232.531 194.595, 228.679 197.977 C 225.060 201.154, 224 201.024, 224 197.400 C 224 195.813, 226.619 192.799, 232.750 187.332 C 258.930 163.987, 265.552 153.822, 260.335 144.990 C 259.419 143.439, 257.598 141.682, 256.288 141.085 C 252.708 139.454, 245.996 139.816, 241.500 141.882 M 614.389 149.905 C 612.677 150.948, 610.202 153.309, 608.889 155.151 L 606.500 158.500 606.215 209.765 C 606.027 243.649, 606.291 262.365, 606.992 264.969 C 607.575 267.136, 609.257 270.341, 610.730 272.091 C 616.063 278.429, 616.483 278.486, 659 278.636 C 681.170 278.714, 699.171 278.358, 701.440 277.796 C 706.528 276.536, 711.520 271.498, 712.953 266.175 C 713.745 263.232, 713.997 246.596, 713.793 210.735 L 713.500 159.500 710.666 155.324 C 705.616 147.882, 706.441 148, 659.349 148.004 C 620.019 148.007, 617.313 148.122, 614.389 149.905 M 626.635 168.073 L 624 170.145 624 209.001 C 624 242.991, 624.197 248.054, 625.571 249.429 C 626.938 250.795, 631.554 251, 661 251 C 690.446 251, 695.062 250.795, 696.429 249.429 C 697.803 248.054, 698 243.026, 698 209.383 L 698 170.909 695.545 168.455 L 693.091 166 661.180 166 C 630.411 166, 629.175 166.074, 626.635 168.073 M 581.264 169.750 C 574.229 180.084, 570.723 202.223, 573.911 216.189 C 576.582 227.890, 581.646 237, 585.479 237 C 588.413 237, 593.510 231.320, 592.101 229.622 C 591.574 228.986, 589.935 224.874, 588.458 220.483 C 586.238 213.879, 585.778 210.750, 585.796 202.372 C 585.815 193.581, 586.235 191.072, 588.974 183.372 C 590.710 178.492, 592.350 173.823, 592.618 172.995 C 593.368 170.677, 589.327 167, 586.029 167 C 583.994 167, 582.581 167.815, 581.264 169.750 M 631 209.015 L 631 244.030 660.750 243.765 L 690.500 243.500 690.768 219.250 C 690.915 205.912, 690.662 195, 690.206 195 C 689.462 195, 666.413 221.575, 663.193 226.145 C 662.372 227.311, 660.699 227.986, 658.693 227.962 C 655.916 227.929, 654.359 226.620, 646.750 217.921 C 641.938 212.420, 638 207.295, 638 206.532 C 638 205.010, 642.616 201, 644.369 201 C 644.974 201, 648.199 203.925, 651.536 207.500 C 654.873 211.075, 657.838 214, 658.125 214 C 658.412 214, 661.969 210.063, 666.029 205.250 C 670.089 200.438, 677.143 192.398, 681.705 187.384 C 694.578 173.238, 695.786 174, 660.500 174 L 631 174 631 209.015 M 730.228 185.230 C 726.948 186.811, 726.592 189.888, 729.034 195.538 C 737.414 214.929, 737.058 238.421, 728.083 258.343 C 724.389 266.544, 724.355 267.045, 727.314 269.826 C 731.004 273.292, 733.642 272.634, 736.946 267.424 C 749.334 247.890, 751.534 218.342, 742.314 195.312 C 738.078 184.731, 735.583 182.649, 730.228 185.230 M 462.330 223.188 C 461.422 224.191, 460.976 225.310, 461.339 225.673 C 461.703 226.036, 462 225.782, 462 225.108 C 462 224.434, 462.520 224.203, 463.155 224.595 C 463.870 225.038, 464.038 224.870, 463.595 224.155 C 462.889 223.011, 464.600 222.524, 468.250 222.830 C 469.212 222.910, 470 222.614, 470 222.170 C 470 220.592, 463.953 221.395, 462.330 223.188 M 397.500 239.683 C 369.361 243.275, 338.296 254.660, 315.500 269.735 C 284.956 289.935, 258.907 319.248, 242.659 351.702 C 228.663 379.659, 223 403.876, 223 435.770 C 223 454.166, 224.045 465.028, 227.062 478 C 237.851 524.378, 264.159 564.885, 301.652 592.845 C 327.430 612.068, 357.507 625.159, 388 630.426 C 401.521 632.762, 428.126 633.570, 442.069 632.067 C 492.711 626.611, 540.648 601.010, 573.172 562.051 C 594.048 537.046, 608.349 506.917, 615.678 472.500 C 618.266 460.352, 618.447 457.927, 618.445 435.500 C 618.443 404.817, 616.372 393.056, 606.436 367.307 C 589.197 322.630, 551.586 281.328, 508.500 259.760 C 488.750 249.873, 468.342 243.278, 448.994 240.528 C 439.371 239.160, 405.896 238.611, 397.500 239.683 M 657 260 C 653.173 263.827, 655.745 272, 660.777 272 C 664.425 272, 667 269.104, 667 265 C 667 258.763, 661.158 255.842, 657 260 M 414.455 261.455 C 412.089 263.820, 412 264.402, 412 277.531 L 412 291.154 414.923 294.077 C 418.743 297.897, 423.999 298.092, 427.545 294.545 C 429.919 292.172, 430 291.627, 430 278 C 430 264.373, 429.919 263.828, 427.545 261.455 C 424.134 258.044, 417.866 258.044, 414.455 261.455 M 55.299 272.960 C 51.133 275.500, 49 279.769, 49 285.568 C 49 289.656, 49.482 290.717, 52.882 294.118 C 56.374 297.609, 57.277 298, 61.848 298 C 76.267 298, 80.673 279.054, 67.802 272.398 C 64.018 270.441, 59.064 270.664, 55.299 272.960 M 772.299 272.960 C 760.706 280.028, 766.053 298.092, 779.700 297.965 C 787.108 297.895, 791.985 292.751, 791.990 285 C 791.997 274.180, 781.162 267.555, 772.299 272.960 M 371.040 276.452 C 370.377 277.251, 370.071 278.713, 370.359 279.702 C 375.393 296.974, 376.069 298.104, 380.072 295.961 C 381.231 295.341, 382 293.873, 382 292.280 C 382 289.031, 379.046 277.964, 377.721 276.250 C 376.410 274.553, 372.518 274.671, 371.040 276.452 M 464.212 276.250 C 462.596 278.206, 459.856 289.873, 460.195 293.358 C 460.463 296.115, 460.868 296.500, 463.500 296.500 C 466.254 296.500, 466.647 296.048, 468.283 291 C 470.969 282.718, 471.583 276.983, 469.899 275.917 C 467.900 274.651, 465.413 274.797, 464.212 276.250 M 325.186 289.497 C 319.335 294.421, 319.897 297.140, 329.564 310.661 C 337.768 322.135, 338.727 323, 343.240 323 C 348.488 323, 350.624 321.670, 351.981 317.557 C 353.333 313.461, 353.199 313.149, 344.741 300.743 C 335.277 286.860, 331.144 284.483, 325.186 289.497 M 507.723 288.095 C 505.201 289.563, 490.062 309.903, 489.335 312.800 C 488.992 314.168, 489.421 316.659, 490.325 318.556 C 492.361 322.826, 498.795 325.020, 502.383 322.669 C 504.410 321.341, 517.220 304.239, 519.745 299.489 C 521.352 296.467, 520.120 292.279, 516.805 289.489 C 513.674 286.855, 510.651 286.391, 507.723 288.095 M 83.387 297.847 C 80.095 299.917, 76 307.124, 76 310.848 C 76 317.349, 82.138 324.341, 88.838 325.473 C 96.806 326.819, 104.759 320.317, 105.735 311.659 C 106.284 306.790, 104.695 302.906, 100.581 299.063 C 96.957 295.677, 87.861 295.034, 83.387 297.847 M 119.958 314.593 C 118.331 318.219, 117 321.932, 117.001 322.843 C 117.002 324.917, 125.846 330, 129.452 330 C 131.714 330, 132.474 329.176, 134.555 324.471 C 135.900 321.431, 137 317.909, 137 316.646 C 137 313.985, 133.733 310.600, 129.685 309.067 C 124.149 306.969, 123.116 307.556, 119.958 314.593 M 713.500 309.412 C 706.284 312.619, 703.002 319.432, 702.996 331.218 C 702.994 335.773, 702.702 345.192, 702.347 352.148 L 701.702 364.796 694.511 365.160 C 685.585 365.610, 680.304 368.675, 677.121 375.250 C 675.014 379.603, 675 380.148, 675 459.848 C 675 547.614, 674.767 544.102, 680.941 549.297 C 683.568 551.507, 685.142 552, 689.577 552 L 695 552 695 538.060 L 695 524.121 691.250 523.810 C 687.593 523.508, 687.500 523.400, 687.500 519.500 C 687.500 515.600, 687.593 515.492, 691.250 515.190 L 695 514.879 695 503.440 L 695 492 690.943 492 L 686.885 492 687.193 487.750 C 687.491 483.618, 687.597 483.500, 691 483.500 L 694.500 483.500 694.798 477.250 C 695.085 471.209, 695.014 471, 692.655 471 C 689.525 471, 688.523 468.377, 690.500 465.359 L 692.046 463 726.523 463 L 761 463 761 457.500 L 761 452 755.122 452 C 748.667 452, 746.626 450.666, 747.173 446.805 L 747.500 444.500 767.391 444.500 C 785.248 444.500, 787.395 444.679, 788.386 446.250 C 789.189 447.524, 789.190 448.476, 788.389 449.750 C 787.506 451.155, 785.585 451.557, 778.644 451.789 L 770 452.078 770 455.957 C 770 462.791, 770.281 463, 779.485 463 C 788.455 463, 790.423 463.989, 789.827 468.195 C 789.518 470.375, 788.986 470.527, 780 471 L 770.500 471.500 770.201 477.217 L 769.902 482.934 781.201 483.217 L 792.500 483.500 792.500 487.500 L 792.500 491.500 781.250 491.783 L 770 492.066 770 503.533 L 770 515 778.557 515 L 787.115 515 786.807 519.250 L 786.500 523.500 778.250 523.790 L 770 524.081 770 538.146 L 770 552.211 781.750 551.855 C 795.132 551.451, 798.225 550.115, 801.627 543.270 C 803.411 539.679, 803.500 535.677, 803.500 459 L 803.500 378.500 800.751 373.823 C 798.624 370.206, 796.766 368.562, 792.554 366.569 L 787.106 363.992 786.803 341.665 L 786.500 319.339 783.692 315.660 C 778.048 308.266, 776.665 307.995, 744.790 308.039 C 723.452 308.069, 715.763 308.406, 713.500 309.412 M 414.669 316.045 C 413.239 317.171, 411.606 319.758, 411.040 321.795 C 410.408 324.071, 410.004 342.469, 409.993 369.500 L 409.975 413.500 406.597 415.687 C 404.739 416.891, 402.149 419.816, 400.841 422.187 L 398.462 426.500 357.648 427 L 316.834 427.500 313.917 430.766 C 310.535 434.552, 309.990 440.112, 312.631 443.883 C 316.049 448.764, 318.161 448.997, 359.218 449.038 L 397.500 449.076 400.182 452.956 C 403.490 457.741, 410.056 461.699, 417.138 463.178 C 431.200 466.114, 445.841 454.875, 447.286 440.035 C 447.598 436.832, 449.844 434.738, 477.062 412.289 C 493.253 398.934, 507.063 387.245, 507.750 386.313 C 508.438 385.380, 509 382.911, 509 380.825 C 509 372.993, 499.723 367.317, 492.741 370.877 C 490.945 371.793, 478.717 381.532, 465.566 392.521 C 452.416 403.509, 440.352 413.570, 438.757 414.878 C 436.311 416.884, 435.478 417.083, 433.429 416.150 L 431 415.043 431 367.921 L 431 320.800 427.600 317.400 C 423.547 313.347, 418.740 312.843, 414.669 316.045 M 299.655 321.829 C 298.745 322.835, 298 324.338, 298 325.170 C 298 327.351, 310.459 339, 312.791 339 C 315.527 339, 317.336 336.476, 316.627 333.648 C 316.043 331.324, 304.116 320, 302.251 320 C 301.734 320, 300.565 320.823, 299.655 321.829 M 533.974 323.642 C 531.757 325.645, 528.546 329.048, 526.839 331.203 C 524.149 334.599, 523.883 335.448, 524.846 337.561 C 526.633 341.483, 529.605 340.546, 536.562 333.865 C 543.867 326.851, 544.931 324.687, 542.435 321.928 C 539.974 319.209, 538.565 319.494, 533.974 323.642 M 730.552 322.703 C 725.631 322.912, 721.018 323.570, 720.302 324.164 C 719.313 324.985, 719 330.016, 719 345.122 L 719 365 745 365 L 771 365 771 345.691 C 771 330.601, 770.690 325.958, 769.582 324.441 C 768.298 322.684, 766.807 322.492, 753.832 322.411 C 745.949 322.363, 735.473 322.494, 730.552 322.703 M 51.496 334.250 C 45.960 339.012, 49.068 347, 56.456 347 C 63.166 347, 65.844 338.843, 60.611 334.342 C 57.199 331.407, 54.829 331.383, 51.496 334.250 M 270.500 346.208 C 267.324 348.029, 266.064 350.237, 266.054 354 C 266.041 358.843, 267.925 360.763, 280.159 368.371 C 292.134 375.818, 295.539 376.552, 299.545 372.545 C 302.864 369.227, 302.834 364.144, 299.473 360.150 C 296.132 356.180, 277.946 344.992, 274.896 345.030 C 273.578 345.047, 271.600 345.577, 270.500 346.208 M 554.279 351.586 C 548.900 355.208, 543.487 359.283, 542.250 360.641 C 539.168 364.024, 539.242 369.333, 542.414 372.505 C 547.119 377.210, 548.944 376.880, 561.465 369.065 C 576.844 359.464, 578.928 356.629, 575.490 349.980 C 571.800 342.845, 566.682 343.233, 554.279 351.586 M 76.315 380.007 C 71.801 381.826, 71.504 383.829, 71.428 413 C 71.388 428.125, 71.544 444.625, 71.774 449.667 L 72.193 458.833 109.826 458.353 C 130.525 458.089, 147.622 457.712, 147.819 457.514 C 148.017 457.316, 148.251 440.733, 148.339 420.662 L 148.500 384.169 146.076 381.585 L 143.651 379 111.076 379.063 C 93.159 379.098, 77.517 379.523, 76.315 380.007 M 696.750 383.080 C 695.168 384.002, 695 386.197, 695 405.993 C 695 427.484, 695.041 427.915, 697.223 429.443 C 699.147 430.791, 704.975 431, 740.650 431 L 781.855 431 783.927 428.365 C 785.870 425.896, 786 424.453, 786 405.437 C 786 388.321, 785.754 384.897, 784.429 383.571 C 783.049 382.192, 777.716 382.004, 740.679 382.030 C 713.895 382.050, 697.861 382.433, 696.750 383.080 M 259.667 390.667 C 258.549 391.785, 258.923 395.694, 260.250 396.757 C 262.068 398.213, 272.304 401, 275.837 401 C 279.232 401, 281.016 397.929, 279.018 395.522 C 276.543 392.540, 261.554 388.779, 259.667 390.667 M 574 391.462 C 571.525 392.190, 568.275 393.064, 566.779 393.404 C 563.267 394.204, 561.353 397.515, 563.150 399.681 C 564.634 401.468, 571.739 401.073, 578.500 398.827 C 583.092 397.302, 584.526 393.589, 581.404 391.306 C 579.319 389.782, 579.747 389.773, 574 391.462 M 703.331 391.273 C 703.069 391.698, 703.169 398.673, 703.553 406.773 L 704.253 421.500 709.377 421.025 C 714.076 420.589, 714.190 420.522, 710.750 420.214 C 706.702 419.853, 705.808 418.513, 708.949 417.516 C 710.021 417.176, 710.681 416.332, 710.416 415.640 C 709.577 413.455, 713.493 410, 716.808 410 C 718.499 410, 720.099 409.649, 720.363 409.221 C 720.628 408.792, 724.930 408.348, 729.922 408.233 C 737.385 408.062, 739 408.290, 739 409.512 C 739 410.660, 740.199 410.964, 744.250 410.843 L 749.500 410.686 744.500 410 C 739.911 409.371, 739.808 409.301, 743.250 409.157 C 745.313 409.071, 747 408.590, 747 408.088 C 747 406.756, 750.477 407.482, 750.625 408.845 C 750.694 409.480, 750.806 410.450, 750.875 411 C 750.944 411.550, 752.688 412.061, 754.750 412.136 C 757.071 412.220, 757.643 412.437, 756.250 412.706 C 752.904 413.350, 753.234 417.311, 756.750 418.701 L 759.500 419.787 756.833 419.894 C 755.367 419.952, 753.904 419.438, 753.583 418.750 C 753.117 417.750, 752.883 417.750, 752.417 418.750 C 752.026 419.588, 748.977 420.057, 743.167 420.173 L 734.500 420.346 746 421.041 C 752.325 421.424, 761.832 421.796, 767.126 421.868 L 776.752 422 777.221 406.750 C 777.479 398.363, 777.565 391.342, 777.411 391.149 C 776.827 390.416, 703.785 390.538, 703.331 391.273 M 104 403 L 104 407 120.883 407 C 137.547 407, 137.775 406.971, 138.370 404.750 C 139.966 398.792, 140.577 399, 121.500 399 L 104 399 104 403 M 708.083 405.379 C 709.103 406.305, 724.584 406.667, 736 406.031 C 748.180 405.352, 747.978 405.330, 728.083 405.167 C 716.854 405.075, 707.854 405.170, 708.083 405.379 M 758.015 406.750 C 758.026 407.930, 758.278 408.111, 758.789 407.307 C 759.207 406.650, 762.237 405.948, 765.524 405.746 L 771.500 405.378 764.750 405.189 C 758.911 405.026, 758.002 405.236, 758.015 406.750 M 83.452 419.265 C 83.121 420.126, 82.997 422.107, 83.175 423.666 L 83.500 426.500 104.904 426.667 C 127.789 426.845, 131.549 426.305, 130.498 422.993 C 130.023 421.496, 130.450 420.751, 132.181 420.057 C 133.778 419.416, 129.956 419.107, 119.906 419.063 C 111.879 419.029, 100.528 418.707, 94.682 418.350 C 85.562 417.792, 83.967 417.922, 83.452 419.265 M 250.120 428.628 C 244.912 432.277, 244.382 440.366, 249.097 444.250 C 250.885 445.723, 253.331 446, 264.529 446 C 271.848 446, 278.565 445.720, 279.455 445.379 C 281.573 444.566, 284 439.798, 284 436.450 C 284 434.770, 282.756 432.556, 280.600 430.400 L 277.200 427 264.823 427 C 255.005 427, 251.964 427.337, 250.120 428.628 M 561.856 428.516 C 559.298 429.906, 557 434.428, 557 438.072 C 557 439.048, 558.165 441.231, 559.589 442.923 L 562.178 446 576.033 446 C 589.207 446, 590.025 445.882, 592.672 443.606 C 594.895 441.693, 595.455 440.367, 595.455 437.004 C 595.455 433.520, 594.896 432.296, 592.211 429.898 C 589.002 427.030, 588.844 427, 576.734 427.040 C 568.059 427.068, 563.731 427.498, 561.856 428.516 M 83.190 440.750 L 83.500 444.500 105.864 444.769 C 123.986 444.988, 128.133 444.790, 127.726 443.728 C 127.449 443.006, 127.847 441.562, 128.611 440.517 C 129.375 439.472, 130 438.254, 130 437.809 C 130 437.364, 119.398 437, 106.440 437 L 82.879 437 83.190 440.750 M 690.832 446.470 C 688.678 451.198, 690.725 452.002, 704.872 451.985 C 711.818 451.976, 717.995 451.639, 718.600 451.235 C 720.286 450.109, 720.828 447.691, 719.830 445.750 C 719.040 444.214, 717.278 444, 705.443 444 C 692.072 444, 691.948 444.021, 690.832 446.470 M 269.235 472.573 C 261.007 474.376, 259 475.538, 259 478.500 C 259 482.579, 261.826 483.176, 270.113 480.850 C 277.981 478.642, 280 477.539, 280 475.449 C 280 474.032, 277.280 470.937, 276.179 471.100 C 275.805 471.156, 272.681 471.818, 269.235 472.573 M 564.170 471.874 C 563.414 472.353, 562.982 473.966, 563.170 475.609 C 563.479 478.313, 564.037 478.652, 571.789 480.840 C 580.793 483.382, 583 482.930, 583 478.547 C 583 476.028, 580.943 474.785, 573.068 472.545 C 566.852 470.777, 566.002 470.713, 564.170 471.874 M 704 477.266 L 704 483.595 715.750 483.547 L 727.500 483.500 727.500 477.500 L 727.500 471.500 715.750 471.218 L 704 470.937 704 477.266 M 736.409 472.377 C 736.118 473.134, 736.020 475.947, 736.190 478.627 L 736.500 483.500 748.750 483.781 L 761 484.062 761 477.531 L 761 471 748.969 471 C 739.674 471, 736.817 471.313, 736.409 472.377 M 704 503.500 L 704 515 716 515 L 728 515 728 503.500 L 728 492 716 492 L 704 492 704 503.500 M 737 503.500 L 737 515 749 515 L 761 515 761 503.500 L 761 492 749 492 L 737 492 737 503.500 M 281 503.494 C 267.285 512.089, 265.505 513.892, 265.640 519.056 C 265.780 524.386, 269.053 528, 273.740 528 C 277.730 528, 278.647 527.556, 290.656 519.817 C 299.567 514.074, 303 510.124, 303 505.615 C 303 503.071, 297.762 498.042, 294.500 497.455 C 292.038 497.012, 289.617 498.095, 281 503.494 M 545.110 498.396 C 539.509 501.500, 538.323 509.248, 542.801 513.475 C 548.177 518.548, 564.263 528, 567.522 528 C 574.143 528, 578.432 518.917, 574.477 513.270 C 573.023 511.195, 559.353 501.785, 553.074 498.538 C 549.493 496.686, 548.234 496.664, 545.110 498.396 M 67.763 500.511 C 58.167 505.908, 62.206 520.037, 73.327 519.978 C 82.674 519.928, 87.381 509.815, 81.250 502.954 C 77.910 499.216, 71.977 498.141, 67.763 500.511 M 134.183 501.829 C 127.911 507.688, 129.331 516.315, 137.079 519.415 C 144.878 522.536, 152 517.789, 152 509.469 C 152 505.842, 151.473 504.745, 148.465 502.104 C 143.707 497.926, 138.469 497.825, 134.183 501.829 M 704 538 L 704 552 716 552 L 728 552 728 538 L 728 524 716 524 L 704 524 704 538 M 736.436 525.305 C 736.161 526.023, 736.062 532.211, 736.218 539.055 L 736.500 551.500 748.750 551.781 L 761 552.062 761 538.031 L 761 524 748.969 524 C 739.993 524, 736.810 524.332, 736.436 525.305 M 305.231 537.750 C 297.478 546.022, 296.631 547.442, 297.964 549.933 C 299.945 553.635, 303.146 552.411, 310.277 545.225 C 313.975 541.499, 317 537.743, 317 536.880 C 317 535.011, 313.903 532, 311.981 532 C 311.232 532, 308.195 534.587, 305.231 537.750 M 527 534 C 525.900 535.100, 525 536.494, 525 537.097 C 525 538.603, 538.043 552, 539.509 552 C 541.523 552, 544.217 548.259, 543.601 546.318 C 542.873 544.023, 531.508 532, 530.067 532 C 529.480 532, 528.100 532.900, 527 534 M 34.501 543.999 C 33.616 545.431, 34.851 550.723, 37.113 555.192 C 40.822 562.519, 48.957 566.382, 59.500 565.820 L 65.500 565.500 65.500 554.500 L 65.500 543.500 50.325 543.224 C 40.513 543.046, 34.920 543.320, 34.501 543.999 M 152.430 544.321 C 152.151 545.048, 152.053 550.110, 152.212 555.571 L 152.500 565.500 157 565.836 C 163.468 566.319, 171.528 564.268, 175.154 561.217 C 179.008 557.974, 181.949 551.740, 181.978 546.750 L 182 543 167.469 543 C 156.348 543, 152.818 543.310, 152.430 544.321 M 339.180 548.554 C 336.933 550.160, 324.476 566.373, 322.149 570.721 C 320.192 574.379, 320.805 577.959, 323.923 581.077 C 327.113 584.267, 332.253 585.024, 335.283 582.750 C 336.199 582.063, 340.335 576.567, 344.474 570.537 C 350.430 561.861, 352 558.820, 352 555.961 C 352 549.503, 344.177 544.983, 339.180 548.554 M 493.750 549.080 C 491.145 550.598, 489.020 555.353, 489.721 558.097 C 490.059 559.419, 493.863 565.780, 498.176 572.233 C 506.616 584.863, 508.520 586.270, 514.067 583.972 C 517.202 582.674, 520 578.525, 520 575.176 C 520 573.220, 511.498 559.974, 505.285 552.250 C 502.536 548.832, 501.243 548.006, 498.683 548.030 C 496.932 548.047, 494.712 548.519, 493.750 549.080 M 692.333 564.729 C 692.709 565.338, 691.520 565.561, 689.237 565.310 C 684.474 564.785, 680.704 565.712, 681.614 567.184 C 682.033 567.863, 681.860 568.031, 681.175 567.608 C 679.469 566.554, 676.211 568.692, 674.510 571.980 C 673.680 573.586, 673 575.103, 673 575.351 C 673 575.598, 677.725 575.856, 683.500 575.922 C 690.063 575.998, 694 575.661, 694 575.022 C 694 574.460, 693.325 574, 692.500 574 C 691.675 574, 691 573.564, 691 573.031 C 691 572.499, 691.675 572.322, 692.500 572.638 C 693.662 573.084, 694 572.402, 694 569.607 C 694 567.623, 694.034 565.674, 694.075 565.275 C 694.116 564.876, 693.604 564.368, 692.936 564.145 C 692.268 563.923, 691.997 564.185, 692.333 564.729 M 704.667 564.667 C 703.403 565.930, 704.004 568.903, 705.750 570.026 C 707.417 571.097, 707.417 571.125, 705.750 570.607 C 704.353 570.172, 704 570.664, 704 573.047 L 704 576.032 715.500 575.927 L 727 575.822 726.985 569.661 C 726.974 565.314, 726.684 563.942, 726 565 C 725.436 565.873, 725.024 566.009, 725.015 565.325 C 724.997 563.918, 709.308 563.992, 707.095 565.409 C 706.127 566.030, 705.912 565.951, 706.405 565.155 C 707.163 563.928, 705.791 563.543, 704.667 564.667 M 737 570.273 C 737 573.978, 737.372 575.888, 738.016 575.490 C 738.575 575.144, 738.738 574.385, 738.377 573.801 C 737.996 573.185, 738.304 572.952, 739.111 573.245 C 739.875 573.523, 740.388 574.256, 740.250 574.875 C 740.093 575.580, 741.700 576, 744.559 576 C 747.940 576, 748.924 575.677, 748.367 574.750 C 747.786 573.783, 747.943 573.762, 749.058 574.657 C 749.851 575.293, 752.896 575.830, 755.825 575.850 C 760.631 575.883, 761.021 575.727, 759.825 574.251 C 758.867 573.069, 758.846 572.824, 759.750 573.367 C 760.682 573.927, 761 572.871, 761 569.214 L 761 564.310 757.042 564.498 C 754.864 564.601, 752.379 565.270, 751.519 565.984 C 750.223 567.060, 750.046 567.044, 750.487 565.891 C 750.911 564.786, 749.577 564.493, 744.010 564.464 L 737 564.428 737 570.273 M 773.250 564.745 C 771.279 565.090, 771 565.742, 771 570.011 C 771 575.643, 771.743 576.480, 774.425 573.872 C 776.248 572.099, 775.676 571.420, 772.750 571.882 C 771.538 572.073, 771.881 571.342, 773.692 569.872 C 775.128 568.708, 775.258 568.709, 774.553 569.880 C 773.978 570.835, 774.149 571.115, 775.111 570.791 C 775.875 570.533, 776.445 569.332, 776.377 568.122 C 776.263 566.076, 777.347 566.043, 777.625 568.083 C 777.901 570.111, 778.051 570.203, 779.333 569.138 C 780.343 568.301, 780.667 568.392, 780.667 569.516 C 780.667 570.332, 780.438 570.771, 780.158 570.491 C 779.549 569.883, 775 573.998, 775 575.156 C 775 575.601, 777.240 575.914, 779.979 575.852 C 783.362 575.776, 784.742 575.381, 784.287 574.620 C 783.801 573.809, 784.014 573.796, 785.058 574.573 C 785.851 575.163, 789.375 575.734, 792.889 575.843 C 798.865 576.027, 799.189 575.925, 797.906 574.270 C 796.621 572.611, 796.659 572.601, 798.517 574.098 C 801.130 576.204, 804 577.183, 804 575.969 C 804 575.436, 803.212 574.993, 802.250 574.985 C 800.754 574.972, 800.718 574.828, 802 574 C 803.090 573.296, 803.142 573.026, 802.191 573.015 C 801.471 573.007, 801.107 572.636, 801.382 572.191 C 802.080 571.062, 797 566.452, 794.014 565.505 C 791.307 564.645, 776.842 564.116, 773.250 564.745 M 790.490 568.016 C 790.144 568.575, 789.490 568.803, 789.035 568.522 C 788.580 568.241, 787.207 568.821, 785.984 569.812 L 783.760 571.613 786.184 573.201 C 788.597 574.782, 794.463 574.939, 795.798 573.459 C 796.184 573.031, 795.727 572.958, 794.782 573.297 C 793.837 573.636, 792.798 573.482, 792.473 572.956 C 791.951 572.112, 794.071 571.524, 796.293 571.896 C 796.729 571.969, 796.601 571.122, 796.008 570.014 C 794.682 567.538, 793.824 567.362, 794.719 569.750 C 795.291 571.278, 795.162 571.327, 793.698 570.137 C 792.776 569.387, 792.269 568.374, 792.570 567.887 C 792.871 567.399, 792.668 567, 792.118 567 C 791.568 567, 790.835 567.457, 790.490 568.016 M 786.633 570.526 C 785.051 571.683, 785.057 571.813, 786.721 572.521 C 788.825 573.416, 792.212 573.879, 791.508 573.175 C 791.238 572.905, 791.519 572.080, 792.131 571.342 C 793.368 569.852, 793.355 569.838, 790.413 569.517 C 789.265 569.391, 787.564 569.846, 786.633 570.526 M 414.923 574.923 L 412 577.846 412 592.500 L 412 607.154 414.923 610.077 C 416.918 612.072, 418.848 613, 421 613 C 423.152 613, 425.082 612.072, 427.077 610.077 L 430 607.154 430 592.659 C 430 584.686, 429.720 577.435, 429.379 576.545 C 428.568 574.433, 423.801 572, 420.473 572 C 418.903 572, 416.670 573.176, 414.923 574.923 M 375.193 576.267 C 374.569 577.020, 373.058 581.372, 371.835 585.939 C 369.665 594.048, 369.657 594.276, 371.497 595.622 C 375.651 598.659, 377.598 596.966, 380.092 588.152 C 382.700 578.937, 382.397 575.604, 378.914 575.199 C 377.492 575.034, 375.818 575.515, 375.193 576.267 M 460.388 577.591 C 460.030 579.015, 460.215 581.828, 460.798 583.841 C 461.382 585.853, 462.351 589.385, 462.952 591.690 C 464.063 595.951, 466.263 597.604, 469.282 596.445 C 471.894 595.443, 472.004 593.392, 469.881 585.288 C 467.552 576.394, 466.673 575, 463.397 575 C 461.693 575, 460.858 575.719, 460.388 577.591 M 133.500 620.926 C 129.650 623.016, 126.365 625.406, 126.201 626.238 C 125.800 628.264, 132.754 640.798, 134.922 641.958 C 136.876 643.004, 145.084 638.804, 148.500 635.011 L 150.500 632.790 146.415 625.200 C 144.169 621.026, 141.919 617.501, 141.415 617.368 C 140.912 617.235, 137.350 618.836, 133.500 620.926 M 701.284 618.250 C 698.741 621.561, 693 631.928, 693 633.211 C 693 635.895, 704.825 643.388, 707.462 642.376 C 709.653 641.535, 714.428 634.366, 715.992 629.570 C 717.198 625.872, 717.133 625.527, 714.896 623.715 C 712.757 621.983, 703.674 617, 702.656 617 C 702.430 617, 701.813 617.563, 701.284 618.250 M 99.299 638.960 C 87.817 645.960, 93.005 664, 106.500 664 C 116.967 664, 123.508 652.266, 118.040 643.299 C 114.288 637.143, 105.582 635.128, 99.299 638.960 M 727.941 639.703 C 724.572 642.538, 722 647.458, 722 651.067 C 722 654.667, 725.180 660.138, 728.420 662.114 C 730.316 663.271, 733.371 663.994, 736.368 663.996 C 740.691 664, 741.669 663.566, 745.118 660.118 C 748.683 656.552, 749 655.788, 749 650.753 C 749 646.707, 748.453 644.574, 746.912 642.615 C 742.062 636.450, 733.389 635.119, 727.941 639.703 M 586.881 653.322 C 582.141 656.170, 577.288 659.229, 576.096 660.119 L 573.929 661.738 579.429 669.722 L 584.930 677.707 582.558 680.922 C 581.254 682.690, 579.622 685.497, 578.933 687.161 C 577.816 689.860, 577.347 690.116, 574.590 689.541 C 572.891 689.185, 568.462 688.628, 564.750 688.302 L 558 687.710 558 701.355 C 558 717.069, 556.690 715.692, 569.999 713.965 C 575.174 713.294, 577.606 713.318, 577.847 714.042 C 578.040 714.620, 579.741 717.386, 581.627 720.188 C 584.550 724.532, 584.867 725.539, 583.778 727.015 C 579.043 733.432, 573.875 741.207, 574.160 741.484 C 574.347 741.666, 579.420 744.605, 585.434 748.015 C 598.092 755.194, 597.204 755.447, 601.782 743.348 C 604.468 736.251, 604.548 736.161, 608.500 735.760 C 615.557 735.044, 616.616 735.810, 620.939 744.750 C 623.133 749.288, 625.182 753, 625.493 753 C 626.670 753, 638.680 746.611, 642.750 743.819 C 645.087 742.216, 647 740.413, 647 739.813 C 647 739.213, 644.522 735.694, 641.494 731.993 L 635.988 725.262 639.494 719.440 C 641.422 716.238, 643 713.238, 643 712.774 C 643 712.309, 643.788 712.344, 644.750 712.851 C 645.712 713.357, 649.817 714.099, 653.871 714.499 C 659.617 715.067, 661.432 714.927, 662.105 713.864 C 662.581 713.114, 662.976 706.921, 662.985 700.101 L 663 687.703 654.750 688.286 C 650.212 688.607, 645.739 689.161, 644.809 689.519 C 643.522 690.013, 642.506 689.015, 640.551 685.334 C 639.138 682.675, 637.463 679.772, 636.829 678.881 C 635.896 677.571, 636.190 676.713, 638.374 674.381 C 639.858 672.797, 642.496 669.295, 644.237 666.599 L 647.402 661.699 644.252 659.069 C 640.617 656.035, 625.097 647.569, 624.417 648.250 C 624.165 648.501, 622.257 652.710, 620.175 657.603 L 616.391 666.500 610.541 666.500 L 604.691 666.500 602.987 661.488 C 600.869 655.258, 597.202 647.976, 596.230 648.072 C 595.828 648.111, 591.622 650.474, 586.881 653.322 M 687.073 672.635 C 684.365 676.077, 684.450 679.250, 687.342 682.611 C 690.135 685.859, 694.944 686.266, 697.987 683.512 C 700.658 681.095, 700.768 674.005, 698.171 671.655 C 695.246 669.008, 689.529 669.513, 687.073 672.635 M 151.870 672.912 C 144.211 675.390, 138.780 683.331, 138.846 691.952 C 138.892 697.835, 140.691 701.644, 145.363 705.746 C 154.704 713.947, 168.608 711.568, 174.086 700.831 C 177.262 694.606, 176.505 685.428, 172.397 680.352 C 170.740 678.305, 168.279 675.804, 166.928 674.796 C 164.118 672.698, 155.762 671.652, 151.870 672.912 M 603.324 676.383 C 596.611 678.573, 592.394 681.710, 588.949 687.080 C 586.364 691.108, 585.629 693.451, 585.239 698.910 C 584.660 706.996, 585.869 711.232, 590.481 717.272 C 595.015 723.209, 602.191 726.408, 611 726.419 C 620.745 726.430, 628.691 721.364, 633.617 712 C 636.104 707.272, 636.078 695.866, 633.569 691 C 627.237 678.721, 614.714 672.668, 603.324 676.383 M 379.917 677.905 C 377.946 678.304, 374.625 679.687, 372.537 680.977 C 366.060 684.980, 364.597 689.783, 360.038 722.017 C 357.823 737.683, 355.763 751.962, 355.460 753.750 L 354.909 757 420.792 757 L 486.675 757 485.371 748.250 C 484.654 743.438, 482.912 729.825, 481.499 718 C 477.953 688.301, 476.579 684.539, 467.500 679.653 C 463.612 677.560, 462.382 677.496, 423.500 677.339 C 401.500 677.250, 381.887 677.505, 379.917 677.905 M 601.922 687.274 C 588.840 696.090, 592.676 714.728, 608.148 717.525 C 616.017 718.947, 625.294 711.893, 626.547 703.534 C 628.503 690.493, 612.663 680.035, 601.922 687.274 M 387.231 693.815 C 382.903 694.232, 381.515 696.689, 380.066 706.500 C 379.416 710.900, 378.636 715.962, 378.331 717.750 L 377.777 721 420.389 721 C 462.380 721, 463 720.971, 463 718.993 C 463 713.766, 459.774 696.349, 458.585 695.158 C 457.525 694.096, 450.289 693.784, 423.873 693.658 C 405.518 693.571, 389.029 693.642, 387.231 693.815 M 206.022 712.250 C 206.054 715.543, 209.682 723, 211.251 723 C 211.993 723, 213.140 722.460, 213.800 721.800 C 214.733 720.867, 215 720.939, 215 722.126 C 215 725.684, 223.978 731.052, 233 732.888 C 242.630 734.848, 256.364 731.167, 260.890 725.413 C 261.934 724.086, 263.623 722.999, 264.644 722.999 C 265.956 722.998, 267.160 721.378, 268.750 717.475 C 269.988 714.438, 271 711.514, 271 710.977 C 271 710.440, 268.535 710, 265.523 710 C 260.752 710, 259.830 710.330, 258.371 712.557 C 255.847 716.409, 248.757 720.860, 243.047 722.179 C 235.498 723.921, 228.241 721.412, 221.999 714.901 C 217.458 710.166, 217.108 710, 211.650 710 C 206.451 710, 206.002 710.180, 206.022 712.250 M 306.026 715.951 C 304.509 718.786, 294 746.523, 294 747.693 C 294 748.562, 309.420 756.029, 311.169 756.008 C 311.689 756.002, 319.002 738.371, 324.555 723.737 C 325.105 722.288, 323.689 721.265, 316.594 717.987 C 311.847 715.794, 307.763 714, 307.517 714 C 307.271 714, 306.601 714.878, 306.026 715.951 M 524.774 718.588 C 516.741 722.648, 516.117 723.176, 516.914 725.249 C 518.398 729.112, 529.291 755.484, 529.531 755.796 C 529.959 756.353, 548 748.791, 548 748.054 C 548 746.907, 534.983 715.583, 534.198 714.839 C 533.814 714.476, 529.573 716.163, 524.774 718.588 M 379.852 731.804 C 376.172 732.111, 375.050 733.606, 375.014 738.250 C 375.001 739.892, 377.853 740, 421.019 740 L 467.038 740 466.436 737.250 C 466.104 735.737, 465.663 733.947, 465.456 733.272 C 465.168 732.333, 455.468 731.980, 424.290 731.772 C 401.855 731.622, 381.859 731.637, 379.852 731.804 M 349.383 771.335 C 347.357 774.176, 343.450 779.114, 340.700 782.309 C 336.996 786.613, 335.721 788.893, 335.784 791.105 C 335.916 795.749, 339.105 800.276, 343.985 802.750 L 348.424 805 419.587 805 C 458.727 805, 492.207 804.709, 493.988 804.352 C 498.618 803.426, 504.658 797.342, 505.522 792.732 C 506.156 789.354, 505.842 788.526, 502.363 784.397 C 498.114 779.354, 491.322 770.353, 489.990 768 C 489.250 766.692, 480.420 766.479, 421.103 766.335 L 353.066 766.169 349.383 771.335 M 544.458 769.846 C 535.367 774.052, 533.163 785.695, 540.112 792.803 C 546.234 799.065, 555.275 798.868, 560.999 792.349 C 565.266 787.489, 565.870 782.647, 562.900 777.114 C 558.610 769.121, 551.814 766.442, 544.458 769.846 M 284.299 770.960 C 280.231 773.440, 277.678 778.336, 277.672 783.671 C 277.662 791.935, 284.015 797.370, 292.915 796.710 C 297.599 796.362, 298.771 795.826, 301.604 792.735 C 307.538 786.260, 307.340 779.105, 301.053 772.817 C 297.673 769.438, 296.677 769, 292.368 769.004 C 289.305 769.006, 286.313 769.732, 284.299 770.960 M 404.098 786.228 C 401.014 787.861, 399.514 790.291, 400.309 792.364 C 400.861 793.801, 403.306 794, 420.433 794 C 438.590 794, 440 793.869, 440.950 792.093 C 441.731 790.635, 441.525 789.634, 440.076 787.843 C 438.252 785.588, 437.589 785.490, 422.341 785.228 C 410.992 785.034, 405.819 785.317, 404.098 786.228" stroke="none" fill="#081d2d" fill-rule="evenodd"/></svg>