<?xml version="1.0" encoding="UTF-8"?>
<svg xmlns="http://www.w3.org/2000/svg" xmlns:xlink="http://www.w3.org/1999/xlink" width="px" height="512px" viewBox="0 0 512 512" version="1.1">
<g id="surface1">
<path style=" stroke:none;fill-rule:nonzero;fill:rgb(0%,0%,0%);fill-opacity:1;" d="M 186.878906 56.660156 C 175.785156 60.585938 168.105469 67.585938 161.792969 79.359375 C 158.378906 85.332031 157.867188 89.429688 157.355469 112.980469 L 156.671875 139.945312 L 99.667969 139.945312 C 46.25 139.945312 42.15625 140.117188 36.011719 143.359375 C 27.988281 147.285156 22.871094 153.601562 20.308594 161.960938 C 19.113281 166.058594 18.773438 211.96875 19.113281 302.25 L 19.625 436.222656 L 24.234375 443.222656 C 26.964844 447.316406 31.742188 451.585938 36.179688 453.800781 L 43.691406 457.386719 L 256.171875 457.386719 C 460.96875 457.386719 468.652344 457.214844 475.648438 454.144531 C 480.085938 452.097656 484.523438 448.171875 487.59375 443.5625 L 492.375 436.222656 L 492.886719 302.25 C 493.226562 211.96875 492.886719 166.058594 491.691406 161.960938 C 489.128906 153.601562 484.011719 147.285156 475.988281 143.359375 C 469.84375 140.117188 465.75 139.945312 412.332031 139.945312 L 355.328125 139.945312 L 354.644531 112.980469 C 353.960938 82.945312 352.257812 77.484375 340.308594 65.878906 C 329.046875 54.953125 325.972656 54.613281 255.316406 54.785156 C 215.210938 54.785156 190.121094 55.464844 186.878906 56.660156 Z M 328.191406 73.898438 C 338.945312 82.089844 340.308594 86.527344 340.992188 114.6875 L 341.675781 139.945312 L 331.09375 139.945312 L 331.09375 117.589844 C 331.09375 92.5 329.046875 85.332031 320.683594 81.066406 C 313.683594 77.3125 198.316406 77.3125 191.316406 81.066406 C 182.953125 85.332031 180.90625 92.5 180.90625 117.589844 L 180.90625 139.945312 L 170.667969 139.945312 L 170.667969 118.101562 C 170.667969 94.039062 172.203125 86.015625 178.347656 78.847656 C 187.222656 68.265625 187.222656 68.265625 257.878906 68.777344 L 322.046875 69.121094 Z M 315.390625 94.207031 C 316.757812 95.574219 317.441406 103.425781 317.441406 118.101562 L 317.441406 139.945312 L 194.558594 139.945312 L 194.558594 118.101562 C 194.558594 103.425781 195.242188 95.574219 196.609375 94.207031 C 199.507812 91.308594 312.492188 91.308594 315.390625 94.207031 Z M 167.765625 142.335938 C 168.960938 145.40625 167.59375 146.773438 163.5 146.773438 C 160.425781 146.773438 159.230469 143.359375 161.621094 141.140625 C 163.5 139.09375 166.910156 139.777344 167.765625 142.335938 Z M 191.660156 142.335938 C 192.851562 145.40625 191.488281 146.773438 187.390625 146.773438 C 184.320312 146.773438 183.125 143.359375 185.515625 141.140625 C 187.390625 139.09375 190.804688 139.777344 191.660156 142.335938 Z M 327.339844 143.871094 C 327.679688 145.75 326.828125 146.773438 324.609375 146.773438 C 320.511719 146.773438 319.148438 145.40625 320.339844 142.335938 C 321.535156 138.921875 326.65625 140.117188 327.339844 143.871094 Z M 351.230469 143.871094 C 351.574219 145.75 350.71875 146.773438 348.5 146.773438 C 344.40625 146.773438 343.039062 145.40625 344.234375 142.335938 C 345.429688 138.921875 350.550781 140.117188 351.230469 143.871094 Z M 472.574219 158.039062 C 479.402344 163.667969 480.597656 170.835938 477.183594 187.222656 C 470.015625 222.550781 444.585938 250.878906 411.308594 259.925781 C 405.675781 261.632812 392.363281 262.828125 378.539062 263.167969 L 354.988281 263.851562 L 354.988281 258.390625 C 354.988281 249.515625 351.574219 247.464844 336.214844 247.464844 C 318.464844 247.464844 317.441406 247.980469 317.441406 256.683594 L 317.441406 263.679688 L 194.558594 263.679688 L 194.558594 257.535156 C 194.558594 248.660156 192.339844 247.464844 176.46875 247.464844 C 160.425781 247.464844 157.011719 249.34375 157.011719 258.390625 L 157.011719 263.851562 L 133.632812 263.167969 C 119.636719 262.828125 106.324219 261.632812 100.691406 259.925781 C 67.414062 250.878906 41.984375 222.550781 34.816406 187.222656 C 31.402344 170.835938 32.597656 163.667969 39.425781 158.039062 L 44.714844 153.601562 L 467.285156 153.601562 Z M 30.039062 197.460938 C 30.71875 200.191406 32.9375 206.164062 35.15625 211.113281 C 39.082031 219.988281 38.910156 222.378906 34.988281 220.84375 C 33.792969 220.332031 32.257812 220.671875 31.574219 221.695312 C 31.0625 222.71875 29.355469 223.574219 27.988281 223.574219 C 26.113281 223.574219 25.601562 220.5 25.601562 208.214844 C 25.601562 193.023438 27.820312 187.902344 30.039062 197.460938 Z M 486.398438 208.382812 C 486.398438 222.550781 486.058594 223.742188 483.5 222.550781 C 481.792969 221.867188 478.71875 221.183594 476.671875 221.183594 C 474.453125 221.011719 472.917969 220.671875 473.257812 220.160156 C 473.429688 219.648438 475.988281 213.332031 478.71875 206.164062 C 481.621094 198.828125 484.351562 192.851562 485.207031 192.851562 C 485.886719 192.851562 486.398438 199.851562 486.398438 208.382812 Z M 38.058594 230.910156 C 45.226562 243.199219 63.148438 258.558594 79.019531 266.070312 C 98.132812 275.113281 108.03125 277.164062 134.316406 277.164062 L 157.011719 277.332031 L 157.011719 283.308594 C 157.011719 286.71875 157.867188 290.304688 159.0625 291.5 C 161.449219 293.886719 188.929688 294.398438 192.511719 292.011719 C 193.878906 291.15625 195.070312 287.742188 195.070312 284.332031 L 195.414062 278.015625 L 316.585938 278.015625 L 316.929688 284.332031 C 316.929688 287.742188 318.121094 291.15625 319.488281 292.011719 C 323.070312 294.398438 350.550781 293.886719 352.9375 291.5 C 354.132812 290.304688 354.988281 286.71875 354.988281 283.308594 L 354.988281 277.332031 L 377.683594 277.164062 C 403.96875 277.164062 413.867188 275.113281 432.980469 266.070312 C 448.851562 258.558594 466.773438 243.199219 473.941406 230.910156 C 476.160156 226.988281 478.550781 223.574219 478.890625 223.574219 C 479.230469 223.574219 479.574219 257.367188 479.574219 298.667969 L 479.574219 373.761719 L 32.425781 373.761719 L 32.425781 298.667969 C 32.425781 257.367188 32.769531 223.574219 33.109375 223.574219 C 33.449219 223.574219 35.839844 226.988281 38.058594 230.910156 Z M 180.90625 270.507812 C 180.90625 279.722656 180.90625 279.894531 175.785156 279.894531 C 170.667969 279.894531 170.667969 279.722656 170.667969 270.507812 C 170.667969 261.289062 170.667969 261.121094 175.785156 261.121094 C 180.90625 261.121094 180.90625 261.289062 180.90625 270.507812 Z M 341.332031 270.507812 C 341.332031 279.722656 341.332031 279.894531 336.214844 279.894531 C 331.09375 279.894531 331.09375 279.722656 331.09375 270.507812 C 331.09375 261.289062 331.09375 261.121094 336.214844 261.121094 C 341.332031 261.121094 341.332031 261.289062 341.332031 270.507812 Z M 163.839844 270.847656 C 163.839844 276.992188 163.839844 276.992188 160.425781 273.921875 C 157.183594 271.019531 157.183594 270.675781 159.742188 267.605469 C 163.667969 263.507812 163.839844 263.507812 163.839844 270.847656 Z M 193.535156 272.726562 C 190.121094 278.015625 186.027344 273.238281 188.585938 266.753906 C 189.441406 264.191406 189.78125 264.191406 192.511719 266.753906 C 194.730469 269.140625 194.902344 270.335938 193.535156 272.726562 Z M 322.558594 270.675781 C 322.558594 275.96875 322.21875 276.652344 320 274.773438 C 316.929688 272.214844 316.757812 269.3125 319.488281 266.582031 C 322.390625 263.679688 322.558594 263.851562 322.558594 270.675781 Z M 352.257812 267.605469 C 354.816406 270.675781 354.816406 271.019531 351.574219 273.921875 C 348.160156 276.992188 348.160156 276.992188 348.160156 270.847656 C 348.160156 263.507812 348.332031 263.507812 352.257812 267.605469 Z M 31.402344 381.78125 C 28.332031 386.730469 25.601562 386.390625 25.601562 380.929688 C 25.601562 374.613281 27.308594 373.078125 30.550781 376.320312 C 32.597656 378.199219 32.769531 379.734375 31.402344 381.78125 Z M 486.398438 379.5625 C 486.398438 384.851562 484.011719 386.390625 481.28125 383.148438 C 478.71875 380.074219 480.257812 375.464844 483.839844 375.464844 C 485.375 375.464844 486.398438 377.003906 486.398438 379.5625 Z M 478.71875 410.625 L 478.71875 433.835938 L 473.089844 438.785156 L 467.625 443.734375 L 44.375 443.734375 L 38.910156 438.785156 L 33.28125 433.835938 L 32.769531 412.160156 C 32.425781 400.382812 32.425781 389.632812 32.9375 388.609375 C 33.449219 387.070312 85.675781 386.730469 256.171875 386.902344 L 478.71875 387.414062 Z M 478.71875 410.625 "/>
<path style=" stroke:none;fill-rule:nonzero;fill:rgb(0%,0%,0%);fill-opacity:1;" d="M 363.863281 165.886719 C 362.835938 166.910156 361.8125 169.300781 361.8125 170.835938 C 361.8125 176.640625 365.910156 177.664062 388.265625 177.152344 C 406.871094 176.640625 410.28125 176.128906 411.988281 173.566406 C 413.355469 171.519531 413.355469 169.8125 411.988281 167.59375 C 410.28125 165.207031 406.871094 164.691406 388.097656 164.179688 C 372.394531 163.839844 365.398438 164.351562 363.863281 165.886719 Z M 363.863281 165.886719 "/>
</g>
</svg>
