<?xml version="1.0" encoding="UTF-8"?>
<svg xmlns="http://www.w3.org/2000/svg" xmlns:xlink="http://www.w3.org/1999/xlink" width="px" height="512px" viewBox="0 0 559 512" version="1.1">
<g id="surface1">
<path style=" stroke:none;fill-rule:nonzero;fill:rgb(0%,0%,0%);fill-opacity:1;" d="M 391.859375 66.238281 C 388.691406 67.546875 384.59375 71.277344 382.914062 74.449219 L 379.933594 80.234375 L 271.488281 80.234375 C 166.582031 80.234375 162.855469 80.417969 156.894531 83.964844 C 148.878906 89.003906 143.476562 98.144531 143.476562 107.289062 L 143.476562 114.753906 L 126.707031 114.753906 C 110.867188 114.753906 109.75 115.125 104.90625 119.976562 L 99.6875 125.015625 L 99.6875 377.28125 L 105.835938 382.695312 C 111.425781 387.730469 112.917969 388.105469 127.636719 388.105469 L 143.476562 388.105469 L 143.476562 394.636719 C 143.476562 403.03125 147.203125 410.496094 154.65625 416.839844 L 160.621094 421.691406 L 379.5625 421.691406 L 381.609375 426.355469 C 384.40625 432.328125 394.28125 438.484375 401.175781 438.484375 C 408.070312 438.484375 416.082031 434.191406 419.996094 428.40625 C 426.703125 418.144531 421.859375 399.671875 411.796875 396.5 C 408.441406 395.382812 408.070312 393.515625 408.070312 372.429688 L 408.070312 349.667969 L 421.671875 346.496094 C 456.890625 338.285156 482.789062 315.148438 494.15625 281.9375 C 500.117188 264.582031 499.933594 237.339844 493.96875 220.175781 C 486.515625 198.53125 472.726562 180.992188 453.535156 168.675781 C 442.167969 161.398438 423.910156 154.867188 414.589844 154.867188 L 408.070312 154.867188 L 408.070312 130.613281 C 408.070312 111.019531 408.628906 106.355469 410.679688 106.355469 C 412.167969 106.355469 415.523438 103.742188 418.132812 100.570312 C 427.074219 89.9375 423.535156 72.398438 411.050781 66.425781 C 403.410156 62.878906 399.683594 62.695312 391.859375 66.238281 Z M 406.578125 78.742188 C 411.050781 82.472656 411.796875 86.949219 408.816406 91.242188 C 405.089844 96.28125 397.820312 96.28125 394.28125 91.054688 C 390.554688 85.644531 390.554688 84.710938 395.027344 80.234375 C 399.3125 75.941406 402.480469 75.570312 406.578125 78.742188 Z M 390.925781 105.421875 C 394.839844 107.101562 395.027344 108.222656 395.027344 130.984375 L 395.027344 154.867188 L 388.132812 154.867188 C 372.851562 155.054688 345.835938 168.117188 333.164062 181.550781 L 327.945312 186.960938 L 327.945312 157.855469 C 327.945312 123.707031 326.457031 118.855469 315.277344 115.683594 C 310.617188 114.378906 283.414062 113.820312 232.359375 114.191406 L 156.519531 114.753906 L 156.519531 108.035156 C 156.519531 103.558594 157.824219 100.199219 160.804688 97.398438 C 165.089844 93.292969 165.277344 93.292969 272.234375 92.921875 L 379.1875 92.363281 L 382.914062 97.960938 C 384.964844 100.945312 388.691406 104.304688 390.925781 105.421875 Z M 316.394531 125.386719 C 317.882812 126.878906 318.628906 137.890625 318.628906 162.890625 L 318.628906 198.15625 L 313.039062 209.914062 C 309.871094 216.441406 306.890625 225.585938 306.332031 230.25 L 305.027344 238.832031 L 249.871094 239.207031 C 202.359375 239.765625 194.71875 240.140625 194.71875 242.566406 C 194.71875 244.992188 202.171875 245.363281 249.3125 245.925781 L 303.722656 246.296875 L 303.722656 254.320312 C 303.722656 265.328125 308.382812 283.988281 313.972656 294.808594 C 318.445312 303.582031 318.628906 305.257812 318.628906 339.21875 C 318.628906 364.035156 317.882812 375.042969 316.394531 376.535156 C 314.71875 378.214844 289.1875 378.777344 212.980469 378.777344 C 114.96875 378.777344 111.800781 378.589844 109.9375 375.230469 C 108.820312 372.804688 108.074219 330.261719 108.074219 250.214844 C 108.074219 142.554688 108.445312 128.746094 111.054688 126.132812 C 113.664062 123.523438 125.589844 123.148438 214.097656 123.148438 C 289.375 123.148438 314.71875 123.707031 316.394531 125.386719 Z M 413.660156 161.960938 C 417.015625 163.265625 414.40625 163.636719 403.226562 163.453125 C 388.320312 163.265625 388.132812 163.265625 393.164062 160.09375 C 395.957031 158.414062 398.941406 155.988281 399.683594 154.867188 C 400.617188 153.375 402.292969 153.9375 405.089844 156.546875 C 407.136719 158.601562 411.050781 161.027344 413.660156 161.960938 Z M 440.679688 170.167969 C 454.652344 176.511719 471.050781 190.695312 477.574219 202.261719 C 483.722656 213.269531 488.378906 225.773438 486.515625 225.773438 C 485.585938 225.773438 484.28125 223.535156 483.535156 220.546875 C 481.859375 213.457031 472.167969 198.15625 464.15625 189.761719 C 457.074219 182.109375 434.53125 167.929688 429.683594 167.929688 C 428.195312 167.929688 426.515625 167.183594 425.773438 166.25 C 424.652344 164.199219 431.921875 166.0625 440.679688 170.167969 Z M 368.007812 169.050781 C 365.957031 170.730469 360.367188 173.902344 355.710938 176.328125 C 345.089844 181.925781 329.808594 198.15625 324.035156 210.660156 C 321.613281 215.882812 319.003906 220.175781 318.257812 220.175781 C 316.765625 220.175781 319.746094 211.03125 322.355469 208.046875 C 323.289062 206.925781 324.59375 202.449219 325.339844 198.34375 C 326.269531 192.558594 327.574219 190.320312 330.554688 189.574219 C 332.605469 189.015625 337.261719 186.214844 340.617188 183.417969 C 346.394531 178.566406 368.382812 166.0625 370.804688 166.0625 C 371.363281 166.0625 370.058594 167.558594 368.007812 169.050781 Z M 429.125 175.394531 C 465.648438 189.199219 488.378906 228.945312 480.738281 266.074219 C 473.660156 299.847656 447.945312 324.851562 413.847656 330.636719 C 357.945312 340.152344 308.566406 286.601562 323.101562 231.929688 C 331.300781 201.328125 355.523438 178.191406 385.894531 171.660156 C 397.449219 169.234375 417.386719 170.914062 429.125 175.394531 Z M 313.785156 246.484375 C 313.226562 256.1875 311.175781 261.597656 311.175781 253.949219 C 311.175781 251.707031 310.246094 248.164062 309.128906 246.109375 C 307.824219 243.3125 307.824219 241.632812 309.5 239.582031 C 313.414062 234.914062 314.53125 236.78125 313.785156 246.484375 Z M 486.328125 281.5625 C 480.925781 295.558594 475.710938 303.765625 465.648438 314.402344 C 456.144531 324.292969 439.558594 334.925781 435.648438 333.621094 C 434.34375 333.0625 438.257812 330.449219 444.03125 327.464844 C 461.363281 319.066406 479.0625 297.234375 485.398438 276.523438 C 485.957031 274.285156 487.261719 272.417969 488.191406 272.417969 C 488.9375 272.417969 488.191406 276.523438 486.328125 281.5625 Z M 340.429688 313.28125 C 346.953125 320 352.171875 325.785156 352.171875 326.15625 C 352.171875 327.648438 341.921875 320.375 340.429688 317.761719 C 339.6875 316.453125 337.636719 315.335938 336.332031 315.335938 C 334.839844 315.335938 333.535156 314.589844 333.535156 313.65625 C 333.535156 312.722656 331.859375 311.601562 329.808594 311.042969 C 327.761719 310.484375 326.082031 308.617188 326.082031 306.566406 C 325.898438 304.699219 324.035156 298.914062 321.613281 293.878906 C 315.648438 281.375 317.699219 279.136719 323.847656 291.265625 C 326.457031 296.675781 333.910156 306.566406 340.429688 313.28125 Z M 357.761719 338.472656 C 364.65625 341.832031 375.835938 345.75 382.730469 347.054688 L 395.027344 349.292969 L 395.027344 372.246094 C 395.027344 394.820312 395.027344 395.007812 390.367188 397.0625 C 387.757812 398.367188 384.03125 401.726562 382.355469 404.898438 L 379.1875 410.496094 L 274.28125 410.496094 C 185.773438 410.496094 168.632812 410.121094 164.160156 407.695312 C 158.195312 404.710938 156.519531 401.539062 156.519531 393.515625 L 156.519531 388.105469 L 234.78125 388.105469 C 319.933594 388.105469 321.050781 387.917969 325.710938 377.84375 C 327.203125 374.855469 327.945312 362.542969 327.945312 344.441406 L 327.945312 316.082031 L 336.519531 324.105469 C 341.363281 328.582031 350.867188 334.925781 357.761719 338.472656 Z M 366.144531 331.195312 C 371.363281 333.621094 373.972656 335.671875 372.109375 335.671875 C 368.753906 335.859375 354.035156 329.144531 354.035156 327.464844 C 354.035156 325.785156 356.640625 326.71875 366.144531 331.195312 Z M 408.628906 339.21875 C 411.609375 340.523438 411.425781 341.085938 406.765625 344.628906 C 401.363281 348.363281 401.363281 348.363281 396.890625 344.816406 C 393.164062 341.832031 392.976562 340.898438 395.214844 339.40625 C 398.195312 337.539062 403.785156 337.351562 408.628906 339.21875 Z M 409.1875 411.429688 C 411.238281 414.414062 411.238281 416.09375 409.375 419.824219 C 406.019531 426.542969 398.007812 427.101562 393.910156 420.945312 C 391.113281 416.464844 391.113281 415.71875 393.910156 411.242188 C 397.820312 405.644531 405.460938 405.644531 409.1875 411.429688 Z M 409.1875 411.429688 "/>
<path style=" stroke:none;fill-rule:nonzero;fill:rgb(0%,0%,0%);fill-opacity:1;" d="M 137.886719 142.925781 C 131.925781 145.351562 122.792969 155.988281 120.929688 162.707031 C 115.339844 183.976562 135.835938 204.128906 156.894531 197.972656 C 178.695312 191.253906 185.214844 165.316406 168.632812 149.269531 C 163.042969 143.859375 160.804688 142.925781 151.488281 142.367188 C 145.527344 142.179688 139.378906 142.367188 137.886719 142.925781 Z M 158.941406 151.136719 C 161.921875 153.75 148.136719 162.332031 141.054688 162.332031 C 137.328125 162.332031 133.789062 163.078125 133.226562 164.199219 C 131.550781 166.996094 128.570312 166.4375 128.570312 163.453125 C 128.570312 158.972656 136.023438 151.136719 142.171875 149.457031 C 148.136719 147.777344 156.148438 148.523438 158.941406 151.136719 Z M 156.519531 175.953125 L 145.898438 186.777344 L 139.003906 179.871094 C 132.484375 173.339844 132.296875 172.78125 135.277344 169.609375 C 138.445312 166.0625 138.632812 166.0625 142.546875 169.796875 L 146.457031 173.527344 L 153.539062 166.25 C 160.246094 159.535156 160.804688 159.160156 163.972656 162.144531 C 166.953125 164.945312 166.582031 165.691406 156.519531 175.953125 Z M 167.886719 180.617188 C 165.464844 185.28125 159.875 189.574219 155.214844 190.695312 C 151.863281 191.625 152.605469 190.132812 158.941406 183.789062 C 166.394531 175.953125 171.242188 174.273438 167.886719 180.617188 Z M 167.886719 180.617188 "/>
<path style=" stroke:none;fill-rule:nonzero;fill:rgb(0%,0%,0%);fill-opacity:1;" d="M 194.53125 159.535156 C 193.785156 161.210938 193.785156 162.890625 194.160156 163.453125 C 194.71875 163.824219 220.058594 164.386719 250.804688 164.386719 C 303.722656 164.570312 306.519531 164.386719 306.519531 161.027344 C 306.519531 157.855469 303.535156 157.667969 250.992188 157.109375 C 202.171875 156.734375 195.464844 157.109375 194.53125 159.535156 Z M 194.53125 159.535156 "/>
<path style=" stroke:none;fill-rule:nonzero;fill:rgb(0%,0%,0%);fill-opacity:1;" d="M 194.71875 177.257812 C 191.738281 182.109375 197.511719 182.855469 244.28125 182.855469 C 291.238281 182.855469 292.542969 182.671875 292.542969 179.125 C 292.542969 175.582031 291.238281 175.394531 244.28125 175.394531 C 213.910156 175.394531 195.464844 176.140625 194.71875 177.257812 Z M 194.71875 177.257812 "/>
<path style=" stroke:none;fill-rule:nonzero;fill:rgb(0%,0%,0%);fill-opacity:1;" d="M 136.023438 225.210938 C 128.382812 229.132812 121.675781 238.460938 120 247.417969 C 118.507812 255.8125 125.402344 269.996094 133.972656 275.59375 C 157.636719 291.453125 187.824219 263.089844 174.59375 237.527344 C 167.699219 224.28125 149.253906 218.308594 136.023438 225.210938 Z M 156.894531 231.558594 C 160.433594 233.421875 160.246094 233.796875 153.726562 238.460938 C 150 241.257812 144.222656 243.5 140.867188 243.683594 C 137.699219 243.683594 133.601562 244.429688 131.550781 245.363281 C 128.570312 246.671875 128.382812 246.296875 129.5 242.378906 C 132.667969 232.488281 147.574219 226.519531 156.894531 231.558594 Z M 164.347656 243.871094 C 166.953125 247.042969 166.210938 248.164062 156.332031 257.679688 L 145.527344 268.128906 L 138.632812 261.039062 C 131.738281 253.949219 131.738281 253.761719 135.089844 250.027344 C 138.445312 246.296875 138.445312 246.296875 141.054688 250.027344 C 144.59375 255.253906 146.457031 254.695312 152.980469 247.230469 C 159.6875 239.765625 160.433594 239.582031 164.347656 243.871094 Z M 167.699219 262.34375 C 164.90625 267.195312 154.65625 273.914062 154.65625 270.742188 C 154.65625 268.316406 168.074219 255.253906 169.191406 256.558594 C 169.75 257.121094 169.003906 259.730469 167.699219 262.34375 Z M 167.699219 262.34375 "/>
<path style=" stroke:none;fill-rule:nonzero;fill:rgb(0%,0%,0%);fill-opacity:1;" d="M 194.71875 257.492188 C 191.738281 262.34375 197.511719 263.089844 244.28125 263.089844 C 289.5625 263.089844 292.730469 262.902344 292.171875 259.730469 C 291.613281 256.746094 287.511719 256.558594 243.722656 256 C 212.792969 255.8125 195.464844 256.1875 194.71875 257.492188 Z M 194.71875 257.492188 "/>
<path style=" stroke:none;fill-rule:nonzero;fill:rgb(0%,0%,0%);fill-opacity:1;" d="M 140.308594 304.328125 C 132.109375 306.753906 123.539062 315.894531 121.117188 324.851562 C 113.476562 352.839844 148.878906 373.179688 169.378906 352.464844 C 184.84375 336.980469 177.949219 310.109375 156.894531 304.140625 C 148.878906 302.085938 148.320312 302.085938 140.308594 304.328125 Z M 155.589844 311.976562 C 160.621094 314.214844 161.921875 317.199219 157.824219 317.199219 C 156.332031 317.199219 153.726562 318.878906 151.675781 321.121094 C 149.253906 323.917969 146.644531 324.664062 142.546875 324.105469 C 139.5625 323.730469 135.652344 324.292969 133.789062 325.410156 C 128.941406 328.398438 127.636719 325.410156 131.179688 320 C 134.160156 315.335938 143.476562 309.925781 148.507812 309.738281 C 149.8125 309.738281 152.980469 310.671875 155.589844 311.976562 Z M 157.078125 338.097656 L 146.273438 348.921875 L 139.003906 341.644531 C 132.109375 334.742188 131.925781 334.179688 134.90625 331.195312 C 137.886719 328.023438 138.257812 328.210938 142.359375 331.941406 L 146.457031 335.859375 L 153.726562 328.398438 C 160.621094 321.304688 161.179688 321.121094 164.347656 324.105469 C 167.699219 327.089844 167.328125 327.648438 157.078125 338.097656 Z M 168.257812 341.457031 C 167.140625 345.9375 159.128906 352.652344 155.03125 352.652344 C 152.980469 352.652344 154.46875 350.039062 159.316406 345.191406 C 167.511719 336.792969 169.75 335.859375 168.257812 341.457031 Z M 168.257812 341.457031 "/>
<path style=" stroke:none;fill-rule:nonzero;fill:rgb(0%,0%,0%);fill-opacity:1;" d="M 195.089844 320.375 C 194.34375 320.933594 193.785156 322.613281 193.785156 324.105469 C 193.785156 325.972656 204.59375 326.53125 250.804688 326.53125 C 304.097656 326.53125 307.636719 326.34375 307.078125 323.171875 C 306.519531 320.1875 302.046875 320 251.363281 319.441406 C 221.175781 319.253906 195.835938 319.625 195.089844 320.375 Z M 195.089844 320.375 "/>
<path style=" stroke:none;fill-rule:nonzero;fill:rgb(0%,0%,0%);fill-opacity:1;" d="M 194.53125 339.777344 C 191.738281 344.441406 198.632812 345.191406 244.28125 344.816406 C 287.511719 344.257812 291.613281 344.070312 292.171875 340.898438 C 292.730469 337.914062 289.5625 337.726562 244.28125 337.726562 C 211.488281 337.726562 195.464844 338.285156 194.53125 339.777344 Z M 194.53125 339.777344 "/>
<path style=" stroke:none;fill-rule:nonzero;fill:rgb(0%,0%,0%);fill-opacity:1;" d="M 377.699219 193.492188 C 377.136719 194.425781 380.867188 205.808594 385.894531 219.242188 C 390.925781 232.488281 395.027344 245.550781 395.027344 248.351562 C 395.027344 252.082031 390.367188 256.746094 369.871094 273.351562 C 348.070312 290.890625 340.804688 298.542969 346.207031 298.542969 C 346.953125 298.542969 358.878906 289.398438 372.667969 278.015625 C 387.015625 266.449219 399.683594 257.492188 402.480469 257.121094 C 405.089844 256.746094 416.082031 259.546875 427.261719 263.277344 C 444.03125 268.875 447.574219 269.433594 449.4375 267.382812 C 452.417969 263.648438 450.554688 262.71875 430.429688 256.558594 C 413.847656 251.523438 406.207031 248.164062 411.425781 248.164062 C 414.21875 248.164062 414.21875 243.871094 411.425781 241.074219 C 409.746094 239.394531 408.441406 239.582031 406.019531 241.820312 C 402.851562 244.804688 403.597656 246.484375 385.523438 196.292969 C 384.03125 192.375 379.375 190.695312 377.699219 193.492188 Z M 377.699219 193.492188 "/>
</g>
</svg>
